{
.appVersion = "1346";
classes = (
{
code = "phaorya bhaorya laorya phanuktaorya lanuktaorya ngakaorya ngakhaorya ngagaorya ngaghaorya nyajaorya dabhaorya maphaorya lakaorya lagaorya lalaorya lakaUIorya lalaUIorya kassannaorya lapaorya laphaorya lasaorya ngakhaorya phattaUIorya phattaorya sakaorya sakhaUIorya sakhaorya ssakaorya ssattaUIorya ssattaorya yyabaorya yyajaorya yyakaorya yyalaorya yyallaorya yyamaorya yyanaorya yyaraorya yyrvocalicorya yyuorya yyuuorya phalaorya ";
name = abvs;
},
{
code = "kasubscriptorya khasubscriptorya gasubscriptorya ghasubscriptorya ngasubscriptorya casubscriptorya chasubscriptorya jasubscriptorya jhasubscriptorya ttasubscriptorya tthasubscriptorya ddasubscriptorya ddhasubscriptorya nnasubscriptorya tasubscriptorya thasubscriptorya dasubscriptorya dhasubscriptorya nasubscriptorya pasubscriptorya phasubscriptorya bhasubscriptorya masubscriptorya rasubscriptorya lasubscriptorya llasubscriptorya shasubscriptorya ssasubscriptorya sasubscriptorya hasubscriptorya kassasubscriptorya";
name = blws;
},
{
code = "khasubscriptspaceorya gasubscriptspaceorya ghasubscriptspaceorya ngasubscriptspaceorya casubscriptspaceorya chasubscriptspaceorya jhasubscriptspaceorya ttasubscriptspaceorya tthasubscriptspaceorya ddasubscriptspaceorya ddhasubscriptspaceorya nnasubscriptspaceorya dasubscriptspaceorya dhasubscriptspaceorya pasubscriptspaceorya phasubscriptspaceorya bhasubscriptspaceorya shasubscriptspaceorya ssasubscriptspaceorya sasubscriptspaceorya hasubscriptspaceorya kassasubscriptspaceorya";
name = blws10;
},
{

glyphs = (
{
glyphname = aorya;
lastChange = "2021-07-27 08:46:11 +0000";
layers = (
{
anchors = (
{
name = b.tasubscriptorya;
position = "{357, 0}";
},
{
name = t.ivowelsignorya;
position = "{327, 657}";
}
);
components = (
{
name = _part.a;
transform = "{1, 0, 0, 1, -13, 0}";
}
);
layerId = "6C4C2116-C5E5-460E-80F0-69F45ED98D3F";
paths = (
{
closed = 1;
nodes = (
"434 604 OFFCURVE",
"385 667 OFFCURVE",
"324 667 CURVE SMOOTH",
"283 667 OFFCURVE",
"245 638 OFFCURVE",
"227 599 CURVE",
"256 577 LINE",
"244 631 OFFCURVE",
"203 667 OFFCURVE",
"154 667 CURVE SMOOTH",
"94 667 OFFCURVE",
"41 616 OFFCURVE",
"41 555 CURVE SMOOTH",
"41 518 OFFCURVE",
"59 465 OFFCURVE",
"83 427 CURVE",
"148 464 LINE",
"122 503 OFFCURVE",
"107 541 OFFCURVE",
"107 567 CURVE SMOOTH",
"107 592 OFFCURVE",
"119 607 OFFCURVE",
"140 607 CURVE SMOOTH",
"179 607 OFFCURVE",
"207 565 OFFCURVE",
"207 509 CURVE SMOOTH",
"207 453 LINE",
"213 446 LINE",
"270 465 LINE",
"270 560 LINE SMOOTH",
"270 590 OFFCURVE",
"281 606 OFFCURVE",
"301 606 CURVE SMOOTH",
"340 606 OFFCURVE",
"369 559 OFFCURVE",
"369 496 CURVE SMOOTH",
"369 470 OFFCURVE",
"363 453 OFFCURVE",
"347 434 CURVE SMOOTH",
"328 411 OFFCURVE",
"294 392 OFFCURVE",
"237 371 CURVE SMOOTH",
"196 356 LINE SMOOTH",
"139 335 OFFCURVE",
"100 312 OFFCURVE",
"76 286 CURVE SMOOTH",
"47 256 OFFCURVE",
"33 218 OFFCURVE",
"33 168 CURVE SMOOTH",
"33 61 OFFCURVE",
"118 -10 OFFCURVE",
"245 -10 CURVE SMOOTH",
"365 -10 OFFCURVE",
"469 48 OFFCURVE",
"528 147 CURVE",
"533 223 LINE",
"469 120 OFFCURVE",
"366 57 OFFCURVE",
"260 57 CURVE SMOOTH",
"170 57 OFFCURVE",
"105 108 OFFCURVE",
"105 179 CURVE SMOOTH",
"105 233 OFFCURVE",
"141 271 OFFCURVE",
"221 302 CURVE SMOOTH",
"273 322 LINE SMOOTH",
"318 339 OFFCURVE",
"346 355 OFFCURVE",
"368 373 CURVE SMOOTH",
"412 408 OFFCURVE",
"434 459 OFFCURVE",
"434 524 CURVE SMOOTH"
);
}
);
width = 631;
},
{
anchors = (
{
name = b.tasubscriptorya;
position = "{353, 0}";
},
{
name = t.ivowelsignorya;
position = "{327, 657}";
}
);
components = (
{
name = _part.a;
}
);
layerId = "D0F0E2C3-3B53-4823-9924-A34C50245C28";
paths = (
{
closed = 1;
nodes = (
"485 604 OFFCURVE",
"439 667 OFFCURVE",
"371 667 CURVE SMOOTH",
"309 667 OFFCURVE",
"253 615 OFFCURVE",
"248 559 CURVE",
"273 549 LINE",
"270 631 OFFCURVE",
"224 667 OFFCURVE",
"173 667 CURVE SMOOTH",
"96 667 OFFCURVE",
"25 600 OFFCURVE",
"24 519 CURVE SMOOTH",
"23 473 OFFCURVE",
"47 428 OFFCURVE",
"68 397 CURVE",
"174 436 LINE",
"144 468 OFFCURVE",
"119 508 OFFCURVE",
"119 539 CURVE SMOOTH",
"119 556 OFFCURVE",
"130 569 OFFCURVE",
"148 569 CURVE SMOOTH",
"176 569 OFFCURVE",
"209 546 OFFCURVE",
"209 470 CURVE SMOOTH",
"209 436 LINE",
"216 429 LINE",
"295 450 LINE",
"295 512 LINE SMOOTH",
"295 544 OFFCURVE",
"304 564 OFFCURVE",
"324 564 CURVE SMOOTH",
"353 564 OFFCURVE",
"374 523 OFFCURVE",
"374 472 CURVE SMOOTH",
"374 446 OFFCURVE",
"368 426 OFFCURVE",
"353 415 CURVE SMOOTH",
"339 404 OFFCURVE",
"314 392 OFFCURVE",
"235 368 CURVE SMOOTH",
"188 354 LINE SMOOTH",
"135 338 OFFCURVE",
"108 322 OFFCURVE",
"84 300 CURVE SMOOTH",
"46 265 OFFCURVE",
"25 222 OFFCURVE",
"25 170 CURVE SMOOTH",
"25 66 OFFCURVE",
"112 -10 OFFCURVE",
"246 -10 CURVE SMOOTH",
"363 -10 OFFCURVE",
"470 47 OFFCURVE",
"543 131 CURVE",
"540 250 LINE",
"473 151 OFFCURVE",
"369 110 OFFCURVE",
"286 110 CURVE SMOOTH",
"195 110 OFFCURVE",
"149 161 OFFCURVE",
"149 202 CURVE SMOOTH",
"149 234 OFFCURVE",
"176 253 OFFCURVE",
"213 264 CURVE SMOOTH",
"283 285 LINE SMOOTH",
"337 301 OFFCURVE",
"379 320 OFFCURVE",
"410 344 CURVE SMOOTH",
"443 370 OFFCURVE",
"485 422 OFFCURVE",
"485 511 CURVE SMOOTH"
);
}
);
width = 710;
}
);
unicode = 0B05;
},
{
glyphname = iiorya;
lastChange = "2021-07-27 11:08:10 +0000";
layers = (
{
anchors = (
{
name = b.tasubscriptorya;
position = "{334, 0}";
},
{
name = b.uvowelsignorya;
position = "{401, 0}";
},
{
name = t.candrabinduorya;
position = "{495, 657}";
}
);
components = (
{
name = _part.o;
transform = "{1, 0, 0, 1, -18, 0}";
},
{
name = _part.o;
transform = "{1, 0, 0, 1, 149, 0}";
}
);
layerId = "6C4C2116-C5E5-460E-80F0-69F45ED98D3F";
paths = (
{
closed = 1;
nodes = (
"129 493 OFFCURVE",
"158 461 OFFCURVE",
"191 439 CURVE",
"338 439 LINE",
"338 449 LINE",
"225 479 OFFCURVE",
"197 518 OFFCURVE",
"197 540 CURVE SMOOTH",
"197 574 OFFCURVE",
"261 601 OFFCURVE",
"336 601 CURVE SMOOTH",
"462 601 OFFCURVE",
"571 524 OFFCURVE",
"571 366 CURVE SMOOTH",
"571 280 OFFCURVE",
"539 187 OFFCURVE",
"506 125 CURVE",
"506 100 LINE",
"627 -35 LINE",
"641 -35 LINE",
"689 7 LINE",
"534 153 LINE",
"549 111 LINE",
"595 184 OFFCURVE",
"642 275 OFFCURVE",
"642 381 CURVE SMOOTH",
"642 554 OFFCURVE",
"516 667 OFFCURVE",
"349 667 CURVE SMOOTH",
"220 667 OFFCURVE",
"129 600 OFFCURVE",
"129 537 CURVE SMOOTH"
);
},
{
closed = 1;
nodes = (
"32 270 OFFCURVE",
"60 218 OFFCURVE",
"111 180 CURVE",
"150 263 LINE",
"118 280 OFFCURVE",
"100 306 OFFCURVE",
"100 339 CURVE SMOOTH",
"100 393 OFFCURVE",
"145 421 OFFCURVE",
"199 421 CURVE SMOOTH",
"236 421 OFFCURVE",
"272 408 OFFCURVE",
"296 394 CURVE",
"338 439 LINE",
"284 452 OFFCURVE",
"250 475 OFFCURVE",
"210 475 CURVE SMOOTH",
"99 475 OFFCURVE",
"32 409 OFFCURVE",
"32 322 CURVE SMOOTH"
);
}
);
width = 691;
},
{
anchors = (
{
name = b.tasubscriptorya;
position = "{379, 0}";
},
{
name = b.uvowelsignorya;
position = "{427, 0}";
},
{
name = t.candrabinduorya;
position = "{531, 657}";
}
);
components = (
{
name = _part.o;
transform = "{1, 0, 0, 1, -8, 0}";
},
{
name = _part.o;
transform = "{1, 0, 0, 1, 165, 0}";
}
);
layerId = "D0F0E2C3-3B53-4823-9924-A34C50245C28";
paths = (
{
closed = 1;
nodes = (
"155 459 OFFCURVE",
"192 424 OFFCURVE",
"221 415 CURVE",
"358 427 LINE",
"358 437 LINE",
"283 461 OFFCURVE",
"249 489 OFFCURVE",
"249 509 CURVE SMOOTH",
"249 537 OFFCURVE",
"311 550 OFFCURVE",
"363 550 CURVE SMOOTH",
"477 550 OFFCURVE",
"587 487 OFFCURVE",
"587 323 CURVE SMOOTH",
"587 249 OFFCURVE",
"563 179 OFFCURVE",
"535 116 CURVE",
"535 91 LINE",
"654 -35 LINE",
"668 -35 LINE",
"760 48 LINE",
"602 196 LINE",
"625 150 LINE",
"672 212 OFFCURVE",
"710 288 OFFCURVE",
"710 375 CURVE SMOOTH",
"710 531 OFFCURVE",
"592 667 OFFCURVE",
"401 667 CURVE SMOOTH",
"263 667 OFFCURVE",
"155 592 OFFCURVE",
"155 507 CURVE SMOOTH"
);
},
{
closed = 1;
nodes = (
"27 281 OFFCURVE",
"54 223 OFFCURVE",
"120 168 CURVE",
"205 281 LINE",
"150 293 OFFCURVE",
"120 328 OFFCURVE",
"120 360 CURVE SMOOTH",
"120 395 OFFCURVE",
"153 402 OFFCURVE",
"186 402 CURVE SMOOTH",
"223 402 OFFCURVE",
"268 388 OFFCURVE",
"302 371 CURVE",
"358 427 LINE",
"316 457 OFFCURVE",
"276 471 OFFCURVE",
"196 471 CURVE SMOOTH",
"107 471 OFFCURVE",
"27 416 OFFCURVE",
"27 330 CURVE SMOOTH"
);
}
);
width = 758;
}
);
leftMetricsKey = iorya;
rightKerningGroup = iorya;
rightMetricsKey = iorya;
unicode = 0B08;
},
{
glyphname = uuorya;
lastChange = "2021-07-28 11:39:28 +0000";
layers = (
{
anchors = (
{
name = b.tasubscriptorya;
position = "{329, 0}";
},
{
name = t.candrabinduorya;
position = "{480, 657}";
}
);
components = (
{
name = _part.u;
transform = "{1, 0, 0, 1, -4, 0}";
}
);
layerId = "6C4C2116-C5E5-460E-80F0-69F45ED98D3F";
paths = (
{
closed = 1;
nodes = (
"32 349 OFFCURVE",
"72 262 OFFCURVE",
"144 211 CURVE",
"170 304 LINE",
"131 339 OFFCURVE",
"100 387 OFFCURVE",
"100 442 CURVE SMOOTH",
"100 536 OFFCURVE",
"174 601 OFFCURVE",
"307 601 CURVE SMOOTH",
"445 601 OFFCURVE",
"536 520 OFFCURVE",
"536 409 CURVE SMOOTH",
"536 357 OFFCURVE",
"517 304 OFFCURVE",
"492 272 CURVE",
"493 247 LINE",
"544 243 OFFCURVE",
"564 233 OFFCURVE",
"564 214 CURVE SMOOTH",
"564 193 OFFCURVE",
"549 173 OFFCURVE",
"500 128 CURVE",
"500 100 LINE",
"622 -35 LINE",
"636 -35 LINE",
"683 7 LINE",
"545 137 LINE",
"538 99 LINE",
"584 141 OFFCURVE",
"631 184 OFFCURVE",
"631 231 CURVE SMOOTH",
"631 281 OFFCURVE",
"578 296 OFFCURVE",
"546 302 CURVE",
"544 265 LINE",
"573 306 OFFCURVE",
"605 366 OFFCURVE",
"605 434 CURVE SMOOTH",
"605 554 OFFCURVE",
"497 667 OFFCURVE",
"317 667 CURVE SMOOTH",
"136 667 OFFCURVE",
"32 561 OFFCURVE",
"32 430 CURVE SMOOTH"
);
}
);
width = 674;
},
{
anchors = (
{
name = b.tasubscriptorya;
position = "{363, 0}";
},
{
name = t.candrabinduorya;
position = "{519, 657}";
}
);
components = (
{
name = _part.u;
transform = "{1, 0, 0, 1, -15, 0}";
}
);
layerId = "D0F0E2C3-3B53-4823-9924-A34C50245C28";
paths = (
{
closed = 1;
nodes = (
"27 321 OFFCURVE",
"53 250 OFFCURVE",
"122 172 CURVE",
"210 301 LINE",
"158 320 OFFCURVE",
"128 364 OFFCURVE",
"128 419 CURVE SMOOTH",
"128 522 OFFCURVE",
"233 550 OFFCURVE",
"319 550 CURVE SMOOTH",
"417 550 OFFCURVE",
"543 513 OFFCURVE",
"543 414 CURVE SMOOTH",
"543 376 OFFCURVE",
"524 345 OFFCURVE",
"503 319 CURVE",
"504 292 LINE",
"571 286 OFFCURVE",
"596 271 OFFCURVE",
"596 246 CURVE SMOOTH",
"596 219 OFFCURVE",
"569 188 OFFCURVE",
"514 138 CURVE",
"514 106 LINE",
"635 -35 LINE",
"646 -35 LINE",
"740 49 LINE",
"599 177 LINE",
"592 128 LINE",
"650 170 OFFCURVE",
"710 208 OFFCURVE",
"710 271 CURVE SMOOTH",
"710 319 OFFCURVE",
"678 355 OFFCURVE",
"583 368 CURVE",
"550 312 LINE",
"620 350 OFFCURVE",
"660 404 OFFCURVE",
"660 465 CURVE SMOOTH",
"660 576 OFFCURVE",
"529 667 OFFCURVE",
"351 667 CURVE SMOOTH",
"148 667 OFFCURVE",
"27 554 OFFCURVE",
"27 396 CURVE SMOOTH"
);
}
);
width = 740;
}
);
leftMetricsKey = iorya;
rightKerningGroup = iorya;
unicode = 0B0A;
},
{
glyphname = rvocalicorya;
lastChange = "2021-07-26 14:53:37 +0000";
layers = (
{
anchors = (
{
name = b.tasubscriptorya;
position = "{329, 0}";
},
{
name = t.candrabinduorya;
position = "{500, 657}";
}
);
components = (
{
name = _part.vo;
transform = "{1, 0, 0, 1, 73, 0}";
}
);
layerId = "6C4C2116-C5E5-460E-80F0-69F45ED98D3F";
paths = (
{
closed = 1;
nodes = (
"32 339 OFFCURVE",
"79 252 OFFCURVE",
"158 199 CURVE",
"193 287 LINE",
"135 320 OFFCURVE",
"100 377 OFFCURVE",
"100 442 CURVE SMOOTH",
"100 538 OFFCURVE",
"181 601 OFFCURVE",
"304 601 CURVE SMOOTH",
"441 601 OFFCURVE",
"535 519 OFFCURVE",
"535 405 CURVE SMOOTH",
"535 356 OFFCURVE",
"519 308 OFFCURVE",
"492 272 CURVE",
"493 247 LINE",
"543 243 OFFCURVE",
"564 233 OFFCURVE",
"564 214 CURVE SMOOTH",
"564 193 OFFCURVE",
"549 173 OFFCURVE",
"500 128 CURVE",
"500 100 LINE",
"622 -35 LINE",
"636 -35 LINE",
"683 7 LINE",
"545 137 LINE",
"538 99 LINE",
"607 162 OFFCURVE",
"631 196 OFFCURVE",
"631 231 CURVE SMOOTH",
"631 266 OFFCURVE",
"601 292 OFFCURVE",
"546 302 CURVE",
"544 265 LINE",
"584 323 OFFCURVE",
"604 376 OFFCURVE",
"604 430 CURVE SMOOTH",
"604 564 OFFCURVE",
"480 667 OFFCURVE",
"314 667 CURVE SMOOTH",
"150 667 OFFCURVE",
"32 568 OFFCURVE",
"32 430 CURVE SMOOTH"
);
}
);
width = 677;
},
{
anchors = (
{
name = b.tasubscriptorya;
position = "{356, 0}";
},
{
name = t.candrabinduorya;
position = "{529, 657}";
}
);
components = (
{
name = _part.vo;
transform = "{1, 0, 0, 1, 1, 0}";
}
);
layerId = "D0F0E2C3-3B53-4823-9924-A34C50245C28";
paths = (
{
closed = 1;
nodes = (
"27 324 OFFCURVE",
"59 265 OFFCURVE",
"117 187 CURVE",
"201 303 LINE",
"152 327 OFFCURVE",
"126 365 OFFCURVE",
"126 415 CURVE SMOOTH",
"126 515 OFFCURVE",
"225 550 OFFCURVE",
"318 550 CURVE SMOOTH",
"413 550 OFFCURVE",
"534 514 OFFCURVE",
"534 414 CURVE SMOOTH",
"534 377 OFFCURVE",
"517 346 OFFCURVE",
"497 319 CURVE",
"498 292 LINE",
"565 286 OFFCURVE",
"590 271 OFFCURVE",
"590 246 CURVE SMOOTH",
"590 219 OFFCURVE",
"557 188 OFFCURVE",
"490 138 CURVE",
"490 106 LINE",
"611 -35 LINE",
"622 -35 LINE",
"716 49 LINE",
"575 177 LINE",
"586 128 LINE",
"644 170 OFFCURVE",
"704 208 OFFCURVE",
"704 271 CURVE SMOOTH",
"704 319 OFFCURVE",
"672 355 OFFCURVE",
"577 368 CURVE",
"544 312 LINE",
"612 351 OFFCURVE",
"651 405 OFFCURVE",
"651 467 CURVE SMOOTH",
"651 577 OFFCURVE",
"521 667 OFFCURVE",
"347 667 CURVE SMOOTH",
"155 667 OFFCURVE",
"27 555 OFFCURVE",
"27 402 CURVE SMOOTH"
);
}
);
width = 721;
}
);
leftMetricsKey = iorya;
rightKerningGroup = iorya;
unicode = 0B0B;
},
{
glyphname = rrvocalicorya;
lastChange = "2021-07-22 07:43:36 +0000";
layers = (
{
anchors = (
{
name = b.tasubscriptorya;
position = "{317, 0}";
},
{
name = t.candrabinduorya;
position = "{470, 657}";
}
);
components = (
{
name = _part.vo;
transform = "{1, 0, 0, 1, 65, 0}";
}
);
layerId = "6C4C2116-C5E5-460E-80F0-69F45ED98D3F";
paths = (
{
closed = 1;
nodes = (
"32 349 OFFCURVE",
"80 258 OFFCURVE",
"153 203 CURVE",
"187 290 LINE",
"132 328 OFFCURVE",
"100 386 OFFCURVE",
"100 450 CURVE SMOOTH",
"100 539 OFFCURVE",
"171 601 OFFCURVE",
"297 601 CURVE SMOOTH",
"430 601 OFFCURVE",
"517 529 OFFCURVE",
"517 433 CURVE SMOOTH",
"517 391 OFFCURVE",
"501 350 OFFCURVE",
"486 327 CURVE",
"486 299 LINE",
"534 291 OFFCURVE",
"561 281 OFFCURVE",
"561 259 CURVE SMOOTH",
"561 239 OFFCURVE",
"540 217 OFFCURVE",
"487 180 CURVE",
"487 152 LINE",
"542 144 OFFCURVE",
"564 132 OFFCURVE",
"564 111 CURVE SMOOTH",
"564 92 OFFCURVE",
"546 76 OFFCURVE",
"487 35 CURVE",
"487 7 LINE",
"599 -115 LINE",
"613 -115 LINE",
"659 -73 LINE",
"524 46 LINE",
"519 7 LINE",
"576 46 OFFCURVE",
"631 84 OFFCURVE",
"631 128 CURVE SMOOTH",
"631 173 OFFCURVE",
"584 192 OFFCURVE",
"551 199 CURVE",
"549 172 LINE",
"593 205 OFFCURVE",
"625 242 OFFCURVE",
"625 281 CURVE SMOOTH",
"625 319 OFFCURVE",
"592 340 OFFCURVE",
"541 352 CURVE",
"529 319 LINE",
"557 354 OFFCURVE",
"586 402 OFFCURVE",
"586 458 CURVE SMOOTH",
"586 565 OFFCURVE",
"482 667 OFFCURVE",
"309 667 CURVE SMOOTH",
"133 667 OFFCURVE",
"32 564 OFFCURVE",
"32 438 CURVE SMOOTH"
);
}
);
width = 664;
},
{
anchors = (
{
name = b.tasubscriptorya;
position = "{356, 0}";
},
{
name = t.candrabinduorya;
position = "{529, 657}";
}
);
components = (
{
name = _part.vo;
transform = "{1, 0, 0, 1, 1, 0}";
}
);
layerId = "D0F0E2C3-3B53-4823-9924-A34C50245C28";
paths = (
{
closed = 1;
nodes = (
"27 329 OFFCURVE",
"54 254 OFFCURVE",
"122 172 CURVE",
"204 303 LINE",
"149 329 OFFCURVE",
"127 384 OFFCURVE",
"127 427 CURVE SMOOTH",
"127 518 OFFCURVE",
"222 550 OFFCURVE",
"314 550 CURVE SMOOTH",
"412 550 OFFCURVE",
"534 514 OFFCURVE",
"534 413 CURVE SMOOTH",
"534 377 OFFCURVE",
"514 346 OFFCURVE",
"490 319 CURVE",
"491 292 LINE",
"563 287 OFFCURVE",
"589 276 OFFCURVE",
"589 256 CURVE SMOOTH",
"589 238 OFFCURVE",
"562 217 OFFCURVE",
"504 192 CURVE",
"504 152 LINE",
"570 148 OFFCURVE",
"590 136 OFFCURVE",
"590 118 CURVE SMOOTH",
"590 98 OFFCURVE",
"566 77 OFFCURVE",
"490 42 CURVE",
"490 10 LINE",
"611 -131 LINE",
"622 -131 LINE",
"716 -47 LINE",
"591 66 LINE",
"595 22 LINE",
"647 44 OFFCURVE",
"704 84 OFFCURVE",
"704 132 CURVE SMOOTH",
"704 169 OFFCURVE",
"676 206 OFFCURVE",
"580 204 CURVE",
"601 184 LINE",
"656 208 OFFCURVE",
"704 237 OFFCURVE",
"704 284 CURVE SMOOTH",
"704 327 OFFCURVE",
"672 367 OFFCURVE",
"559 369 CURVE",
"589 341 LINE",
"629 376 OFFCURVE",
"651 421 OFFCURVE",
"651 466 CURVE SMOOTH",
"651 579 OFFCURVE",
"515 667 OFFCURVE",
"341 667 CURVE SMOOTH",
"149 667 OFFCURVE",
"27 561 OFFCURVE",
"27 403 CURVE SMOOTH"
);
}
);
width = 731;
}
);
leftMetricsKey = iorya;
rightKerningGroup = iorya;
unicode = 0B60;
},
{
glyphname = lvocalicorya;
lastChange = "2021-07-28 11:39:58 +0000";
layers = (
{
anchors = (
{
name = b.tasubscriptorya;
position = "{257, 0}";
},
{
name = t.candrabinduorya;
position = "{337, 657}";
}
);
layerId = "6C4C2116-C5E5-460E-80F0-69F45ED98D3F";
paths = (
{
closed = 1;
nodes = (
"32 70 OFFCURVE",
"118 -10 OFFCURVE",
"268 -10 CURVE SMOOTH",
"392 -10 OFFCURVE",
"490 44 OFFCURVE",
"490 134 CURVE SMOOTH",
"490 202 OFFCURVE",
"428 263 OFFCURVE",
"358 263 CURVE SMOOTH",
"293 263 OFFCURVE",
"242 210 OFFCURVE",
"242 154 CURVE SMOOTH",
"242 115 OFFCURVE",
"265 64 OFFCURVE",
"335 20 CURVE",
"386 58 LINE",
"334 91 OFFCURVE",
"304 130 OFFCURVE",
"304 162 CURVE SMOOTH",
"304 183 OFFCURVE",
"318 201 OFFCURVE",
"345 201 CURVE SMOOTH",
"385 201 OFFCURVE",
"429 159 OFFCURVE",
"429 122 CURVE SMOOTH",
"429 83 OFFCURVE",
"366 51 OFFCURVE",
"277 51 CURVE SMOOTH",
"159 51 OFFCURVE",
"104 115 OFFCURVE",
"104 179 CURVE SMOOTH",
"104 203 OFFCURVE",
"109 225 OFFCURVE",
"128 247 CURVE SMOOTH",
"145 267 OFFCURVE",
"176 285 OFFCURVE",
"220 302 CURVE SMOOTH",
"272 322 LINE SMOOTH",
"305 335 OFFCURVE",
"334 348 OFFCURVE",
"358 365 CURVE SMOOTH",
"400 395 OFFCURVE",
"426 435 OFFCURVE",
"426 498 CURVE SMOOTH",
"426 598 OFFCURVE",
"357 667 OFFCURVE",
"251 667 CURVE SMOOTH",
"159 667 OFFCURVE",
"67 614 OFFCURVE",
"67 506 CURVE SMOOTH",
"67 472 OFFCURVE",
"77 437 OFFCURVE",
"91 404 CURVE",
"156 427 LINE",
"147 451 OFFCURVE",
"135 482 OFFCURVE",
"135 513 CURVE SMOOTH",
"135 582 OFFCURVE",
"194 602 OFFCURVE",
"240 602 CURVE SMOOTH",
"315 602 OFFCURVE",
"359 550 OFFCURVE",
"359 488 CURVE SMOOTH",
"359 455 OFFCURVE",
"346 432 OFFCURVE",
"324 414 CURVE SMOOTH",
"303 397 OFFCURVE",
"272 384 OFFCURVE",
"236 371 CURVE SMOOTH",
"195 356 LINE SMOOTH",
"155 341 OFFCURVE",
"122 325 OFFCURVE",
"97 305 CURVE SMOOTH",
"54 272 OFFCURVE",
"32 228 OFFCURVE",
"32 168 CURVE SMOOTH"
);
}
);
width = 508;
},
{
anchors = (
{
name = b.tasubscriptorya;
position = "{282, 0}";
},
{
name = t.candrabinduorya;
position = "{383, 657}";
}
);
layerId = "D0F0E2C3-3B53-4823-9924-A34C50245C28";
paths = (
{
closed = 1;
nodes = (
"27 69 OFFCURVE",
"122 -10 OFFCURVE",
"281 -10 CURVE SMOOTH",
"429 -10 OFFCURVE",
"544 59 OFFCURVE",
"544 161 CURVE SMOOTH",
"544 238 OFFCURVE",
"484 297 OFFCURVE",
"406 297 CURVE SMOOTH",
"333 297 OFFCURVE",
"269 234 OFFCURVE",
"269 162 CURVE SMOOTH",
"269 121 OFFCURVE",
"294 72 OFFCURVE",
"337 28 CURVE",
"436 91 LINE",
"393 112 OFFCURVE",
"358 151 OFFCURVE",
"358 179 CURVE SMOOTH",
"358 191 OFFCURVE",
"368 198 OFFCURVE",
"384 198 CURVE SMOOTH",
"416 198 OFFCURVE",
"453 170 OFFCURVE",
"453 145 CURVE SMOOTH",
"453 121 OFFCURVE",
"361 98 OFFCURVE",
"293 98 CURVE SMOOTH",
"209 98 OFFCURVE",
"145 147 OFFCURVE",
"145 211 CURVE SMOOTH",
"145 228 OFFCURVE",
"150 240 OFFCURVE",
"158 249 CURVE SMOOTH",
"169 261 OFFCURVE",
"185 268 OFFCURVE",
"212 277 CURVE SMOOTH",
"288 301 LINE SMOOTH",
"328 314 OFFCURVE",
"366 330 OFFCURVE",
"391 347 CURVE SMOOTH",
"440 381 OFFCURVE",
"465 430 OFFCURVE",
"465 493 CURVE SMOOTH",
"465 598 OFFCURVE",
"388 667 OFFCURVE",
"271 667 CURVE SMOOTH",
"147 667 OFFCURVE",
"56 590 OFFCURVE",
"56 485 CURVE SMOOTH",
"56 459 OFFCURVE",
"62 430 OFFCURVE",
"74 396 CURVE",
"190 440 LINE",
"179 464 OFFCURVE",
"172 487 OFFCURVE",
"172 503 CURVE SMOOTH",
"172 536 OFFCURVE",
"202 556 OFFCURVE",
"252 556 CURVE SMOOTH",
"316 556 OFFCURVE",
"363 522 OFFCURVE",
"363 474 CURVE SMOOTH",
"363 458 OFFCURVE",
"358 445 OFFCURVE",
"348 435 CURVE SMOOTH",
"327 416 OFFCURVE",
"306 404 OFFCURVE",
"214 377 CURVE SMOOTH",
"177 366 LINE SMOOTH",
"126 351 OFFCURVE",
"87 326 OFFCURVE",
"61 293 CURVE SMOOTH",
"38 265 OFFCURVE",
"27 230 OFFCURVE",
"27 189 CURVE SMOOTH"
);
}
);
width = 556;
}
);
leftMetricsKey = iorya;
unicode = 0B0C;
},
{
glyphname = llvocalicorya;
lastChange = "2021-07-31 19:40:18 +0000";
layers = (
{
anchors = (
{
name = b.tasubscriptorya;
position = "{254, 0}";
}
);
components = (
{
name = lvocalicorya;
}
);
layerId = "6C4C2116-C5E5-460E-80F0-69F45ED98D3F";
paths = (
{
closed = 1;
nodes = (
"330 12 LINE",
"362 -13 OFFCURVE",
"409 -42 OFFCURVE",
"461 -70 CURVE",
"474 -70 LINE",
"512 -20 LINE",
"458 2 OFFCURVE",
"420 25 OFFCURVE",
"389 47 CURVE"
);
}
);
width = 510;
},
{
anchors = (
{
name = b.tasubscriptorya;
position = "{283, 0}";
}
);
components = (
{
name = lvocalicorya;
}
);
layerId = "D0F0E2C3-3B53-4823-9924-A34C50245C28";
paths = (
{
closed = 1;
nodes = (
"326 43 LINE",
"354 -1 OFFCURVE",
"399 -47 OFFCURVE",
"457 -91 CURVE",
"470 -91 LINE",
"544 -13 LINE",
"493 15 OFFCURVE",
"457 45 OFFCURVE",
"428 74 CURVE"
);
}
);
width = 562;
}
);
leftMetricsKey = iorya;
unicode = 0B61;
},
{
glyphname = eorya;
lastChange = "2021-07-31 19:41:09 +0000";
layers = (
{
anchors = (
{
name = b.tasubscriptorya;
position = "{329, 0}";
},
{
name = t.candrabinduorya;
position = "{458, 657}";
}
);
components = (
{
name = _part.na;
transform = "{1, 0, 0, 1, 110, 302}";
}
);
layerId = "6C4C2116-C5E5-460E-80F0-69F45ED98D3F";
paths = (
{
closed = 1;
nodes = (
"491 -10 LINE",
"554 2 LINE",
"554 354 LINE",
"487 354 LINE",
"487 0 LINE"
);
},
{
closed = 1;
nodes = (
"35 199 OFFCURVE",
"62 140 OFFCURVE",
"107 97 CURVE SMOOTH",
"192 15 OFFCURVE",
"341 -10 OFFCURVE",
"491 -10 CURVE",
"496 54 LINE",
"198 64 OFFCURVE",
"105 154 OFFCURVE",
"105 288 CURVE SMOOTH",
"105 388 OFFCURVE",
"153 504 OFFCURVE",
"250 649 CURVE",
"190 678 LINE",
"115 566 OFFCURVE",
"35 398 OFFCURVE",
"35 278 CURVE SMOOTH"
);
}
);
width = 615;
},
{
anchors = (
{
name = b.tasubscriptorya;
position = "{385, 0}";
},
{
name = t.candrabinduorya;
position = "{498, 657}";
}
);
components = (
{
name = _part.na;
transform = "{1, 0, 0, 1, 130, 302}";
}
);
layerId = "D0F0E2C3-3B53-4823-9924-A34C50245C28";
paths = (
{
closed = 1;
nodes = (
"502 -10 LINE",
"615 20 LINE",
"615 343 LINE",
"495 340 LINE",
"495 -3 LINE"
);
},
{
closed = 1;
nodes = (
"28 233 OFFCURVE",
"53 162 OFFCURVE",
"103 108 CURVE SMOOTH",
"173 33 OFFCURVE",
"297 -10 OFFCURVE",
"502 -10 CURVE",
"516 113 LINE",
"244 117 OFFCURVE",
"134 215 OFFCURVE",
"134 344 CURVE SMOOTH",
"134 430 OFFCURVE",
"184 528 OFFCURVE",
"286 650 CURVE",
"196 690 LINE",
"101 577 OFFCURVE",
"28 420 OFFCURVE",
"28 302 CURVE SMOOTH"
);
}
);
width = 671;
}
);
rightMetricsKey = aorya;
unicode = 0B0F;
},
{
glyphname = aiorya;
lastChange = "2021-07-31 19:42:08 +0000";
layers = (
{
anchors = (
{
name = b.tasubscriptorya;
position = "{392, 0}";
}
);
components = (
{
name = eorya;
},
{
name = _part.ai;
transform = "{1, 0, 0, 1, -18, 0}";
}
);
layerId = "6C4C2116-C5E5-460E-80F0-69F45ED98D3F";
paths = (
{
closed = 1;
nodes = (
"516 289 OFFCURVE",
"547 266 OFFCURVE",
"590 266 CURVE SMOOTH",
"651 266 OFFCURVE",
"694 311 OFFCURVE",
"711 408 CURVE",
"678 427 LINE",
"678 376 OFFCURVE",
"651 335 OFFCURVE",
"605 335 CURVE SMOOTH",
"584 335 OFFCURVE",
"564 346 OFFCURVE",
"554 365 CURVE",
"512 300 LINE"
);
}
);
width = 803;
},
{
anchors = (
{
name = b.tasubscriptorya;
position = "{462, 0}";
}
);
components = (
{
name = eorya;
},
{
name = _part.ai;
}
);
layerId = "D0F0E2C3-3B53-4823-9924-A34C50245C28";
paths = (
{
closed = 1;
nodes = (
"540 295 OFFCURVE",
"579 268 OFFCURVE",
"634 268 CURVE SMOOTH",
"717 268 OFFCURVE",
"777 324 OFFCURVE",
"800 446 CURVE",
"751 470 LINE",
"751 415 OFFCURVE",
"719 371 OFFCURVE",
"663 371 CURVE SMOOTH",
"636 371 OFFCURVE",
"616 385 OFFCURVE",
"609 405 CURVE",
"522 335 LINE"
);
}
);
width = 924;
}
);
leftMetricsKey = eorya;
unicode = 0B10;
},
{
glyphname = oorya;
lastChange = "2021-07-22 07:46:18 +0000";
layers = (
{
anchors = (
{
name = b.tasubscriptorya;
position = "{307, 0}";
},
{
name = b.uvowelsignorya;
position = "{408, 0}";
},
{
name = t.candrabinduorya;
position = "{482, 657}";
}
);
layerId = "6C4C2116-C5E5-460E-80F0-69F45ED98D3F";
paths = (
{
closed = 1;
nodes = (
"35 95 OFFCURVE",
"163 -10 OFFCURVE",
"334 -10 CURVE SMOOTH",
"484 -10 OFFCURVE",
"594 71 OFFCURVE",
"594 181 CURVE SMOOTH",
"594 239 OFFCURVE",
"563 291 OFFCURVE",
"502 319 CURVE SMOOTH",
"467 334 OFFCURVE",
"425 343 OFFCURVE",
"379 346 CURVE",
"373 320 LINE",
"425 343 OFFCURVE",
"467 367 OFFCURVE",
"498 395 CURVE SMOOTH",
"541 434 OFFCURVE",
"559 475 OFFCURVE",
"559 522 CURVE SMOOTH",
"559 606 OFFCURVE",
"495 667 OFFCURVE",
"409 667 CURVE SMOOTH",
"310 667 OFFCURVE",
"250 605 OFFCURVE",
"250 524 CURVE SMOOTH",
"250 502 OFFCURVE",
"257 473 OFFCURVE",
"268 452 CURVE",
"333 478 LINE",
"324 496 OFFCURVE",
"317 520 OFFCURVE",
"317 540 CURVE SMOOTH",
"317 574 OFFCURVE",
"337 601 OFFCURVE",
"396 601 CURVE SMOOTH",
"453 601 OFFCURVE",
"493 563 OFFCURVE",
"493 512 CURVE SMOOTH",
"493 484 OFFCURVE",
"481 456 OFFCURVE",
"458 434 CURVE SMOOTH",
"441 418 OFFCURVE",
"416 401 OFFCURVE",
"380 381 CURVE SMOOTH",
"354 367 OFFCURVE",
"329 356 OFFCURVE",
"307 347 CURVE",
"289 303 LINE",
"298 292 LINE",
"330 292 OFFCURVE",
"361 289 OFFCURVE",
"388 285 CURVE SMOOTH",
"482 270 OFFCURVE",
"526 229 OFFCURVE",
"526 174 CURVE SMOOTH",
"526 104 OFFCURVE",
"454 58 OFFCURVE",
"345 58 CURVE SMOOTH",
"207 58 OFFCURVE",
"104 133 OFFCURVE",
"104 308 CURVE SMOOTH",
"104 439 OFFCURVE",
"160 545 OFFCURVE",
"238 657 CURVE",
"174 688 LINE",
"102 572 OFFCURVE",
"35 417 OFFCURVE",
"35 283 CURVE SMOOTH"
);
}
);
width = 627;
},
{
anchors = (
{
name = b.tasubscriptorya;
position = "{331, 0}";
},
{
name = b.uvowelsignorya;
position = "{468, 0}";
},
{
name = t.candrabinduorya;
position = "{502, 657}";
}
);
layerId = "D0F0E2C3-3B53-4823-9924-A34C50245C28";
paths = (
{
closed = 1;
nodes = (
"28 102 OFFCURVE",
"164 -10 OFFCURVE",
"355 -10 CURVE SMOOTH",
"540 -10 OFFCURVE",
"645 82 OFFCURVE",
"645 202 CURVE SMOOTH",
"645 270 OFFCURVE",
"606 308 OFFCURVE",
"570 330 CURVE SMOOTH",
"540 348 OFFCURVE",
"502 356 OFFCURVE",
"460 360 CURVE",
"457 340 LINE",
"500 357 OFFCURVE",
"529 374 OFFCURVE",
"548 390 CURVE SMOOTH",
"594 429 OFFCURVE",
"610 475 OFFCURVE",
"610 518 CURVE SMOOTH",
"610 603 OFFCURVE",
"539 667 OFFCURVE",
"439 667 CURVE SMOOTH",
"349 667 OFFCURVE",
"249 606 OFFCURVE",
"249 504 CURVE SMOOTH",
"249 484 OFFCURVE",
"254 461 OFFCURVE",
"266 434 CURVE",
"369 475 LINE",
"362 492 OFFCURVE",
"358 509 OFFCURVE",
"358 522 CURVE SMOOTH",
"358 550 OFFCURVE",
"385 563 OFFCURVE",
"418 563 CURVE SMOOTH",
"476 563 OFFCURVE",
"502 528 OFFCURVE",
"502 492 CURVE SMOOTH",
"502 473 OFFCURVE",
"496 462 OFFCURVE",
"483 448 CURVE SMOOTH",
"473 436 OFFCURVE",
"458 425 OFFCURVE",
"435 411 CURVE SMOOTH",
"404 392 OFFCURVE",
"360 375 OFFCURVE",
"325 365 CURVE",
"294 287 LINE",
"303 276 LINE",
"340 276 OFFCURVE",
"376 274 OFFCURVE",
"408 269 CURVE SMOOTH",
"483 257 OFFCURVE",
"539 232 OFFCURVE",
"539 189 CURVE SMOOTH",
"539 138 OFFCURVE",
"461 111 OFFCURVE",
"376 111 CURVE SMOOTH",
"205 111 OFFCURVE",
"133 227 OFFCURVE",
"133 346 CURVE SMOOTH",
"133 438 OFFCURVE",
"176 537 OFFCURVE",
"264 650 CURVE",
"168 690 LINE",
"92 582 OFFCURVE",
"28 428 OFFCURVE",
"28 295 CURVE SMOOTH"
);
}
);
width = 675;
}
);
leftMetricsKey = eorya;
unicode = 0B13;
},
{
glyphname = auorya;
lastChange = "2021-07-26 12:00:29 +0000";
layers = (
{
anchors = (
{
name = b.tasubscriptorya;
position = "{400, 0}";
}
);
components = (
{
name = _part.ai;
transform = "{1, 0, 0, 1, -21, 0}";
},
{
name = oorya;
}
);
layerId = "6C4C2116-C5E5-460E-80F0-69F45ED98D3F";
paths = (
{
closed = 1;
nodes = (
"512 260 LINE",
"523 233 OFFCURVE",
"553 213 OFFCURVE",
"591 213 CURVE SMOOTH",
"654 213 OFFCURVE",
"691 259 OFFCURVE",
"707 349 CURVE",
"672 365 LINE",
"672 318 OFFCURVE",
"646 282 OFFCURVE",
"596 282 CURVE SMOOTH",
"575 282 OFFCURVE",
"556 288 OFFCURVE",
"540 297 CURVE"
);
}
);
width = 810;
},
{
anchors = (
{
name = b.tasubscriptorya;
position = "{456, 0}";
}
);
components = (
{
name = _part.ai;
transform = "{1, 0, 0, 1, -11, 0}";
},
{
name = oorya;
}
);
layerId = "D0F0E2C3-3B53-4823-9924-A34C50245C28";
paths = (
{
closed = 1;
nodes = (
"517 269 LINE",
"535 227 OFFCURVE",
"574 198 OFFCURVE",
"629 198 CURVE SMOOTH",
"718 198 OFFCURVE",
"769 260 OFFCURVE",
"790 386 CURVE",
"739 410 LINE",
"739 352 OFFCURVE",
"706 305 OFFCURVE",
"641 305 CURVE SMOOTH",
"610 305 OFFCURVE",
"582 313 OFFCURVE",
"559 324 CURVE"
);
}
);
width = 913;
}
);
leftMetricsKey = eorya;
unicode = 0B14;
},
{
glyphname = kaorya;
lastChange = "2021-08-01 20:44:27 +0000";
layers = (
{
anchors = (
{
name = b.tasubscriptorya;
position = "{361, 0}";
},
{
name = b.uvowelsignorya;
position = "{562, 0}";
},
{
name = t.candrabinduorya;
position = "{529, 657}";
},
{
name = t.ivowelsignorya;
position = "{328, 657}";
}
);
components = (
{
name = _part.swash3;
transform = "{1, 0, 0, 1, -5, 0}";
}
);
layerId = "D0F0E2C3-3B53-4823-9924-A34C50245C28";
paths = (
{
closed = 1;
nodes = (
"79 106 OFFCURVE",
"144 53 OFFCURVE",
"209 53 CURVE SMOOTH",
"291 53 OFFCURVE",
"347 126 OFFCURVE",
"347 215 CURVE",
"347 300 OFFCURVE",
"287 355 OFFCURVE",
"218 355 CURVE SMOOTH",
"144 355 OFFCURVE",
"79 283 OFFCURVE",
"79 197 CURVE SMOOTH"
);
},
{
closed = 1;
nodes = (
"175 235 OFFCURVE",
"188 249 OFFCURVE",
"211 249 CURVE SMOOTH",
"244 249 OFFCURVE",
"271 221 OFFCURVE",
"271 186 CURVE SMOOTH",
"271 164 OFFCURVE",
"258 150 OFFCURVE",
"236 150 CURVE SMOOTH",
"202 150 OFFCURVE",
"175 179 OFFCURVE",
"175 213 CURVE SMOOTH"
);
},
{
closed = 1;
nodes = (
"267 -9 LINE",
"372 20 LINE",
"372 224 LINE SMOOTH",
"372 240 OFFCURVE",
"387 250 OFFCURVE",
"403 250 CURVE SMOOTH",
"422 250 OFFCURVE",
"442 236 OFFCURVE",
"442 168 CURVE SMOOTH",
"442 0 LINE",
"456 -9 LINE",
"562 20 LINE",
"562 191 LINE SMOOTH",
"562 323 OFFCURVE",
"496 355 OFFCURVE",
"437 355 CURVE SMOOTH",
"361 355 OFFCURVE",
"290 301 OFFCURVE",
"290 246 CURVE SMOOTH",
"290 109 LINE",
"254 95 LINE",
"254 0 LINE"
);
}
);
width = 680;
},
{
anchors = (
{
name = b.tasubscriptorya;
position = "{368, 0}";
},
{
name = b.uvowelsignorya;
position = "{526, 0}";
},
{
name = t.candrabinduorya;
position = "{494, 657}";
},
{
name = t.ivowelsignorya;
position = "{347, 657}";
}
);
components = (
{
name = _part.swash3;
transform = "{1, 0, 0, 1, -2, 0}";
}
);
layerId = "6C4C2116-C5E5-460E-80F0-69F45ED98D3F";
paths = (
{
closed = 1;
nodes = (
"103 130 OFFCURVE",
"158 70 OFFCURVE",
"231 70 CURVE SMOOTH",
"308 70 OFFCURVE",
"349 135 OFFCURVE",
"367 218 CURVE",
"367 282 OFFCURVE",
"315 355 OFFCURVE",
"241 355 CURVE SMOOTH",
"164 355 OFFCURVE",
"103 291 OFFCURVE",
"103 210 CURVE SMOOTH"
);
},
{
closed = 1;
nodes = (
"164 265 OFFCURVE",
"186 294 OFFCURVE",
"224 294 CURVE SMOOTH",
"270 294 OFFCURVE",
"312 253 OFFCURVE",
"312 196 CURVE SMOOTH",
"312 157 OFFCURVE",
"287 129 OFFCURVE",
"250 129 CURVE SMOOTH",
"208 129 OFFCURVE",
"164 169 OFFCURVE",
"164 228 CURVE SMOOTH"
);
},
{
closed = 1;
nodes = (
"308 -7 LINE",
"368 7 LINE",
"368 252 LINE SMOOTH",
"368 270 OFFCURVE",
"386 289 OFFCURVE",
"411 289 CURVE SMOOTH",
"442 289 OFFCURVE",
"459 258 OFFCURVE",
"459 207 CURVE SMOOTH",
"459 0 LINE",
"465 -7 LINE",
"526 7 LINE",
"526 230 LINE SMOOTH",
"526 319 OFFCURVE",
"489 355 OFFCURVE",
"431 355 CURVE SMOOTH",
"380 355 OFFCURVE",
"318 317 OFFCURVE",
"318 250 CURVE SMOOTH",
"318 134 LINE",
"301 134 LINE",
"301 0 LINE"
);
}
);
width = 637;
}
);
leftMetricsKey = iorya;
unicode = 0B15;
},
{
glyphname = khaorya;
lastChange = "2021-07-26 14:53:37 +0000";
layers = (
{
anchors = (
{
name = b.tasubscriptorya;
position = "{367, 0}";
},
{
name = b.uvowelsignorya;
position = "{592, 0}";
},
{
name = t.ivowelsignorya;
position = "{324, 657}";
}
);
components = (
{
name = aavowelsignorya;
transform = "{1, 0, 0, 1, 455, 0}";
},
{
name = _part.vo;
transform = "{1, 0, 0, 1, 61, 0}";
}
);
layerId = "6C4C2116-C5E5-460E-80F0-69F45ED98D3F";
paths = (
{
closed = 1;
nodes = (
"285 430 OFFCURVE",
"333 382 OFFCURVE",
"405 382 CURVE SMOOTH",
"492 382 OFFCURVE",
"551 453 OFFCURVE",
"562 564 CURVE",
"527 610 LINE",
"527 510 OFFCURVE",
"489 447 OFFCURVE",
"421 447 CURVE SMOOTH",
"381 447 OFFCURVE",
"352 470 OFFCURVE",
"352 510 CURVE SMOOTH",
"352 546 OFFCURVE",
"376 591 OFFCURVE",
"420 635 CURVE",
"420 649 LINE",
"359 628 LINE",
"307 579 OFFCURVE",
"285 539 OFFCURVE",
"285 495 CURVE SMOOTH"
);
},
{
closed = 1;
nodes = (
"32 346 OFFCURVE",
"78 266 OFFCURVE",
"158 216 CURVE",
"206 285 LINE",
"148 315 OFFCURVE",
"100 369 OFFCURVE",
"100 449 CURVE SMOOTH",
"100 521 OFFCURVE",
"156 601 OFFCURVE",
"290 601 CURVE SMOOTH",
"316 601 OFFCURVE",
"350 598 OFFCURVE",
"371 595 CURVE",
"420 649 LINE",
"393 659 OFFCURVE",
"346 667 OFFCURVE",
"300 667 CURVE SMOOTH",
"121 667 OFFCURVE",
"32 550 OFFCURVE",
"32 434 CURVE SMOOTH"
);
}
);
width = 653;
},
{
anchors = (
{
name = b.tasubscriptorya;
position = "{435, 0}";
},
{
name = b.uvowelsignorya;
position = "{665, 0}";
},
{
name = t.ivowelsignorya;
position = "{358, 657}";
}
);
components = (
{
name = aavowelsignorya;
transform = "{1, 0, 0, 1, 484, 0}";
},
{
name = _part.vo;
transform = "{1, 0, 0, 1, 1, 0}";
}
);
layerId = "D0F0E2C3-3B53-4823-9924-A34C50245C28";
paths = (
{
closed = 1;
nodes = (
"298 421 OFFCURVE",
"348 368 OFFCURVE",
"429 368 CURVE SMOOTH",
"520 368 OFFCURVE",
"586 436 OFFCURVE",
"611 586 CURVE",
"546 610 LINE",
"546 533 OFFCURVE",
"514 471 OFFCURVE",
"458 471 CURVE SMOOTH",
"423 471 OFFCURVE",
"400 495 OFFCURVE",
"400 525 CURVE SMOOTH",
"400 555 OFFCURVE",
"423 586 OFFCURVE",
"471 627 CURVE",
"467 648 LINE",
"418 641 LINE",
"349 597 OFFCURVE",
"298 555 OFFCURVE",
"298 488 CURVE SMOOTH"
);
},
{
closed = 1;
nodes = (
"27 325 OFFCURVE",
"49 243 OFFCURVE",
"128 167 CURVE",
"216 288 LINE",
"150 315 OFFCURVE",
"128 365 OFFCURVE",
"128 415 CURVE SMOOTH",
"128 501 OFFCURVE",
"205 550 OFFCURVE",
"305 550 CURVE SMOOTH",
"334 550 OFFCURVE",
"360 546 OFFCURVE",
"385 538 CURVE",
"467 648 LINE",
"429 660 OFFCURVE",
"386 667 OFFCURVE",
"339 667 CURVE SMOOTH",
"158 667 OFFCURVE",
"27 553 OFFCURVE",
"27 393 CURVE SMOOTH"
);
}
);
width = 722;
}
);
leftMetricsKey = iorya;
rightMetricsKey = aorya;
unicode = 0B16;
},
{
glyphname = ghaorya;
lastChange = "2021-07-29 09:36:08 +0000";
layers = (
{
anchors = (
{
name = b.tasubscriptorya;
position = "{359, 0}";
},
{
name = b.uvowelsignorya;
position = "{584, 0}";
},
{
name = t.ivowelsignorya;
position = "{321, 657}";
}
);
components = (
{
name = aavowelsignorya;
transform = "{1, 0, 0, 1, 446, 0}";
},
{
name = _part.g;
transform = "{1, 0, 0, 1, -2, 0}";
}
);
layerId = "6C4C2116-C5E5-460E-80F0-69F45ED98D3F";
paths = (
{
closed = 1;
nodes = (
"98 44 OFFCURVE",
"151 -10 OFFCURVE",
"224 -10 CURVE SMOOTH",
"284 -10 OFFCURVE",
"339 24 OFFCURVE",
"363 95 CURVE",
"343 145 LINE",
"329 121 OFFCURVE",
"305 58 OFFCURVE",
"246 58 CURVE SMOOTH",
"205 58 OFFCURVE",
"167 89 OFFCURVE",
"167 145 CURVE SMOOTH",
"167 188 OFFCURVE",
"196 252 OFFCURVE",
"283 329 CURVE",
"249 371 LINE",
"161 296 OFFCURVE",
"98 207 OFFCURVE",
"98 123 CURVE SMOOTH"
);
},
{
closed = 1;
nodes = (
"327 28 OFFCURVE",
"358 -10 OFFCURVE",
"414 -10 CURVE SMOOTH",
"476 -10 OFFCURVE",
"527 36 OFFCURVE",
"548 113 CURVE",
"518 157 LINE",
"516 78 OFFCURVE",
"464 58 OFFCURVE",
"433 58 CURVE SMOOTH",
"401 58 OFFCURVE",
"382 79 OFFCURVE",
"382 125 CURVE SMOOTH",
"382 228 LINE",
"375 235 LINE",
"315 221 LINE",
"315 93 LINE"
);
}
);
width = 644;
},
{
anchors = (
{
name = b.tasubscriptorya;
position = "{426, 0}";
},
{
name = b.uvowelsignorya;
position = "{651, 0}";
},
{
name = t.ivowelsignorya;
position = "{359, 657}";
}
);
components = (
{
name = aavowelsignorya;
transform = "{1, 0, 0, 1, 470, 0}";
},
{
name = _part.g;
transform = "{1, 0, 0, 1, -5, 0}";
}
);
layerId = "D0F0E2C3-3B53-4823-9924-A34C50245C28";
paths = (
{
closed = 1;
nodes = (
"85 49 OFFCURVE",
"138 -10 OFFCURVE",
"217 -10 CURVE SMOOTH",
"284 -10 OFFCURVE",
"329 30 OFFCURVE",
"358 87 CURVE",
"329 145 LINE",
"317 120 OFFCURVE",
"294 93 OFFCURVE",
"258 93 CURVE SMOOTH",
"221 93 OFFCURVE",
"196 123 OFFCURVE",
"196 158 CURVE SMOOTH",
"196 201 OFFCURVE",
"224 256 OFFCURVE",
"317 329 CURVE",
"270 378 LINE",
"166 302 OFFCURVE",
"85 215 OFFCURVE",
"85 129 CURVE SMOOTH"
);
},
{
closed = 1;
nodes = (
"323 35 OFFCURVE",
"366 -10 OFFCURVE",
"433 -10 CURVE SMOOTH",
"514 -10 OFFCURVE",
"573 66 OFFCURVE",
"583 202 CURVE",
"537 207 LINE",
"537 144 OFFCURVE",
"514 93 OFFCURVE",
"474 93 CURVE SMOOTH",
"445 93 OFFCURVE",
"427 114 OFFCURVE",
"427 176 CURVE SMOOTH",
"427 228 LINE",
"420 235 LINE",
"315 212 LINE",
"315 104 LINE"
);
}
);
width = 708;
}
);
leftMetricsKey = iorya;
rightMetricsKey = aorya;
unicode = 0B18;
},
{
glyphname = ngaorya;
lastChange = "2021-07-28 10:49:32 +0000";
layers = (
{
anchors = (
{
name = b.tasubscriptorya;
position = "{316, 0}";
},
{
name = b.uvowelsignorya;
position = "{399, 0}";
},
{
name = t.candrabinduorya;
position = "{509, 657}";
},
{
name = t.ivowelsignorya;
position = "{340, 657}";
}
);
components = (
{
name = _part.u;
transform = "{1, 0, 0, 1, -6, 0}";
},
{
name = _part.osmall;
transform = "{0.93835, 0, 0, 0.93835, -23, 42}";
}
);
layerId = "6C4C2116-C5E5-460E-80F0-69F45ED98D3F";
paths = (
{
closed = 1;
nodes = (
"32 356 OFFCURVE",
"89 268 OFFCURVE",
"166 233 CURVE",
"209 311 LINE",
"142 330 OFFCURVE",
"100 393 OFFCURVE",
"100 461 CURVE SMOOTH",
"100 540 OFFCURVE",
"158 602 OFFCURVE",
"240 602 CURVE SMOOTH",
"318 602 OFFCURVE",
"386 545 OFFCURVE",
"423 457 CURVE",
"456 508 LINE",
"422 605 OFFCURVE",
"347 667 OFFCURVE",
"251 667 CURVE SMOOTH",
"129 667 OFFCURVE",
"32 567 OFFCURVE",
"32 449 CURVE SMOOTH"
);
}
);
width = 697;
},
{
anchors = (
{
name = b.tasubscriptorya;
position = "{342, 0}";
},
{
name = b.uvowelsignorya;
position = "{414, 0}";
},
{
name = t.candrabinduorya;
position = "{529, 657}";
},
{
name = t.ivowelsignorya;
position = "{371, 657}";
}
);
components = (
{
name = _part.u;
transform = "{1, 0, 0, 1, -11, 0}";
},
{
name = _part.osmall;
transform = "{1, 0, 0, 1, -52, 0}";
}
);
layerId = "D0F0E2C3-3B53-4823-9924-A34C50245C28";
paths = (
{
closed = 1;
nodes = (
"27 321 OFFCURVE",
"61 265 OFFCURVE",
"117 187 CURVE",
"201 303 LINE",
"154 328 OFFCURVE",
"125 373 OFFCURVE",
"125 427 CURVE SMOOTH",
"125 515 OFFCURVE",
"203 550 OFFCURVE",
"268 550 CURVE SMOOTH",
"341 550 OFFCURVE",
"401 521 OFFCURVE",
"466 419 CURVE",
"518 531 LINE",
"460 620 OFFCURVE",
"381 667 OFFCURVE",
"285 667 CURVE SMOOTH",
"126 667 OFFCURVE",
"27 550 OFFCURVE",
"27 403 CURVE SMOOTH"
);
}
);
width = 757;
}
);
leftMetricsKey = iorya;
rightKerningGroup = caorya;
unicode = 0B19;
},
{
glyphname = chaorya;
lastChange = "2021-07-28 13:33:46 +0000";
layers = (
{
anchors = (
{
name = b.tasubscriptorya;
position = "{298, 0}";
},
{
name = b.uvowelsignorya;
position = "{455, 0}";
},
{
name = t.candrabinduorya;
position = "{480, 657}";
},
{
name = t.ivowelsignorya;
position = "{290, 657}";
}
);
layerId = "6C4C2116-C5E5-460E-80F0-69F45ED98D3F";
paths = (
{
closed = 1;
nodes = (
"41 34 OFFCURVE",
"85 -10 OFFCURVE",
"151 -10 CURVE SMOOTH",
"207 -10 OFFCURVE",
"262 21 OFFCURVE",
"298 74 CURVE",
"268 105 LINE",
"243 73 OFFCURVE",
"208 52 OFFCURVE",
"171 52 CURVE SMOOTH",
"129 52 OFFCURVE",
"101 78 OFFCURVE",
"101 112 CURVE SMOOTH",
"101 140 OFFCURVE",
"119 155 OFFCURVE",
"150 155 CURVE SMOOTH",
"193 155 OFFCURVE",
"242 122 OFFCURVE",
"284 74 CURVE SMOOTH",
"327 24 OFFCURVE",
"373 -9 OFFCURVE",
"429 -9 CURVE SMOOTH",
"499 -9 OFFCURVE",
"550 43 OFFCURVE",
"550 110 CURVE SMOOTH",
"550 176 OFFCURVE",
"501 211 OFFCURVE",
"449 211 CURVE SMOOTH",
"393 211 OFFCURVE",
"330 171 OFFCURVE",
"298 139 CURVE",
"324 112 LINE",
"349 140 OFFCURVE",
"382 154 OFFCURVE",
"413 154 CURVE SMOOTH",
"449 154 OFFCURVE",
"493 130 OFFCURVE",
"493 93 CURVE SMOOTH",
"493 69 OFFCURVE",
"472 55 OFFCURVE",
"442 55 CURVE SMOOTH",
"403 55 OFFCURVE",
"367 80 OFFCURVE",
"326 126 CURVE SMOOTH",
"281 179 OFFCURVE",
"225 212 OFFCURVE",
"163 212 CURVE SMOOTH",
"93 212 OFFCURVE",
"41 169 OFFCURVE",
"41 98 CURVE SMOOTH"
);
},
{
closed = 1;
nodes = (
"159 202 OFFCURVE",
"217 145 OFFCURVE",
"294 145 CURVE SMOOTH",
"375 145 OFFCURVE",
"438 208 OFFCURVE",
"438 288 CURVE SMOOTH",
"438 370 OFFCURVE",
"380 432 OFFCURVE",
"303 432 CURVE SMOOTH",
"222 432 OFFCURVE",
"159 364 OFFCURVE",
"159 279 CURVE SMOOTH"
);
},
{
closed = 1;
nodes = (
"221 342 OFFCURVE",
"248 376 OFFCURVE",
"290 376 CURVE SMOOTH",
"337 376 OFFCURVE",
"376 331 OFFCURVE",
"376 274 CURVE SMOOTH",
"376 224 OFFCURVE",
"349 188 OFFCURVE",
"307 188 CURVE SMOOTH",
"261 188 OFFCURVE",
"221 234 OFFCURVE",
"221 294 CURVE SMOOTH"
);
},
{
closed = 1;
nodes = (
"532 497 LINE",
"576 547 LINE",
"524 604 OFFCURVE",
"440 667 OFFCURVE",
"308 667 CURVE SMOOTH",
"139 667 OFFCURVE",
"32 564 OFFCURVE",
"32 437 CURVE SMOOTH",
"32 362 OFFCURVE",
"70 279 OFFCURVE",
"176 223 CURVE",
"209 301 LINE",
"142 323 OFFCURVE",
"100 383 OFFCURVE",
"100 448 CURVE SMOOTH",
"100 537 OFFCURVE",
"178 601 OFFCURVE",
"292 601 CURVE SMOOTH",
"392 601 OFFCURVE",
"471 553 OFFCURVE",
"521 497 CURVE"
);
}
);
width = 594;
},
{
anchors = (
{
name = b.tasubscriptorya;
position = "{321, 0}";
},
{
name = b.uvowelsignorya;
position = "{528, 0}";
},
{
name = t.candrabinduorya;
position = "{496, 657}";
},
{
name = t.ivowelsignorya;
position = "{319, 657}";
}
);
layerId = "D0F0E2C3-3B53-4823-9924-A34C50245C28";
paths = (
{
closed = 1;
nodes = (
"48 39 OFFCURVE",
"97 -10 OFFCURVE",
"170 -10 CURVE SMOOTH",
"238 -10 OFFCURVE",
"303 24 OFFCURVE",
"347 80 CURVE",
"304 123 LINE",
"280 96 OFFCURVE",
"244 80 OFFCURVE",
"206 80 CURVE SMOOTH",
"160 80 OFFCURVE",
"127 100 OFFCURVE",
"127 127 CURVE SMOOTH",
"127 144 OFFCURVE",
"144 154 OFFCURVE",
"171 154 CURVE SMOOTH",
"217 154 OFFCURVE",
"271 124 OFFCURVE",
"313 76 CURVE SMOOTH",
"359 22 OFFCURVE",
"417 -9 OFFCURVE",
"475 -9 CURVE SMOOTH",
"559 -9 OFFCURVE",
"618 49 OFFCURVE",
"618 129 CURVE SMOOTH",
"618 198 OFFCURVE",
"569 243 OFFCURVE",
"493 243 CURVE SMOOTH",
"435 243 OFFCURVE",
"371 215 OFFCURVE",
"327 169 CURVE",
"358 120 LINE",
"392 145 OFFCURVE",
"426 158 OFFCURVE",
"459 158 CURVE SMOOTH",
"503 158 OFFCURVE",
"538 139 OFFCURVE",
"538 111 CURVE SMOOTH",
"538 94 OFFCURVE",
"524 83 OFFCURVE",
"498 83 CURVE SMOOTH",
"456 83 OFFCURVE",
"414 105 OFFCURVE",
"373 150 CURVE SMOOTH",
"324 209 OFFCURVE",
"257 242 OFFCURVE",
"193 242 CURVE SMOOTH",
"107 242 OFFCURVE",
"48 192 OFFCURVE",
"48 111 CURVE SMOOTH"
);
},
{
closed = 1;
nodes = (
"184 212 OFFCURVE",
"255 159 OFFCURVE",
"328 159 CURVE SMOOTH",
"400 159 OFFCURVE",
"475 218 OFFCURVE",
"475 293 CURVE SMOOTH",
"475 370 OFFCURVE",
"417 430 OFFCURVE",
"330 430 CURVE SMOOTH",
"250 430 OFFCURVE",
"184 368 OFFCURVE",
"184 276 CURVE SMOOTH"
);
},
{
closed = 1;
nodes = (
"262 327 OFFCURVE",
"282 341 OFFCURVE",
"310 341 CURVE SMOOTH",
"357 341 OFFCURVE",
"395 307 OFFCURVE",
"395 263 CURVE SMOOTH",
"395 237 OFFCURVE",
"377 220 OFFCURVE",
"347 220 CURVE SMOOTH",
"297 220 OFFCURVE",
"261 261 OFFCURVE",
"262 300 CURVE SMOOTH"
);
},
{
closed = 1;
nodes = (
"553 425 LINE",
"641 520 LINE",
"556 608 OFFCURVE",
"451 667 OFFCURVE",
"325 667 CURVE SMOOTH",
"153 667 OFFCURVE",
"27 559 OFFCURVE",
"27 407 CURVE SMOOTH",
"27 334 OFFCURVE",
"56 248 OFFCURVE",
"174 191 CURVE",
"220 306 LINE",
"160 331 OFFCURVE",
"126 377 OFFCURVE",
"126 429 CURVE SMOOTH",
"126 502 OFFCURVE",
"192 550 OFFCURVE",
"290 550 CURVE SMOOTH",
"390 550 OFFCURVE",
"475 501 OFFCURVE",
"541 425 CURVE"
);
}
);
width = 659;
}
);
leftMetricsKey = iorya;
unicode = 0B1B;
},
{
glyphname = jaorya;
lastChange = "2021-07-27 13:14:31 +0000";
layers = (
{
anchors = (
{
name = b.tasubscriptorya;
position = "{329, 0}";
},
{
name = b.uvowelsignorya;
position = "{508, 0}";
},
{
name = t.candrabinduorya;
position = "{502, 657}";
},
{
name = t.ivowelsignorya;
position = "{329, 657}";
}
);
components = (
{
name = _part.swash3;
transform = "{1, 0, 0, 1, -2, 0}";
}
);
layerId = "6C4C2116-C5E5-460E-80F0-69F45ED98D3F";
paths = (
{
closed = 1;
nodes = (
"84 42 OFFCURVE",
"148 -10 OFFCURVE",
"230 -10 CURVE SMOOTH",
"287 -10 OFFCURVE",
"335 15 OFFCURVE",
"366 45 CURVE",
"395 110 LINE",
"374 115 LINE",
"345 88 OFFCURVE",
"295 52 OFFCURVE",
"243 52 CURVE SMOOTH",
"192 52 OFFCURVE",
"147 86 OFFCURVE",
"147 149 CURVE SMOOTH",
"147 201 OFFCURVE",
"177 266 OFFCURVE",
"256 339 CURVE",
"222 376 LINE",
"135 302 OFFCURVE",
"84 219 OFFCURVE",
"84 136 CURVE SMOOTH"
);
},
{
closed = 1;
nodes = (
"250 172 OFFCURVE",
"296 116 OFFCURVE",
"340 79 CURVE",
"395 110 LINE",
"395 119 LINE",
"351 166 OFFCURVE",
"317 210 OFFCURVE",
"317 236 CURVE SMOOTH",
"317 243 OFFCURVE",
"319 246 OFFCURVE",
"325 246 CURVE SMOOTH",
"490 246 LINE",
"441 291 LINE",
"441 0 LINE",
"448 -7 LINE",
"508 7 LINE",
"508 303 LINE",
"501 310 LINE",
"344 310 LINE SMOOTH",
"311 310 OFFCURVE",
"296 298 OFFCURVE",
"276 276 CURVE SMOOTH",
"252 247 OFFCURVE",
"250 236 OFFCURVE",
"250 225 CURVE SMOOTH"
);
}
);
width = 637;
},
{
anchors = (
{
name = b.tasubscriptorya;
position = "{365, 0}";
},
{
name = b.uvowelsignorya;
position = "{549, 0}";
},
{
name = t.candrabinduorya;
position = "{539, 657}";
},
{
name = t.ivowelsignorya;
position = "{365, 657}";
}
);
components = (
{
name = _part.swash3;
transform = "{1, 0, 0, 1, -5, 0}";
}
);
layerId = "D0F0E2C3-3B53-4823-9924-A34C50245C28";
paths = (
{
closed = 1;
nodes = (
"77 55 OFFCURVE",
"143 -10 OFFCURVE",
"233 -10 CURVE SMOOTH",
"271 -10 OFFCURVE",
"308 -2 OFFCURVE",
"342 22 CURVE",
"395 89 LINE",
"382 106 LINE",
"367 100 OFFCURVE",
"335 90 OFFCURVE",
"291 90 CURVE SMOOTH",
"215 90 OFFCURVE",
"172 136 OFFCURVE",
"172 187 CURVE SMOOTH",
"172 233 OFFCURVE",
"203 268 OFFCURVE",
"266 333 CURVE",
"219 382 LINE",
"135 309 OFFCURVE",
"77 234 OFFCURVE",
"77 147 CURVE SMOOTH"
);
},
{
closed = 1;
nodes = (
"234 138 OFFCURVE",
"262 95 OFFCURVE",
"287 66 CURVE",
"395 89 LINE",
"395 103 LINE",
"362 139 OFFCURVE",
"337 176 OFFCURVE",
"338 197 CURVE SMOOTH",
"338 206 OFFCURVE",
"340 211 OFFCURVE",
"351 211 CURVE SMOOTH",
"474 211 LINE",
"429 256 LINE",
"429 -3 LINE",
"436 -10 LINE",
"549 17 LINE",
"549 303 LINE",
"542 310 LINE",
"379 310 LINE SMOOTH",
"328 310 OFFCURVE",
"306 291 OFFCURVE",
"274 257 CURVE SMOOTH",
"236 214 OFFCURVE",
"234 197 OFFCURVE",
"234 179 CURVE SMOOTH"
);
}
);
width = 680;
}
);
leftMetricsKey = iorya;
rightKerningGroup = caorya;
rightMetricsKey = kaorya;
unicode = 0B1C;
},
{
glyphname = jhaorya;
lastChange = "2021-07-26 14:53:37 +0000";
layers = (
{
anchors = (
{
name = b.tasubscriptorya;
position = "{310, 0}";
},
{
name = b.uvowelsignorya;
position = "{365, 0}";
},
{
name = t.candrabinduorya;
position = "{482, 657}";
},
{
name = t.ivowelsignorya;
position = "{315, 657}";
}
);
components = (
{
name = _part.vo;
transform = "{1, 0, 0, 1, 76, 0}";
}
);
layerId = "6C4C2116-C5E5-460E-80F0-69F45ED98D3F";
paths = (
{
closed = 1;
nodes = (
"311 430 OFFCURVE",
"366 382 OFFCURVE",
"445 382 CURVE SMOOTH",
"552 382 OFFCURVE",
"613 444 OFFCURVE",
"613 519 CURVE SMOOTH",
"613 544 OFFCURVE",
"603 611 OFFCURVE",
"586 657 CURVE",
"519 627 LINE",
"540 586 OFFCURVE",
"553 536 OFFCURVE",
"553 511 CURVE SMOOTH",
"553 473 OFFCURVE",
"509 447 OFFCURVE",
"459 447 CURVE SMOOTH",
"412 447 OFFCURVE",
"378 470 OFFCURVE",
"378 511 CURVE SMOOTH",
"378 542 OFFCURVE",
"398 580 OFFCURVE",
"444 631 CURVE",
"439 643 LINE",
"379 628 LINE",
"335 578 OFFCURVE",
"311 541 OFFCURVE",
"311 496 CURVE SMOOTH"
);
},
{
closed = 1;
nodes = (
"518 -9 LINE",
"532 -9 LINE",
"565 54 LINE",
"424 122 LINE",
"396 71 LINE"
);
},
{
closed = 1;
nodes = (
"32 342 OFFCURVE",
"78 257 OFFCURVE",
"163 206 CURVE",
"199 295 LINE",
"137 325 OFFCURVE",
"100 376 OFFCURVE",
"100 444 CURVE SMOOTH",
"100 531 OFFCURVE",
"175 601 OFFCURVE",
"302 601 CURVE SMOOTH",
"331 601 OFFCURVE",
"360 596 OFFCURVE",
"387 587 CURVE",
"439 643 LINE",
"400 659 OFFCURVE",
"358 667 OFFCURVE",
"313 667 CURVE SMOOTH",
"146 667 OFFCURVE",
"32 558 OFFCURVE",
"32 430 CURVE SMOOTH"
);
}
);
width = 630;
},
{
anchors = (
{
name = b.tasubscriptorya;
position = "{338, 0}";
},
{
name = b.uvowelsignorya;
position = "{409, 0}";
},
{
name = t.candrabinduorya;
position = "{529, 657}";
},
{
name = t.ivowelsignorya;
position = "{343, 657}";
}
);
components = (
{
name = _part.vo;
transform = "{1, 0, 0, 1, 37, 0}";
}
);
layerId = "D0F0E2C3-3B53-4823-9924-A34C50245C28";
paths = (
{
closed = 1;
nodes = (
"338 410 OFFCURVE",
"395 357 OFFCURVE",
"484 357 CURVE SMOOTH",
"573 357 OFFCURVE",
"671 413 OFFCURVE",
"671 526 CURVE SMOOTH",
"671 567 OFFCURVE",
"662 609 OFFCURVE",
"643 657 CURVE",
"529 604 LINE",
"550 568 OFFCURVE",
"566 523 OFFCURVE",
"566 497 CURVE SMOOTH",
"566 478 OFFCURVE",
"546 460 OFFCURVE",
"505 460 CURVE SMOOTH",
"461 460 OFFCURVE",
"439 486 OFFCURVE",
"439 522 CURVE SMOOTH",
"439 552 OFFCURVE",
"454 580 OFFCURVE",
"491 623 CURVE",
"484 637 LINE",
"439 643 LINE",
"378 593 OFFCURVE",
"338 540 OFFCURVE",
"338 481 CURVE SMOOTH"
);
},
{
closed = 1;
nodes = (
"562 -36 LINE",
"576 -36 LINE",
"638 74 LINE",
"454 157 LINE",
"409 59 LINE"
);
},
{
closed = 1;
nodes = (
"27 322 OFFCURVE",
"54 237 OFFCURVE",
"149 158 CURVE",
"216 288 LINE",
"150 315 OFFCURVE",
"128 365 OFFCURVE",
"128 415 CURVE SMOOTH",
"128 501 OFFCURVE",
"205 550 OFFCURVE",
"305 550 CURVE SMOOTH",
"334 550 OFFCURVE",
"360 546 OFFCURVE",
"385 538 CURVE",
"484 637 LINE",
"441 656 OFFCURVE",
"392 667 OFFCURVE",
"339 667 CURVE SMOOTH",
"158 667 OFFCURVE",
"27 553 OFFCURVE",
"27 393 CURVE SMOOTH"
);
}
);
width = 685;
}
);
leftMetricsKey = iorya;
unicode = 0B1D;
},
{
glyphname = ttaorya;
lastChange = "2021-07-28 10:47:56 +0000";
layers = (
{
anchors = (
{
name = b.tasubscriptorya;
position = "{317, 0}";
},
{
name = b.uvowelsignorya;
position = "{357, 0}";
},
{
name = t.candrabinduorya;
position = "{515, 657}";
},
{
name = t.ivowelsignorya;
position = "{317, 657}";
}
);
components = (
{
name = _part.vo;
transform = "{1, 0, 0, 1, 64, 0}";
},
{
name = _part.g;
transform = "{1, 0, 0, 1, -2, 0}";
}
);
layerId = "6C4C2116-C5E5-460E-80F0-69F45ED98D3F";
paths = (
{
closed = 1;
nodes = (
"522 348 LINE",
"582 362 LINE",
"582 657 LINE",
"575 664 LINE",
"515 650 LINE",
"515 355 LINE"
);
}
);
width = 616;
},
{
anchors = (
{
name = b.tasubscriptorya;
position = "{366, 0}";
},
{
name = b.uvowelsignorya;
position = "{401, 0}";
},
{
name = t.candrabinduorya;
position = "{526, 657}";
},
{
name = t.ivowelsignorya;
position = "{346, 657}";
}
);
components = (
{
name = _part.vo;
transform = "{1, 0, 0, 1, 13, 0}";
},
{
name = _part.g;
transform = "{1, 0, 0, 1, -5, 0}";
}
);
layerId = "D0F0E2C3-3B53-4823-9924-A34C50245C28";
paths = (
{
closed = 1;
nodes = (
"533 340 LINE",
"646 370 LINE",
"646 663 LINE",
"639 670 LINE",
"526 640 LINE",
"526 347 LINE"
);
}
);
width = 677;
}
);
leftMetricsKey = iorya;
rightKerningGroup = caorya;
unicode = 0B1F;
},
{
glyphname = tthaorya;
lastChange = "2021-07-15 11:48:06 +0000";
layers = (
{
anchors = (
{
name = b.tasubscriptorya;
position = "{358, 0}";
},
{
name = b.uvowelsignorya;
position = "{460, 0}";
},
{
name = t.candrabinduorya;
position = "{534, 657}";
},
{
name = t.ivowelsignorya;
position = "{352, 657}";
}
);
layerId = "6C4C2116-C5E5-460E-80F0-69F45ED98D3F";
paths = (
{
closed = 1;
nodes = (
"38 133 OFFCURVE",
"173 -10 OFFCURVE",
"353 -10 CURVE SMOOTH",
"536 -10 OFFCURVE",
"678 139 OFFCURVE",
"678 332 CURVE SMOOTH",
"678 521 OFFCURVE",
"543 664 OFFCURVE",
"363 664 CURVE SMOOTH",
"180 664 OFFCURVE",
"38 515 OFFCURVE",
"38 322 CURVE SMOOTH"
);
},
{
closed = 1;
nodes = (
"105 483 OFFCURVE",
"201 598 OFFCURVE",
"343 598 CURVE SMOOTH",
"493 598 OFFCURVE",
"611 472 OFFCURVE",
"611 314 CURVE SMOOTH",
"611 172 OFFCURVE",
"515 57 OFFCURVE",
"372 57 CURVE SMOOTH",
"223 57 OFFCURVE",
"105 180 OFFCURVE",
"105 339 CURVE SMOOTH"
);
}
);
width = 716;
},
{
anchors = (
{
name = b.tasubscriptorya;
position = "{371, 0}";
},
{
name = b.uvowelsignorya;
position = "{503, 0}";
},
{
name = t.candrabinduorya;
position = "{534, 657}";
},
{
name = t.ivowelsignorya;
position = "{371, 657}";
}
);
layerId = "D0F0E2C3-3B53-4823-9924-A34C50245C28";
paths = (
{
closed = 1;
nodes = (
"36 132 OFFCURVE",
"177 -10 OFFCURVE",
"364 -10 CURVE SMOOTH",
"557 -10 OFFCURVE",
"706 140 OFFCURVE",
"706 334 CURVE SMOOTH",
"706 522 OFFCURVE",
"565 664 OFFCURVE",
"378 664 CURVE SMOOTH",
"185 664 OFFCURVE",
"36 514 OFFCURVE",
"36 320 CURVE SMOOTH"
);
},
{
closed = 1;
nodes = (
"160 477 OFFCURVE",
"237 562 OFFCURVE",
"352 562 CURVE SMOOTH",
"480 562 OFFCURVE",
"582 447 OFFCURVE",
"582 304 CURVE SMOOTH",
"582 178 OFFCURVE",
"505 93 OFFCURVE",
"391 93 CURVE SMOOTH",
"262 93 OFFCURVE",
"160 206 OFFCURVE",
"160 351 CURVE SMOOTH"
);
}
);
width = 742;
}
);
unicode = 0B20;
},
{
glyphname = ddhaorya;
lastChange = "2021-07-26 14:53:37 +0000";
layers = (
{
anchors = (
{
name = b.tasubscriptorya;
position = "{342, 0}";
},
{
name = b.uvowelsignorya;
position = "{494, 0}";
},
{
name = t.ivowelsignorya;
position = "{339, 657}";
}
);
components = (
{
name = _part.swash3;
transform = "{1, 0, 0, 1, -5, 0}";
}
);
layerId = "D0F0E2C3-3B53-4823-9924-A34C50245C28";
paths = (
{
closed = 1;
nodes = (
"108 55 OFFCURVE",
"195 -10 OFFCURVE",
"320 -10 CURVE SMOOTH",
"474 -10 OFFCURVE",
"577 68 OFFCURVE",
"577 165 CURVE SMOOTH",
"577 245 OFFCURVE",
"515 305 OFFCURVE",
"436 305 CURVE SMOOTH",
"353 305 OFFCURVE",
"296 233 OFFCURVE",
"296 166 CURVE SMOOTH",
"296 119 OFFCURVE",
"326 69 OFFCURVE",
"365 29 CURVE",
"467 94 LINE",
"409 121 OFFCURVE",
"387 163 OFFCURVE",
"387 184 CURVE SMOOTH",
"387 196 OFFCURVE",
"397 203 OFFCURVE",
"413 203 CURVE SMOOTH",
"446 203 OFFCURVE",
"490 173 OFFCURVE",
"490 146 CURVE SMOOTH",
"490 115 OFFCURVE",
"440 91 OFFCURVE",
"351 91 CURVE SMOOTH",
"254 91 OFFCURVE",
"203 139 OFFCURVE",
"203 183 CURVE SMOOTH",
"203 234 OFFCURVE",
"236 265 OFFCURVE",
"304 334 CURVE",
"257 383 LINE",
"169 310 OFFCURVE",
"108 234 OFFCURVE",
"108 147 CURVE SMOOTH"
);
},
{
closed = 1;
nodes = (
"407 16 OFFCURVE",
"463 -14 OFFCURVE",
"534 -39 CURVE",
"545 -37 LINE",
"603 47 LINE",
"543 61 OFFCURVE",
"495 83 OFFCURVE",
"458 105 CURVE",
"367 49 LINE"
);
}
);
width = 673;
},
{
anchors = (
{
name = b.tasubscriptorya;
position = "{329, 0}";
},
{
name = b.uvowelsignorya;
position = "{440, 0}";
},
{
name = t.ivowelsignorya;
position = "{317, 657}";
}
);
components = (
{
name = _part.swash3;
transform = "{1, 0, 0, 1, -2, 0}";
}
);
layerId = "6C4C2116-C5E5-460E-80F0-69F45ED98D3F";
paths = (
{
closed = 1;
nodes = (
"105 57 OFFCURVE",
"180 -10 OFFCURVE",
"307 -10 CURVE SMOOTH",
"444 -10 OFFCURVE",
"532 65 OFFCURVE",
"532 157 CURVE SMOOTH",
"532 241 OFFCURVE",
"469 305 OFFCURVE",
"397 305 CURVE SMOOTH",
"325 305 OFFCURVE",
"273 244 OFFCURVE",
"273 179 CURVE SMOOTH",
"273 111 OFFCURVE",
"331 46 OFFCURVE",
"387 32 CURVE",
"438 64 LINE",
"377 93 OFFCURVE",
"331 141 OFFCURVE",
"331 189 CURVE SMOOTH",
"331 223 OFFCURVE",
"354 242 OFFCURVE",
"383 242 CURVE SMOOTH",
"429 242 OFFCURVE",
"472 196 OFFCURVE",
"472 142 CURVE SMOOTH",
"472 94 OFFCURVE",
"416 52 OFFCURVE",
"327 52 CURVE SMOOTH",
"221 52 OFFCURVE",
"170 101 OFFCURVE",
"170 170 CURVE SMOOTH",
"170 215 OFFCURVE",
"198 266 OFFCURVE",
"259 339 CURVE",
"217 370 LINE",
"154 302 OFFCURVE",
"105 235 OFFCURVE",
"105 156 CURVE SMOOTH"
);
},
{
closed = 1;
nodes = (
"439 -5 OFFCURVE",
"473 -23 OFFCURVE",
"510 -36 CURVE",
"521 -34 LINE",
"553 16 LINE",
"526 24 OFFCURVE",
"498 34 OFFCURVE",
"464 54 CURVE",
"400 18 LINE"
);
}
);
width = 629;
}
);
leftMetricsKey = iorya;
unicode = 0B22;
},
{
glyphname = taorya;
lastChange = "2021-07-27 09:48:55 +0000";
layers = (
{
anchors = (
{
name = b.tasubscriptorya;
position = "{302, 0}";
},
{
name = b.uvowelsignorya;
position = "{417, 0}";
},
{
name = t.candrabinduorya;
position = "{494, 657}";
},
{
name = t.ivowelsignorya;
position = "{317, 657}";
}
);
components = (
{
name = _part.swash3;
transform = "{1, 0, 0, 1, -2, 0}";
}
);
layerId = "6C4C2116-C5E5-460E-80F0-69F45ED98D3F";
paths = (
{
closed = 1;
nodes = (
"114 58 OFFCURVE",
"195 -10 OFFCURVE",
"319 -10 CURVE SMOOTH",
"447 -10 OFFCURVE",
"524 55 OFFCURVE",
"524 157 CURVE SMOOTH",
"524 232 OFFCURVE",
"474 326 OFFCURVE",
"416 326 CURVE SMOOTH",
"390 326 OFFCURVE",
"364 301 OFFCURVE",
"364 263 CURVE SMOOTH",
"364 236 OFFCURVE",
"385 206 OFFCURVE",
"423 206 CURVE SMOOTH",
"452 206 OFFCURVE",
"471 214 OFFCURVE",
"494 228 CURVE",
"442 222 LINE",
"457 189 OFFCURVE",
"465 163 OFFCURVE",
"465 137 CURVE SMOOTH",
"465 91 OFFCURVE",
"408 55 OFFCURVE",
"329 55 CURVE SMOOTH",
"242 55 OFFCURVE",
"182 98 OFFCURVE",
"182 160 CURVE SMOOTH",
"182 213 OFFCURVE",
"218 269 OFFCURVE",
"300 346 CURVE",
"262 386 LINE",
"175 310 OFFCURVE",
"114 223 OFFCURVE",
"114 149 CURVE SMOOTH"
);
}
);
width = 627;
},
{
anchors = (
{
name = b.tasubscriptorya;
position = "{349, 0}";
},
{
name = b.uvowelsignorya;
position = "{434, 0}";
},
{
name = t.candrabinduorya;
position = "{529, 657}";
},
{
name = t.ivowelsignorya;
position = "{339, 657}";
}
);
components = (
{
name = _part.swash3;
transform = "{1, 0, 0, 1, -5, 0}";
}
);
layerId = "D0F0E2C3-3B53-4823-9924-A34C50245C28";
paths = (
{
closed = 1;
nodes = (
"117 55 OFFCURVE",
"199 -10 OFFCURVE",
"339 -10 CURVE SMOOTH",
"474 -10 OFFCURVE",
"552 55 OFFCURVE",
"552 157 CURVE SMOOTH",
"552 232 OFFCURVE",
"501 326 OFFCURVE",
"430 326 CURVE SMOOTH",
"382 326 OFFCURVE",
"344 295 OFFCURVE",
"344 247 CURVE SMOOTH",
"344 212 OFFCURVE",
"372 175 OFFCURVE",
"424 175 CURVE SMOOTH",
"463 175 OFFCURVE",
"488 185 OFFCURVE",
"520 202 CURVE",
"436 192 LINE",
"453 171 OFFCURVE",
"463 155 OFFCURVE",
"463 138 CURVE SMOOTH",
"463 122 OFFCURVE",
"418 111 OFFCURVE",
"363 111 CURVE SMOOTH",
"268 111 OFFCURVE",
"215 147 OFFCURVE",
"215 187 CURVE SMOOTH",
"215 235 OFFCURVE",
"248 266 OFFCURVE",
"315 337 CURVE",
"268 386 LINE",
"179 312 OFFCURVE",
"117 235 OFFCURVE",
"117 147 CURVE SMOOTH"
);
}
);
width = 672;
}
);
leftMetricsKey = iorya;
unicode = 0B24;
},
{
glyphname = thaorya;
lastChange = "2021-07-21 15:39:12 +0000";
layers = (
{
anchors = (
{
name = b.tasubscriptorya;
position = "{342, 0}";
},
{
name = b.uvowelsignorya;
position = "{567, 0}";
},
{
name = t.candrabinduorya;
position = "{500, 657}";
},
{
name = t.ivowelsignorya;
position = "{314, 657}";
}
);
components = (
{
name = _part.a;
transform = "{1, 0, 0, 1, -16, 0}";
}
);
layerId = "6C4C2116-C5E5-460E-80F0-69F45ED98D3F";
paths = (
{
closed = 1;
nodes = (
"30 64 OFFCURVE",
"111 -10 OFFCURVE",
"242 -10 CURVE SMOOTH",
"354 -10 OFFCURVE",
"462 41 OFFCURVE",
"525 147 CURVE",
"530 223 LINE",
"456 103 OFFCURVE",
"346 57 OFFCURVE",
"257 57 CURVE SMOOTH",
"155 57 OFFCURVE",
"102 117 OFFCURVE",
"102 179 CURVE SMOOTH",
"102 235 OFFCURVE",
"141 272 OFFCURVE",
"218 302 CURVE SMOOTH",
"270 322 LINE SMOOTH",
"303 335 OFFCURVE",
"332 348 OFFCURVE",
"356 365 CURVE SMOOTH",
"398 395 OFFCURVE",
"424 435 OFFCURVE",
"424 498 CURVE SMOOTH",
"424 598 OFFCURVE",
"355 667 OFFCURVE",
"249 667 CURVE SMOOTH",
"157 667 OFFCURVE",
"65 614 OFFCURVE",
"65 506 CURVE SMOOTH",
"65 472 OFFCURVE",
"75 437 OFFCURVE",
"89 404 CURVE",
"154 427 LINE",
"145 451 OFFCURVE",
"133 482 OFFCURVE",
"133 513 CURVE SMOOTH",
"133 582 OFFCURVE",
"192 602 OFFCURVE",
"238 602 CURVE SMOOTH",
"313 602 OFFCURVE",
"357 550 OFFCURVE",
"357 488 CURVE SMOOTH",
"357 455 OFFCURVE",
"344 432 OFFCURVE",
"322 414 CURVE SMOOTH",
"301 397 OFFCURVE",
"270 384 OFFCURVE",
"234 371 CURVE SMOOTH",
"193 356 LINE SMOOTH",
"153 341 OFFCURVE",
"120 325 OFFCURVE",
"95 305 CURVE SMOOTH",
"52 272 OFFCURVE",
"30 228 OFFCURVE",
"30 168 CURVE SMOOTH"
);
}
);
width = 628;
},
{
anchors = (
{
name = b.tasubscriptorya;
position = "{407, 0}";
},
{
name = b.uvowelsignorya;
position = "{637, 0}";
},
{
name = t.candrabinduorya;
position = "{518, 657}";
},
{
name = t.ivowelsignorya;
position = "{346, 657}";
}
);
components = (
{
name = _part.a;
transform = "{1, 0, 0, 1, -17, 0}";
}
);
layerId = "D0F0E2C3-3B53-4823-9924-A34C50245C28";
paths = (
{
closed = 1;
nodes = (
"29 66 OFFCURVE",
"116 -10 OFFCURVE",
"247 -10 CURVE SMOOTH",
"359 -10 OFFCURVE",
"459 47 OFFCURVE",
"527 131 CURVE",
"524 250 LINE",
"462 151 OFFCURVE",
"362 110 OFFCURVE",
"282 110 CURVE SMOOTH",
"194 110 OFFCURVE",
"153 158 OFFCURVE",
"153 200 CURVE SMOOTH",
"153 234 OFFCURVE",
"180 253 OFFCURVE",
"217 264 CURVE SMOOTH",
"269 280 LINE SMOOTH",
"321 296 OFFCURVE",
"356 311 OFFCURVE",
"391 336 CURVE SMOOTH",
"444 373 OFFCURVE",
"467 430 OFFCURVE",
"467 489 CURVE SMOOTH",
"467 591 OFFCURVE",
"400 667 OFFCURVE",
"275 667 CURVE SMOOTH",
"169 667 OFFCURVE",
"57 606 OFFCURVE",
"57 485 CURVE SMOOTH",
"57 459 OFFCURVE",
"63 430 OFFCURVE",
"75 396 CURVE",
"191 440 LINE",
"181 461 OFFCURVE",
"173 485 OFFCURVE",
"173 503 CURVE SMOOTH",
"173 544 OFFCURVE",
"215 556 OFFCURVE",
"253 556 CURVE SMOOTH",
"325 556 OFFCURVE",
"365 513 OFFCURVE",
"365 464 CURVE SMOOTH",
"365 441 OFFCURVE",
"356 426 OFFCURVE",
"339 412 CURVE SMOOTH",
"322 398 OFFCURVE",
"298 387 OFFCURVE",
"221 363 CURVE SMOOTH",
"192 354 LINE SMOOTH",
"139 338 OFFCURVE",
"111 322 OFFCURVE",
"85 298 CURVE SMOOTH",
"49 265 OFFCURVE",
"29 222 OFFCURVE",
"29 170 CURVE SMOOTH"
);
}
);
width = 693;
}
);
rightMetricsKey = aorya;
unicode = 0B25;
},
{
glyphname = daorya;
lastChange = "2021-07-22 07:46:18 +0000";
layers = (
{
anchors = (
{
name = b.tasubscriptorya;
position = "{313, 0}";
},
{
name = b.uvowelsignorya;
position = "{476, 0}";
},
{
name = t.candrabinduorya;
position = "{490, 657}";
},
{
name = t.ivowelsignorya;
position = "{313, 657}";
}
);
components = (
{
name = _part.swash3;
transform = "{1, 0, 0, 1, -2, 0}";
}
);
layerId = "6C4C2116-C5E5-460E-80F0-69F45ED98D3F";
paths = (
{
closed = 1;
nodes = (
"455 178 LINE",
"430 157 OFFCURVE",
"378 118 OFFCURVE",
"303 118 CURVE SMOOTH",
"246 118 OFFCURVE",
"208 150 OFFCURVE",
"208 202 CURVE SMOOTH",
"208 241 OFFCURVE",
"237 277 OFFCURVE",
"290 321 CURVE",
"251 359 LINE",
"190 310 OFFCURVE",
"139 257 OFFCURVE",
"139 187 CURVE SMOOTH",
"139 111 OFFCURVE",
"198 52 OFFCURVE",
"287 52 CURVE SMOOTH",
"364 52 OFFCURVE",
"425 93 OFFCURVE",
"462 142 CURVE"
);
},
{
closed = 1;
nodes = (
"416 -7 LINE",
"476 7 LINE",
"476 298 LINE",
"469 305 LINE",
"409 290 LINE",
"409 0 LINE"
);
}
);
width = 637;
},
{
anchors = (
{
name = b.tasubscriptorya;
position = "{352, 0}";
},
{
name = b.uvowelsignorya;
position = "{502, 0}";
},
{
name = t.candrabinduorya;
position = "{519, 657}";
},
{
name = t.ivowelsignorya;
position = "{339, 657}";
}
);
components = (
{
name = _part.swash3;
transform = "{1, 0, 0, 1, -5, 0}";
}
);
layerId = "D0F0E2C3-3B53-4823-9924-A34C50245C28";
paths = (
{
closed = 1;
nodes = (
"439 215 LINE",
"421 193 OFFCURVE",
"376 156 OFFCURVE",
"309 156 CURVE SMOOTH",
"261 156 OFFCURVE",
"222 179 OFFCURVE",
"222 211 CURVE SMOOTH",
"222 246 OFFCURVE",
"255 280 OFFCURVE",
"321 333 CURVE",
"274 382 LINE",
"184 315 OFFCURVE",
"122 246 OFFCURVE",
"122 170 CURVE SMOOTH",
"122 93 OFFCURVE",
"188 44 OFFCURVE",
"266 44 CURVE SMOOTH",
"333 44 OFFCURVE",
"382 74 OFFCURVE",
"410 108 CURVE"
);
},
{
closed = 1;
nodes = (
"389 -10 LINE",
"502 20 LINE",
"502 313 LINE",
"495 320 LINE",
"382 290 LINE",
"382 -3 LINE"
);
}
);
width = 680;
}
);
leftMetricsKey = iorya;
rightKerningGroup = caorya;
rightMetricsKey = kaorya;
unicode = 0B26;
},
{
glyphname = dhaorya;
lastChange = "2021-07-28 11:32:35 +0000";
layers = (
{
anchors = (
{
name = b.tasubscriptorya;
position = "{296, 0}";
},
{
name = b.uvowelsignorya;
position = "{521, 0}";
},
{
name = t.ivowelsignorya;
position = "{292, 657}";
}
);
components = (
{
name = _part.a;
transform = "{1, 0, 0, 1, -62, 0}";
}
);
layerId = "6C4C2116-C5E5-460E-80F0-69F45ED98D3F";
paths = (
{
closed = 1;
nodes = (
"36 84 OFFCURVE",
"123 -10 OFFCURVE",
"255 -10 CURVE SMOOTH",
"387 -10 OFFCURVE",
"503 80 OFFCURVE",
"503 267 CURVE",
"454 248 LINE",
"454 113 OFFCURVE",
"353 55 OFFCURVE",
"265 55 CURVE SMOOTH",
"170 55 OFFCURVE",
"104 123 OFFCURVE",
"104 204 CURVE SMOOTH",
"104 268 OFFCURVE",
"144 347 OFFCURVE",
"275 373 CURVE",
"234 433 LINE",
"98 379 OFFCURVE",
"36 291 OFFCURVE",
"36 196 CURVE SMOOTH"
);
},
{
closed = 1;
nodes = (
"128 519 OFFCURVE",
"228 411 OFFCURVE",
"332 304 CURVE",
"342 304 LINE",
"377 334 LINE",
"277 453 OFFCURVE",
"180 567 OFFCURVE",
"102 665 CURVE",
"92 665 LINE",
"42 618 LINE"
);
}
);
width = 582;
},
{
anchors = (
{
name = b.tasubscriptorya;
position = "{315, 0}";
},
{
name = b.uvowelsignorya;
position = "{574, 0}";
},
{
name = t.ivowelsignorya;
position = "{315, 657}";
}
);
components = (
{
name = _part.a;
transform = "{1, 0, 0, 1, -80, 0}";
}
);
layerId = "D0F0E2C3-3B53-4823-9924-A34C50245C28";
paths = (
{
closed = 1;
nodes = (
"33 93 OFFCURVE",
"110 -10 OFFCURVE",
"252 -10 CURVE SMOOTH",
"406 -10 OFFCURVE",
"521 108 OFFCURVE",
"502 252 CURVE",
"455 281 LINE",
"460 178 OFFCURVE",
"382 111 OFFCURVE",
"286 111 CURVE SMOOTH",
"193 111 OFFCURVE",
"144 173 OFFCURVE",
"144 234 CURVE SMOOTH",
"144 285 OFFCURVE",
"178 340 OFFCURVE",
"285 362 CURVE",
"229 459 LINE",
"107 397 OFFCURVE",
"33 310 OFFCURVE",
"33 199 CURVE SMOOTH"
);
},
{
closed = 1;
nodes = (
"132 481 OFFCURVE",
"233 384 OFFCURVE",
"340 285 CURVE",
"350 285 LINE",
"419 356 LINE",
"320 467 OFFCURVE",
"222 573 OFFCURVE",
"144 665 CURVE",
"134 665 LINE",
"48 576 LINE"
);
}
);
width = 630;
}
);
rightMetricsKey = aorya;
unicode = 0B27;
},
{
glyphname = paorya;
lastChange = "2021-07-26 14:53:37 +0000";
layers = (
{
anchors = (
{
name = b.tasubscriptorya;
position = "{349, 0}";
},
{
name = b.uvowelsignorya;
position = "{645, 0}";
},
{
name = t.ivowelsignorya;
position = "{351, 657}";
}
);
components = (
{
name = _part.a;
transform = "{1, 0, 0, 1, -9, 0}";
},
{
name = _part.g;
transform = "{1, 0, 0, 1, -5, 0}";
}
);
layerId = "D0F0E2C3-3B53-4823-9924-A34C50245C28";
paths = (
{
closed = 1;
nodes = (
"110 55 OFFCURVE",
"183 -10 OFFCURVE",
"302 -10 CURVE SMOOTH",
"458 -10 OFFCURVE",
"573 101 OFFCURVE",
"573 241 CURVE",
"529 298 LINE",
"529 184 OFFCURVE",
"433 111 OFFCURVE",
"326 111 CURVE SMOOTH",
"251 111 OFFCURVE",
"209 148 OFFCURVE",
"209 185 CURVE SMOOTH",
"209 235 OFFCURVE",
"243 269 OFFCURVE",
"317 337 CURVE",
"270 386 LINE",
"175 311 OFFCURVE",
"110 235 OFFCURVE",
"110 147 CURVE SMOOTH"
);
}
);
width = 701;
},
{
anchors = (
{
name = b.tasubscriptorya;
position = "{352, 0}";
},
{
name = b.uvowelsignorya;
position = "{577, 0}";
},
{
name = t.ivowelsignorya;
position = "{324, 657}";
}
);
components = (
{
name = _part.a;
transform = "{1, 0, 0, 1, -6, 0}";
},
{
name = _part.g;
transform = "{1, 0, 0, 1, -2, 0}";
}
);
layerId = "6C4C2116-C5E5-460E-80F0-69F45ED98D3F";
paths = (
{
closed = 1;
nodes = (
"119 70 OFFCURVE",
"185 -10 OFFCURVE",
"309 -10 CURVE SMOOTH",
"453 -10 OFFCURVE",
"555 98 OFFCURVE",
"552 299 CURVE",
"511 280 LINE",
"511 135 OFFCURVE",
"420 55 OFFCURVE",
"318 55 CURVE SMOOTH",
"234 55 OFFCURVE",
"187 109 OFFCURVE",
"187 173 CURVE SMOOTH",
"187 223 OFFCURVE",
"218 277 OFFCURVE",
"302 346 CURVE",
"264 386 LINE",
"175 318 OFFCURVE",
"119 235 OFFCURVE",
"119 156 CURVE SMOOTH"
);
}
);
width = 638;
}
);
leftMetricsKey = iorya;
rightMetricsKey = aorya;
unicode = 0B2A;
},
{
glyphname = baorya;
lastChange = "2021-07-27 13:06:57 +0000";
layers = (
{
anchors = (
{
name = b.tasubscriptorya;
position = "{312, 0}";
},
{
name = b.uvowelsignorya;
position = "{457, 0}";
},
{
name = t.candrabinduorya;
position = "{486, 657}";
},
{
name = t.ivowelsignorya;
position = "{309, 657}";
}
);
components = (
{
name = _part.swash5;
transform = "{1, 0, 0, 1, -4, 0}";
},
{
name = _part.osmall;
transform = "{1, 0, 0, 1, -304, -295}";
}
);
layerId = "6C4C2116-C5E5-460E-80F0-69F45ED98D3F";
paths = (
{
closed = 1;
nodes = (
"457 187 LINE SMOOTH",
"457 336 OFFCURVE",
"371 372 OFFCURVE",
"316 372 CURVE",
"409 261 LINE",
"409 130 LINE",
"390 130 LINE",
"390 0 LINE",
"397 -7 LINE",
"457 7 LINE"
);
}
);
width = 613;
},
{
anchors = (
{
name = b.tasubscriptorya;
position = "{364, 0}";
},
{
name = b.uvowelsignorya;
position = "{484, 0}";
},
{
name = t.candrabinduorya;
position = "{539, 657}";
},
{
name = t.ivowelsignorya;
position = "{350, 657}";
}
);
components = (
{
name = _part.swash5;
transform = "{1, 0, 0, 1, -5, 0}";
},
{
name = _part.osmall;
transform = "{1, 0, 0, 1, -350, -294}";
}
);
layerId = "D0F0E2C3-3B53-4823-9924-A34C50245C28";
paths = (
{
closed = 1;
nodes = (
"484 114 LINE SMOOTH",
"484 324 OFFCURVE",
"380 372 OFFCURVE",
"299 372 CURVE",
"397 233 LINE",
"397 102 LINE",
"364 102 LINE",
"364 0 LINE",
"378 -9 LINE",
"484 20 LINE"
);
}
);
width = 665;
}
);
leftMetricsKey = iorya;
rightKerningGroup = caorya;
rightMetricsKey = caorya;
unicode = 0B2C;
},
{
glyphname = bhaorya;
lastChange = "2021-07-22 07:49:10 +0000";
layers = (
{
anchors = (
{
name = b.tasubscriptorya;
position = "{276, 0}";
},
{
name = b.uvowelsignorya;
position = "{379, 0}";
},
{
name = t.candrabinduorya;
position = "{506, 657}";
},
{
name = t.ivowelsignorya;
position = "{329, 657}";
}
);
components = (
{
name = _part.i;
transform = "{1, 0, 0, 1, -4, 0}";
}
);
layerId = "6C4C2116-C5E5-460E-80F0-69F45ED98D3F";
paths = (
{
closed = 1;
nodes = (
"462 199 LINE",
"440 189 OFFCURVE",
"410 181 OFFCURVE",
"382 181 CURVE SMOOTH",
"333 181 OFFCURVE",
"317 206 OFFCURVE",
"317 231 CURVE SMOOTH",
"317 248 OFFCURVE",
"324 271 OFFCURVE",
"345 310 CURVE",
"297 331 LINE",
"278 296 OFFCURVE",
"256 255 OFFCURVE",
"256 216 CURVE SMOOTH",
"256 162 OFFCURVE",
"300 130 OFFCURVE",
"357 130 CURVE SMOOTH",
"391 130 OFFCURVE",
"429 141 OFFCURVE",
"462 157 CURVE"
);
},
{
closed = 1;
nodes = (
"400 314 LINE",
"412 263 OFFCURVE",
"426 189 OFFCURVE",
"426 130 CURVE SMOOTH",
"426 84 OFFCURVE",
"375 54 OFFCURVE",
"303 54 CURVE SMOOTH",
"212 54 OFFCURVE",
"155 101 OFFCURVE",
"155 170 CURVE SMOOTH",
"155 215 OFFCURVE",
"183 266 OFFCURVE",
"244 339 CURVE",
"202 370 LINE",
"139 302 OFFCURVE",
"90 233 OFFCURVE",
"90 156 CURVE SMOOTH",
"90 56 OFFCURVE",
"166 -10 OFFCURVE",
"291 -10 CURVE SMOOTH",
"414 -10 OFFCURVE",
"482 54 OFFCURVE",
"482 146 CURVE SMOOTH",
"482 205 OFFCURVE",
"472 268 OFFCURVE",
"461 327 CURVE"
);
}
);
width = 685;
},
{
anchors = (
{
name = b.tasubscriptorya;
position = "{234, 0}";
},
{
name = b.uvowelsignorya;
position = "{388, 0}";
},
{
name = t.candrabinduorya;
position = "{535, 657}";
},
{
name = t.ivowelsignorya;
position = "{370, 657}";
}
);
components = (
{
name = _part.i;
transform = "{1, 0, 0, 1, -5, 0}";
}
);
layerId = "D0F0E2C3-3B53-4823-9924-A34C50245C28";
paths = (
{
closed = 1;
nodes = (
"442 211 LINE",
"430 209 OFFCURVE",
"419 208 OFFCURVE",
"408 208 CURVE SMOOTH",
"347 208 OFFCURVE",
"322 223 OFFCURVE",
"322 245 CURVE SMOOTH",
"322 257 OFFCURVE",
"329 271 OFFCURVE",
"344 300 CURVE",
"282 331 LINE",
"259 296 OFFCURVE",
"237 255 OFFCURVE",
"237 216 CURVE SMOOTH",
"237 162 OFFCURVE",
"280 130 OFFCURVE",
"339 130 CURVE SMOOTH",
"370 130 OFFCURVE",
"406 139 OFFCURVE",
"440 157 CURVE"
);
},
{
closed = 1;
nodes = (
"378 305 LINE",
"392 257 OFFCURVE",
"402 195 OFFCURVE",
"402 151 CURVE SMOOTH",
"402 117 OFFCURVE",
"363 99 OFFCURVE",
"306 99 CURVE SMOOTH",
"215 99 OFFCURVE",
"161 137 OFFCURVE",
"161 189 CURVE SMOOTH",
"161 227 OFFCURVE",
"188 271 OFFCURVE",
"242 331 CURVE",
"192 380 LINE",
"113 306 OFFCURVE",
"60 234 OFFCURVE",
"60 153 CURVE SMOOTH",
"60 57 OFFCURVE",
"142 -10 OFFCURVE",
"280 -10 CURVE SMOOTH",
"416 -10 OFFCURVE",
"495 59 OFFCURVE",
"495 165 CURVE SMOOTH",
"495 220 OFFCURVE",
"489 272 OFFCURVE",
"476 327 CURVE"
);
}
);
width = 739;
}
);
leftMetricsKey = iorya;
rightKerningGroup = iorya;
rightMetricsKey = iorya;
unicode = 0B2D;
},
{
glyphname = maorya;
lastChange = "2021-07-28 13:40:23 +0000";
layers = (
{
anchors = (
{
name = b.tasubscriptorya;
position = "{358, 0}";
},
{
name = b.uvowelsignorya;
position = "{583, 0}";
},
{
name = t.ivowelsignorya;
position = "{320, 657}";
}
);
components = (
{
name = _part.a;
}
);
layerId = "6C4C2116-C5E5-460E-80F0-69F45ED98D3F";
paths = (
{
closed = 1;
nodes = (
"106 13 OFFCURVE",
"137 -7 OFFCURVE",
"166 -7 CURVE SMOOTH",
"197 -7 OFFCURVE",
"222 17 OFFCURVE",
"222 50 CURVE SMOOTH",
"222 84 OFFCURVE",
"198 110 OFFCURVE",
"159 116 CURVE",
"173 97 LINE",
"199 185 OFFCURVE",
"258 258 OFFCURVE",
"390 304 CURVE",
"364 363 LINE",
"194 297 OFFCURVE",
"106 171 OFFCURVE",
"106 67 CURVE SMOOTH"
);
},
{
closed = 1;
nodes = (
"32 337 OFFCURVE",
"85 250 OFFCURVE",
"175 196 CURVE",
"233 270 LINE",
"154 296 OFFCURVE",
"100 362 OFFCURVE",
"100 443 CURVE SMOOTH",
"100 527 OFFCURVE",
"164 601 OFFCURVE",
"289 601 CURVE SMOOTH",
"404 601 OFFCURVE",
"508 535 OFFCURVE",
"536 419 CURVE",
"571 470 LINE",
"550 585 OFFCURVE",
"435 667 OFFCURVE",
"296 667 CURVE SMOOTH",
"135 667 OFFCURVE",
"32 554 OFFCURVE",
"32 431 CURVE SMOOTH"
);
}
);
width = 644;
},
{
anchors = (
{
name = b.tasubscriptorya;
position = "{416, 0}";
},
{
name = b.uvowelsignorya;
position = "{645, 0}";
},
{
name = t.ivowelsignorya;
position = "{349, 657}";
}
);
components = (
{
name = _part.a;
transform = "{1, 0, 0, 1, -8, 0}";
}
);
layerId = "D0F0E2C3-3B53-4823-9924-A34C50245C28";
paths = (
{
closed = 1;
nodes = (
"129 28 OFFCURVE",
"163 -10 OFFCURVE",
"218 -10 CURVE SMOOTH",
"270 -10 OFFCURVE",
"312 30 OFFCURVE",
"312 86 CURVE SMOOTH",
"312 135 OFFCURVE",
"275 171 OFFCURVE",
"232 172 CURVE",
"248 148 LINE",
"247 194 OFFCURVE",
"296 254 OFFCURVE",
"417 290 CURVE",
"386 362 LINE",
"210 310 OFFCURVE",
"129 195 OFFCURVE",
"129 86 CURVE SMOOTH"
);
},
{
closed = 1;
nodes = (
"27 312 OFFCURVE",
"70 239 OFFCURVE",
"157 178 CURVE",
"247 292 LINE",
"174 313 OFFCURVE",
"127 366 OFFCURVE",
"127 424 CURVE SMOOTH",
"127 497 OFFCURVE",
"199 547 OFFCURVE",
"302 547 CURVE SMOOTH",
"420 547 OFFCURVE",
"517 481 OFFCURVE",
"561 379 CURVE",
"608 500 LINE",
"561 598 OFFCURVE",
"448 667 OFFCURVE",
"320 667 CURVE SMOOTH",
"154 667 OFFCURVE",
"27 552 OFFCURVE",
"27 401 CURVE SMOOTH"
);
}
);
width = 702;
}
);
leftMetricsKey = iorya;
rightMetricsKey = aorya;
unicode = 0B2E;
},
{
glyphname = vaorya;
lastChange = "2021-07-22 07:46:18 +0000";
layers = (
{
anchors = (
{
name = b.tasubscriptorya;
position = "{327, 0}";
},
{
name = b.uvowelsignorya;
position = "{443, 0}";
},
{
name = t.candrabinduorya;
position = "{490, 657}";
},
{
name = t.ivowelsignorya;
position = "{313, 657}";
}
);
components = (
{
name = _part.swash5;
transform = "{1, 0, 0, 1, -4, 0}";
}
);
layerId = "6C4C2116-C5E5-460E-80F0-69F45ED98D3F";
paths = (
{
closed = 1;
nodes = (
"395 261 LINE",
"395 130 LINE",
"376 130 LINE",
"376 0 LINE",
"383 -7 LINE",
"443 7 LINE",
"443 187 LINE SMOOTH",
"443 336 OFFCURVE",
"360 372 OFFCURVE",
"302 372 CURVE"
);
},
{
closed = 1;
nodes = (
"149 129 OFFCURVE",
"209 63 OFFCURVE",
"288 63 CURVE SMOOTH",
"372 63 OFFCURVE",
"416 134 OFFCURVE",
"436 223 CURVE",
"436 309 OFFCURVE",
"379 372 OFFCURVE",
"302 372 CURVE SMOOTH",
"216 372 OFFCURVE",
"149 302 OFFCURVE",
"149 214 CURVE SMOOTH"
);
},
{
closed = 1;
nodes = (
"208 278 OFFCURVE",
"232 308 OFFCURVE",
"280 308 CURVE SMOOTH",
"336 308 OFFCURVE",
"383 255 OFFCURVE",
"383 198 CURVE SMOOTH",
"383 156 OFFCURVE",
"357 125 OFFCURVE",
"312 125 CURVE SMOOTH",
"263 125 OFFCURVE",
"208 168 OFFCURVE",
"208 239 CURVE SMOOTH"
);
},
{
closed = 1;
nodes = (
"267 201 OFFCURVE",
"283 187 OFFCURVE",
"298 170 CURVE",
"342 218 LINE",
"326 235 OFFCURVE",
"311 249 OFFCURVE",
"295 262 CURVE",
"250 214 LINE"
);
}
);
width = 613;
},
{
anchors = (
{
name = b.tasubscriptorya;
position = "{326, 0}";
},
{
name = b.uvowelsignorya;
position = "{466, 0}";
},
{
name = t.candrabinduorya;
position = "{520, 657}";
},
{
name = t.ivowelsignorya;
position = "{326, 657}";
}
);
components = (
{
name = _part.swash5;
transform = "{1, 0, 0, 1, -5, 0}";
}
);
layerId = "D0F0E2C3-3B53-4823-9924-A34C50245C28";
paths = (
{
closed = 1;
nodes = (
"399 250 LINE",
"399 119 LINE",
"346 119 LINE",
"346 0 LINE",
"360 -9 LINE",
"466 20 LINE",
"466 162 LINE SMOOTH",
"466 326 OFFCURVE",
"371 372 OFFCURVE",
"305 372 CURVE"
);
},
{
closed = 1;
nodes = (
"139 136 OFFCURVE",
"201 67 OFFCURVE",
"287 67 CURVE SMOOTH",
"366 67 OFFCURVE",
"446 126 OFFCURVE",
"454 225 CURVE",
"454 306 OFFCURVE",
"383 372 OFFCURVE",
"300 372 CURVE SMOOTH",
"212 372 OFFCURVE",
"152 315 OFFCURVE",
"145 221 CURVE SMOOTH"
);
},
{
closed = 1;
nodes = (
"221 275 OFFCURVE",
"244 290 OFFCURVE",
"275 290 CURVE SMOOTH",
"333 290 OFFCURVE",
"378 247 OFFCURVE",
"378 198 CURVE SMOOTH",
"378 167 OFFCURVE",
"359 148 OFFCURVE",
"325 148 CURVE SMOOTH",
"269 148 OFFCURVE",
"221 190 OFFCURVE",
"221 237 CURVE SMOOTH"
);
},
{
closed = 1;
nodes = (
"271 201 OFFCURVE",
"287 187 OFFCURVE",
"302 170 CURVE",
"346 218 LINE",
"330 235 OFFCURVE",
"315 249 OFFCURVE",
"299 262 CURVE",
"254 214 LINE"
);
}
);
width = 665;
}
);
leftMetricsKey = iorya;
rightKerningGroup = caorya;
rightMetricsKey = caorya;
unicode = 0B35;
},
{
glyphname = shaorya;
lastChange = "2021-07-29 12:33:41 +0000";
layers = (
{
anchors = (
{
name = b.tasubscriptorya;
position = "{373, 0}";
},
{
name = b.uvowelsignorya;
position = "{598, 0}";
},
{
name = t.candrabinduorya;
position = "{531, 657}";
},
{
name = t.ivowelsignorya;
position = "{330, 657}";
}
);
components = (
{
name = _part.vo;
transform = "{1, 0, 0, 1, 51, 0}";
},
{
name = aavowelsignorya;
transform = "{1, 0, 0, 1, 461, 0}";
}
);
layerId = "6C4C2116-C5E5-460E-80F0-69F45ED98D3F";
paths = (
{
closed = 1;
nodes = (
"129 493 OFFCURVE",
"158 461 OFFCURVE",
"191 439 CURVE",
"338 439 LINE",
"338 449 LINE",
"225 479 OFFCURVE",
"197 518 OFFCURVE",
"197 540 CURVE SMOOTH",
"197 574 OFFCURVE",
"243 601 OFFCURVE",
"315 601 CURVE SMOOTH",
"412 601 OFFCURVE",
"522 545 OFFCURVE",
"563 420 CURVE",
"589 493 LINE",
"555 598 OFFCURVE",
"449 667 OFFCURVE",
"324 667 CURVE SMOOTH",
"208 667 OFFCURVE",
"129 600 OFFCURVE",
"129 537 CURVE SMOOTH"
);
},
{
closed = 1;
nodes = (
"32 270 OFFCURVE",
"60 218 OFFCURVE",
"111 180 CURVE",
"150 263 LINE",
"118 280 OFFCURVE",
"100 306 OFFCURVE",
"100 339 CURVE SMOOTH",
"100 393 OFFCURVE",
"145 421 OFFCURVE",
"199 421 CURVE SMOOTH",
"236 421 OFFCURVE",
"272 408 OFFCURVE",
"296 394 CURVE",
"338 439 LINE",
"284 452 OFFCURVE",
"250 475 OFFCURVE",
"210 475 CURVE SMOOTH",
"99 475 OFFCURVE",
"32 409 OFFCURVE",
"32 322 CURVE SMOOTH"
);
}
);
width = 659;
},
{
anchors = (
{
name = b.tasubscriptorya;
position = "{350, 0}";
},
{
name = b.uvowelsignorya;
position = "{663, 0}";
},
{
name = t.candrabinduorya;
position = "{544, 657}";
},
{
name = t.ivowelsignorya;
position = "{357, 657}";
}
);
components = (
{
name = _part.vo;
transform = "{1, 0, 0, 1, 3, 0}";
},
{
name = aavowelsignorya;
transform = "{1, 0, 0, 1, 482, 0}";
}
);
layerId = "D0F0E2C3-3B53-4823-9924-A34C50245C28";
paths = (
{
closed = 1;
nodes = (
"135 460 OFFCURVE",
"183 424 OFFCURVE",
"221 415 CURVE",
"391 444 LINE",
"391 454 LINE",
"279 471 OFFCURVE",
"229 494 OFFCURVE",
"229 515 CURVE SMOOTH",
"229 537 OFFCURVE",
"278 550 OFFCURVE",
"327 550 CURVE SMOOTH",
"424 550 OFFCURVE",
"527 493 OFFCURVE",
"547 399 CURVE",
"604 520 LINE",
"547 625 OFFCURVE",
"451 667 OFFCURVE",
"355 667 CURVE SMOOTH",
"224 667 OFFCURVE",
"135 596 OFFCURVE",
"135 513 CURVE SMOOTH"
);
},
{
closed = 1;
nodes = (
"27 277 OFFCURVE",
"54 214 OFFCURVE",
"120 159 CURVE",
"209 291 LINE",
"155 302 OFFCURVE",
"125 330 OFFCURVE",
"125 356 CURVE SMOOTH",
"125 382 OFFCURVE",
"150 392 OFFCURVE",
"189 392 CURVE SMOOTH",
"223 392 OFFCURVE",
"284 380 OFFCURVE",
"327 366 CURVE",
"391 444 LINE",
"340 456 OFFCURVE",
"292 471 OFFCURVE",
"196 471 CURVE SMOOTH",
"107 471 OFFCURVE",
"27 416 OFFCURVE",
"27 330 CURVE SMOOTH"
);
}
);
width = 720;
}
);
leftMetricsKey = iorya;
rightMetricsKey = aorya;
unicode = 0B36;
},
{
glyphname = ssaorya;
lastChange = "2021-07-22 07:42:59 +0000";
layers = (
{
anchors = (
{
name = b.tasubscriptorya;
position = "{352, 0}";
},
{
name = b.uvowelsignorya;
position = "{578, 0}";
},
{
name = t.ivowelsignorya;
position = "{316, 657}";
}
);
components = (
{
name = paorya;
}
);
layerId = "6C4C2116-C5E5-460E-80F0-69F45ED98D3F";
paths = (
{
closed = 1;
nodes = (
"457 80 LINE",
"488 116 LINE",
"167 592 LINE",
"136 556 LINE"
);
}
);
width = 638;
},
{
anchors = (
{
name = b.tasubscriptorya;
position = "{418, 0}";
},
{
name = b.uvowelsignorya;
position = "{651, 0}";
},
{
name = t.ivowelsignorya;
position = "{346, 657}";
}
);
components = (
{
name = paorya;
}
);
layerId = "D0F0E2C3-3B53-4823-9924-A34C50245C28";
paths = (
{
closed = 1;
nodes = (
"465 96 LINE",
"521 148 LINE",
"228 584 LINE",
"172 532 LINE"
);
}
);
width = 701;
}
);
leftMetricsKey = iorya;
rightMetricsKey = aorya;
unicode = 0B37;
},
{
glyphname = saorya;
lastChange = "2021-07-26 15:37:40 +0000";
layers = (
{
anchors = (
{
name = b.tasubscriptorya;
position = "{360, 0}";
},
{
name = b.uvowelsignorya;
position = "{585, 0}";
},
{
name = t.ivowelsignorya;
position = "{324, 657}";
}
);
components = (
{
name = _part.a;
transform = "{1, 0, 0, 1, 2, 0}";
},
{
name = _part.g;
transform = "{1, 0, 0, 1, -2, 0}";
}
);
layerId = "6C4C2116-C5E5-460E-80F0-69F45ED98D3F";
paths = (
{
closed = 1;
nodes = (
"92 98 LINE",
"239 80 OFFCURVE",
"380 48 OFFCURVE",
"525 -7 CURVE",
"563 64 LINE",
"408 113 OFFCURVE",
"260 145 OFFCURVE",
"114 158 CURVE",
"150 136 LINE",
"187 209 OFFCURVE",
"244 285 OFFCURVE",
"304 351 CURVE",
"266 392 LINE",
"193 314 OFFCURVE",
"137 247 OFFCURVE",
"72 129 CURVE"
);
}
);
width = 646;
},
{
anchors = (
{
name = b.tasubscriptorya;
position = "{420, 0}";
},
{
name = b.uvowelsignorya;
position = "{650, 0}";
},
{
name = t.ivowelsignorya;
position = "{355, 657}";
}
);
components = (
{
name = _part.a;
transform = "{1, 0, 0, 1, -4, 0}";
},
{
name = _part.g;
transform = "{1, 0, 0, 1, -5, 0}";
}
);
layerId = "D0F0E2C3-3B53-4823-9924-A34C50245C28";
paths = (
{
closed = 1;
nodes = (
"97 87 LINE",
"244 64 OFFCURVE",
"392 32 OFFCURVE",
"537 -7 CURVE",
"569 120 LINE",
"433 148 OFFCURVE",
"295 173 OFFCURVE",
"153 189 CURVE",
"201 164 LINE",
"214 196 OFFCURVE",
"248 250 OFFCURVE",
"335 337 CURVE",
"288 386 LINE",
"175 284 OFFCURVE",
"108 188 OFFCURVE",
"79 126 CURVE"
);
}
);
width = 706;
}
);
leftMetricsKey = iorya;
rightMetricsKey = aorya;
unicode = 0B38;
},
{
glyphname = haorya;
lastChange = "2021-07-22 07:46:18 +0000";
layers = (
{
anchors = (
{
name = b.tasubscriptorya;
position = "{258, 0}";
},
{
name = b.uvowelsignorya;
position = "{425, -1}";
},
{
name = t.candrabinduorya;
position = "{480, 657}";
},
{
name = t.ivowelsignorya;
position = "{294, 657}";
}
);
components = (
{
name = _part.swash5;
transform = "{1, 0, 0, 1, -4, 0}";
}
);
layerId = "6C4C2116-C5E5-460E-80F0-69F45ED98D3F";
paths = (
{
closed = 1;
nodes = (
"178 170 LINE",
"131 137 OFFCURVE",
"109 113 OFFCURVE",
"70 46 CURVE",
"90 15 LINE",
"225 2 OFFCURVE",
"355 -21 OFFCURVE",
"479 -52 CURVE",
"517 14 LINE",
"387 40 OFFCURVE",
"253 62 OFFCURVE",
"121 71 CURVE",
"131 47 LINE",
"151 82 OFFCURVE",
"175 113 OFFCURVE",
"202 143 CURVE"
);
},
{
closed = 1;
nodes = (
"386 86 LINE",
"446 100 LINE",
"446 363 LINE",
"439 370 LINE",
"379 355 LINE",
"379 93 LINE"
);
},
{
closed = 1;
nodes = (
"420 240 LINE",
"398 220 OFFCURVE",
"347 185 OFFCURVE",
"289 185 CURVE SMOOTH",
"239 185 OFFCURVE",
"206 214 OFFCURVE",
"206 260 CURVE SMOOTH",
"206 299 OFFCURVE",
"235 335 OFFCURVE",
"288 379 CURVE",
"249 417 LINE",
"191 368 OFFCURVE",
"142 315 OFFCURVE",
"142 245 CURVE SMOOTH",
"142 176 OFFCURVE",
"194 123 OFFCURVE",
"272 123 CURVE SMOOTH",
"339 123 OFFCURVE",
"394 156 OFFCURVE",
"427 197 CURVE"
);
}
);
width = 613;
},
{
anchors = (
{
name = b.tasubscriptorya;
position = "{293, 0}";
},
{
name = b.uvowelsignorya;
position = "{463, 6}";
},
{
name = t.candrabinduorya;
position = "{529, 657}";
},
{
name = t.ivowelsignorya;
position = "{330, 657}";
}
);
components = (
{
name = _part.swash5;
transform = "{1, 0, 0, 1, -5, 0}";
}
);
layerId = "D0F0E2C3-3B53-4823-9924-A34C50245C28";
paths = (
{
closed = 1;
nodes = (
"189 181 LINE",
"135 144 OFFCURVE",
"110 117 OFFCURVE",
"65 42 CURVE",
"83 9 LINE",
"232 -5 OFFCURVE",
"375 -29 OFFCURVE",
"511 -63 CURVE",
"582 39 LINE",
"451 63 OFFCURVE",
"317 84 OFFCURVE",
"184 92 CURVE",
"175 64 LINE",
"191 96 OFFCURVE",
"210 125 OFFCURVE",
"231 152 CURVE"
);
},
{
closed = 1;
nodes = (
"385 107 LINE",
"498 137 LINE",
"498 365 LINE",
"491 372 LINE",
"378 342 LINE",
"378 114 LINE"
);
},
{
closed = 1;
nodes = (
"415 266 LINE",
"398 240 OFFCURVE",
"350 219 OFFCURVE",
"313 219 CURVE SMOOTH",
"249 219 OFFCURVE",
"230 248 OFFCURVE",
"230 274 CURVE SMOOTH",
"230 294 OFFCURVE",
"244 323 OFFCURVE",
"300 364 CURVE",
"254 412 LINE",
"184 368 OFFCURVE",
"129 307 OFFCURVE",
"129 239 CURVE SMOOTH",
"129 182 OFFCURVE",
"173 123 OFFCURVE",
"265 123 CURVE SMOOTH",
"358 123 OFFCURVE",
"416 177 OFFCURVE",
"431 237 CURVE"
);
}
);
width = 665;
}
);
leftMetricsKey = iorya;
rightMetricsKey = caorya;
unicode = 0B39;
},
{
glyphname = waorya;
lastChange = "2021-07-22 07:42:59 +0000";
layers = (
{
anchors = (
{
name = b.tasubscriptorya;
position = "{274, 0}";
},
{
name = b.uvowelsignorya;
position = "{468, 0}";
},
{
name = t.candrabinduorya;
position = "{421, 657}";
},
{
name = t.ivowelsignorya;
position = "{274, 657}";
}
);
layerId = "6C4C2116-C5E5-460E-80F0-69F45ED98D3F";
paths = (
{
closed = 1;
nodes = (
"408 -7 LINE",
"468 7 LINE",
"468 250 LINE",
"461 257 LINE",
"401 242 LINE",
"401 0 LINE"
);
},
{
closed = 1;
nodes = (
"32 284 OFFCURVE",
"144 191 OFFCURVE",
"305 191 CURVE SMOOTH",
"435 191 OFFCURVE",
"526 249 OFFCURVE",
"526 331 CURVE SMOOTH",
"526 424 OFFCURVE",
"429 440 OFFCURVE",
"335 445 CURVE",
"330 426 LINE",
"376 442 OFFCURVE",
"413 459 OFFCURVE",
"441 477 CURVE SMOOTH",
"482 503 OFFCURVE",
"498 531 OFFCURVE",
"498 567 CURVE SMOOTH",
"498 624 OFFCURVE",
"439 667 OFFCURVE",
"358 667 CURVE SMOOTH",
"278 667 OFFCURVE",
"212 624 OFFCURVE",
"212 566 CURVE SMOOTH",
"212 552 OFFCURVE",
"215 534 OFFCURVE",
"221 520 CURVE",
"290 533 LINE",
"285 546 OFFCURVE",
"282 556 OFFCURVE",
"282 566 CURVE SMOOTH",
"282 593 OFFCURVE",
"310 607 OFFCURVE",
"349 607 CURVE SMOOTH",
"396 607 OFFCURVE",
"430 583 OFFCURVE",
"430 558 CURVE SMOOTH",
"430 520 OFFCURVE",
"371 496 OFFCURVE",
"338 483 CURVE SMOOTH",
"312 473 OFFCURVE",
"291 465 OFFCURVE",
"271 458 CURVE",
"255 414 LINE",
"263 396 LINE",
"292 395 OFFCURVE",
"332 392 OFFCURVE",
"366 387 CURVE SMOOTH",
"427 378 OFFCURVE",
"460 360 OFFCURVE",
"460 326 CURVE SMOOTH",
"460 287 OFFCURVE",
"397 259 OFFCURVE",
"310 259 CURVE SMOOTH",
"181 259 OFFCURVE",
"99 324 OFFCURVE",
"99 431 CURVE SMOOTH",
"99 499 OFFCURVE",
"122 559 OFFCURVE",
"193 657 CURVE",
"129 679 LINE",
"63 575 OFFCURVE",
"32 490 OFFCURVE",
"32 416 CURVE SMOOTH"
);
},
{
closed = 1;
nodes = (
"118 81 OFFCURVE",
"172 30 OFFCURVE",
"254 30 CURVE SMOOTH",
"326 30 OFFCURVE",
"390 65 OFFCURVE",
"429 108 CURVE",
"422 155 LINE",
"397 134 OFFCURVE",
"334 96 OFFCURVE",
"269 96 CURVE SMOOTH",
"218 96 OFFCURVE",
"184 123 OFFCURVE",
"184 162 CURVE SMOOTH",
"184 193 OFFCURVE",
"202 218 OFFCURVE",
"225 245 CURVE",
"175 270 LINE",
"144 235 OFFCURVE",
"118 195 OFFCURVE",
"118 150 CURVE SMOOTH"
);
}
);
width = 558;
},
{
anchors = (
{
name = b.tasubscriptorya;
position = "{304, 0}";
},
{
name = b.uvowelsignorya;
position = "{536, 0}";
},
{
name = t.candrabinduorya;
position = "{481, 657}";
},
{
name = t.ivowelsignorya;
position = "{304, 657}";
}
);
layerId = "D0F0E2C3-3B53-4823-9924-A34C50245C28";
paths = (
{
closed = 1;
nodes = (
"423 -10 LINE",
"536 20 LINE",
"536 253 LINE",
"529 260 LINE",
"416 230 LINE",
"416 -3 LINE"
);
},
{
closed = 1;
nodes = (
"27 276 OFFCURVE",
"148 189 OFFCURVE",
"332 189 CURVE SMOOTH",
"498 189 OFFCURVE",
"590 261 OFFCURVE",
"590 345 CURVE SMOOTH",
"590 420 OFFCURVE",
"500 446 OFFCURVE",
"425 450 CURVE",
"420 427 LINE",
"451 440 OFFCURVE",
"482 454 OFFCURVE",
"508 472 CURVE SMOOTH",
"539 493 OFFCURVE",
"561 520 OFFCURVE",
"561 556 CURVE SMOOTH",
"561 619 OFFCURVE",
"493 666 OFFCURVE",
"404 666 CURVE SMOOTH",
"330 666 OFFCURVE",
"238 617 OFFCURVE",
"238 546 CURVE SMOOTH",
"238 533 OFFCURVE",
"242 515 OFFCURVE",
"254 496 CURVE",
"359 526 LINE",
"351 538 OFFCURVE",
"349 548 OFFCURVE",
"349 555 CURVE SMOOTH",
"349 573 OFFCURVE",
"367 578 OFFCURVE",
"387 578 CURVE SMOOTH",
"425 578 OFFCURVE",
"444 557 OFFCURVE",
"444 537 CURVE SMOOTH",
"444 517 OFFCURVE",
"415 498 OFFCURVE",
"383 484 CURVE SMOOTH",
"358 473 OFFCURVE",
"331 465 OFFCURVE",
"312 461 CURVE",
"280 386 LINE",
"288 379 LINE",
"320 379 OFFCURVE",
"352 376 OFFCURVE",
"380 372 CURVE SMOOTH",
"440 363 OFFCURVE",
"484 349 OFFCURVE",
"484 331 CURVE SMOOTH",
"484 303 OFFCURVE",
"412 291 OFFCURVE",
"353 291 CURVE SMOOTH",
"201 291 OFFCURVE",
"142 374 OFFCURVE",
"142 454 CURVE SMOOTH",
"142 507 OFFCURVE",
"168 562 OFFCURVE",
"232 639 CURVE",
"135 672 LINE",
"86 597 OFFCURVE",
"27 504 OFFCURVE",
"27 416 CURVE SMOOTH"
);
},
{
closed = 1;
nodes = (
"113 81 OFFCURVE",
"153 21 OFFCURVE",
"254 21 CURVE SMOOTH",
"347 21 OFFCURVE",
"424 71 OFFCURVE",
"451 125 CURVE",
"429 164 LINE",
"395 129 OFFCURVE",
"338 118 OFFCURVE",
"297 118 CURVE SMOOTH",
"233 118 OFFCURVE",
"214 147 OFFCURVE",
"214 173 CURVE SMOOTH",
"214 199 OFFCURVE",
"228 235 OFFCURVE",
"284 278 CURVE",
"248 296 LINE",
"168 267 OFFCURVE",
"113 206 OFFCURVE",
"113 138 CURVE SMOOTH"
);
}
);
width = 621;
}
);
leftMetricsKey = iorya;
unicode = 0B71;
},
{
glyphname = yyaorya;
lastChange = "2021-07-27 11:24:52 +0000";
layers = (
{
anchors = (
{
name = b.tasubscriptorya;
position = "{279, 0}";
},
{
name = b.uvowelsignorya;
position = "{629, 0}";
},
{
name = t.candrabinduorya;
position = "{576, 657}";
},
{
name = t.ivowelsignorya;
position = "{366, 657}";
}
);
layerId = "6C4C2116-C5E5-460E-80F0-69F45ED98D3F";
paths = (
{
closed = 1;
nodes = (
"165 66 OFFCURVE",
"222 -10 OFFCURVE",
"331 -10 CURVE SMOOTH",
"401 -10 OFFCURVE",
"464 15 OFFCURVE",
"546 118 CURVE SMOOTH",
"571 150 OFFCURVE",
"589 168 OFFCURVE",
"612 168 CURVE SMOOTH",
"633 168 OFFCURVE",
"647 155 OFFCURVE",
"647 137 CURVE SMOOTH",
"647 114 OFFCURVE",
"625 87 OFFCURVE",
"573 35 CURVE",
"573 7 LINE",
"701 -111 LINE",
"715 -111 LINE",
"760 -64 LINE",
"619 43 LINE",
"614 7 LINE",
"667 61 OFFCURVE",
"706 99 OFFCURVE",
"706 148 CURVE SMOOTH",
"706 195 OFFCURVE",
"670 232 OFFCURVE",
"621 232 CURVE SMOOTH",
"588 232 OFFCURVE",
"559 223 OFFCURVE",
"509 161 CURVE SMOOTH",
"442 78 OFFCURVE",
"395 55 OFFCURVE",
"342 55 CURVE SMOOTH",
"271 55 OFFCURVE",
"234 104 OFFCURVE",
"234 164 CURVE SMOOTH",
"234 214 OFFCURVE",
"264 268 OFFCURVE",
"342 336 CURVE",
"304 376 LINE",
"217 304 OFFCURVE",
"165 224 OFFCURVE",
"165 149 CURVE SMOOTH"
);
},
{
closed = 1;
nodes = (
"629 174 LINE",
"629 657 LINE",
"622 664 LINE",
"562 650 LINE",
"562 174 LINE"
);
},
{
closed = 1;
nodes = (
"13 59 OFFCURVE",
"43 39 OFFCURVE",
"70 39 CURVE SMOOTH",
"100 39 OFFCURVE",
"126 65 OFFCURVE",
"126 98 CURVE SMOOTH",
"126 126 OFFCURVE",
"108 145 OFFCURVE",
"78 155 CURVE",
"83 142 LINE",
"112 199 OFFCURVE",
"179 252 OFFCURVE",
"264 282 CURVE",
"253 316 LINE",
"150 294 OFFCURVE",
"13 182 OFFCURVE",
"13 104 CURVE SMOOTH"
);
},
{
closed = 1;
nodes = (
"81 365 OFFCURVE",
"119 287 OFFCURVE",
"212 243 CURVE",
"253 317 LINE",
"179 341 OFFCURVE",
"149 395 OFFCURVE",
"149 451 CURVE SMOOTH",
"149 532 OFFCURVE",
"212 601 OFFCURVE",
"333 601 CURVE SMOOTH",
"451 601 OFFCURVE",
"557 535 OFFCURVE",
"585 419 CURVE",
"620 470 LINE",
"599 585 OFFCURVE",
"483 667 OFFCURVE",
"342 667 CURVE SMOOTH",
"183 667 OFFCURVE",
"81 561 OFFCURVE",
"81 439 CURVE SMOOTH"
);
}
);
width = 750;
},
{
anchors = (
{
name = b.tasubscriptorya;
position = "{309, 0}";
},
{
name = b.uvowelsignorya;
position = "{608, 0}";
},
{
name = t.candrabinduorya;
position = "{569, 657}";
},
{
name = t.ivowelsignorya;
position = "{391, 657}";
}
);
layerId = "D0F0E2C3-3B53-4823-9924-A34C50245C28";
paths = (
{
closed = 1;
nodes = (
"211 55 OFFCURVE",
"283 -10 OFFCURVE",
"374 -10 CURVE SMOOTH",
"468 -10 OFFCURVE",
"520 40 OFFCURVE",
"573 100 CURVE SMOOTH",
"606 137 OFFCURVE",
"624 154 OFFCURVE",
"648 153 CURVE SMOOTH",
"668 152 OFFCURVE",
"675 138 OFFCURVE",
"675 123 CURVE SMOOTH",
"675 100 OFFCURVE",
"656 75 OFFCURVE",
"601 38 CURVE",
"601 6 LINE",
"722 -135 LINE",
"733 -135 LINE",
"827 -51 LINE",
"686 77 LINE",
"686 23 LINE",
"752 63 OFFCURVE",
"784 111 OFFCURVE",
"784 160 CURVE SMOOTH",
"784 208 OFFCURVE",
"748 253 OFFCURVE",
"684 254 CURVE SMOOTH",
"642 255 OFFCURVE",
"607 253 OFFCURVE",
"552 194 CURVE SMOOTH",
"510 149 OFFCURVE",
"459 111 OFFCURVE",
"401 111 CURVE SMOOTH",
"338 111 OFFCURVE",
"306 147 OFFCURVE",
"306 183 CURVE SMOOTH",
"306 231 OFFCURVE",
"343 264 OFFCURVE",
"418 327 CURVE",
"371 376 LINE",
"276 305 OFFCURVE",
"211 231 OFFCURVE",
"211 147 CURVE SMOOTH"
);
},
{
closed = 1;
nodes = (
"689 198 LINE",
"689 663 LINE",
"682 670 LINE",
"569 643 LINE",
"569 198 LINE"
);
},
{
closed = 1;
nodes = (
"10 59 OFFCURVE",
"45 20 OFFCURVE",
"94 20 CURVE SMOOTH",
"143 20 OFFCURVE",
"182 59 OFFCURVE",
"182 109 CURVE SMOOTH",
"182 155 OFFCURVE",
"143 201 OFFCURVE",
"104 202 CURVE",
"128 178 LINE",
"127 198 OFFCURVE",
"197 227 OFFCURVE",
"312 241 CURVE",
"279 297 LINE",
"95 274 OFFCURVE",
"10 189 OFFCURVE",
"10 111 CURVE SMOOTH"
);
},
{
closed = 1;
nodes = (
"71 330 OFFCURVE",
"103 272 OFFCURVE",
"175 219 CURVE",
"295 297 LINE",
"220 318 OFFCURVE",
"171 370 OFFCURVE",
"171 428 CURVE SMOOTH",
"171 499 OFFCURVE",
"243 547 OFFCURVE",
"346 547 CURVE SMOOTH",
"464 547 OFFCURVE",
"561 481 OFFCURVE",
"605 379 CURVE",
"652 500 LINE",
"605 598 OFFCURVE",
"492 667 OFFCURVE",
"364 667 CURVE SMOOTH",
"198 667 OFFCURVE",
"71 554 OFFCURVE",
"71 404 CURVE SMOOTH"
);
}
);
width = 805;
}
);
leftKerningGroup = yaorya;
rightKerningGroup = yyaorya;
unicode = 0B5F;
},
{
glyphname = khakaorya;
lastChange = "2021-07-31 19:18:01 +0000";
layers = (
{
anchors = (
{
name = b.rrvocalicvowelsignleftorya;
position = "{654, -49}";
},
{
name = b.tasubscriptorya;
position = "{367, 0}";
},
{
name = b.uvowelsignorya;
position = "{654, 0}";
},
{
name = m.rrvocalicvowelsignleftorya;
position = "{649, -49}";
},
{
name = t.candrabinduorya;
position = "{525, 657}";
},
{
name = t.ivowelsignorya;
position = "{324, 657}";
}
);
components = (
{
name = _part.vo;
transform = "{1, 0, 0, 1, 46, 0}";
},
{
name = kasubscriptorya;
transform = "{1, 0, 0, 1, 645, 89}";
}
);
layerId = "6C4C2116-C5E5-460E-80F0-69F45ED98D3F";
paths = (
{
closed = 1;
nodes = (
"285 430 OFFCURVE",
"333 382 OFFCURVE",
"405 382 CURVE SMOOTH",
"492 382 OFFCURVE",
"551 453 OFFCURVE",
"562 564 CURVE",
"527 610 LINE",
"527 510 OFFCURVE",
"489 447 OFFCURVE",
"421 447 CURVE SMOOTH",
"381 447 OFFCURVE",
"352 470 OFFCURVE",
"352 510 CURVE SMOOTH",
"352 546 OFFCURVE",
"376 591 OFFCURVE",
"420 635 CURVE",
"420 649 LINE",
"359 628 LINE",
"307 579 OFFCURVE",
"285 539 OFFCURVE",
"285 495 CURVE SMOOTH"
);
},
{
closed = 1;
nodes = (
"32 346 OFFCURVE",
"78 266 OFFCURVE",
"158 216 CURVE",
"206 285 LINE",
"148 315 OFFCURVE",
"100 369 OFFCURVE",
"100 449 CURVE SMOOTH",
"100 521 OFFCURVE",
"156 601 OFFCURVE",
"290 601 CURVE SMOOTH",
"316 601 OFFCURVE",
"350 598 OFFCURVE",
"371 595 CURVE",
"420 649 LINE",
"393 659 OFFCURVE",
"346 667 OFFCURVE",
"300 667 CURVE SMOOTH",
"121 667 OFFCURVE",
"32 550 OFFCURVE",
"32 434 CURVE SMOOTH"
);
},
{
closed = 1;
nodes = (
"532 53 LINE",
"592 67 LINE",
"592 657 LINE",
"585 664 LINE",
"525 650 LINE",
"525 60 LINE"
);
}
);
width = 664;
},
{
anchors = (
{
name = b.rrvocalicvowelsignleftorya;
position = "{717, -49}";
},
{
name = b.tasubscriptorya;
position = "{435, 0}";
},
{
name = b.uvowelsignorya;
position = "{717, 0}";
},
{
name = m.rrvocalicvowelsignleftorya;
position = "{709, -49}";
},
{
name = t.candrabinduorya;
position = "{546, 657}";
},
{
name = t.ivowelsignorya;
position = "{358, 657}";
}
);
components = (
{
name = _part.vo;
transform = "{1, 0, 0, 1, -28, 1}";
},
{
name = kasubscriptorya;
transform = "{1, 0, 0, 1, 705, 105}";
}
);
layerId = "D0F0E2C3-3B53-4823-9924-A34C50245C28";
paths = (
{
closed = 1;
nodes = (
"298 421 OFFCURVE",
"348 368 OFFCURVE",
"429 368 CURVE SMOOTH",
"520 368 OFFCURVE",
"586 436 OFFCURVE",
"611 586 CURVE",
"546 610 LINE",
"546 533 OFFCURVE",
"514 471 OFFCURVE",
"458 471 CURVE SMOOTH",
"423 471 OFFCURVE",
"400 495 OFFCURVE",
"400 525 CURVE SMOOTH",
"400 555 OFFCURVE",
"423 586 OFFCURVE",
"471 627 CURVE",
"467 648 LINE",
"418 641 LINE",
"349 597 OFFCURVE",
"298 555 OFFCURVE",
"298 488 CURVE SMOOTH"
);
},
{
closed = 1;
nodes = (
"27 325 OFFCURVE",
"49 243 OFFCURVE",
"128 167 CURVE",
"216 288 LINE",
"150 315 OFFCURVE",
"128 365 OFFCURVE",
"128 415 CURVE SMOOTH",
"128 501 OFFCURVE",
"205 550 OFFCURVE",
"305 550 CURVE SMOOTH",
"334 550 OFFCURVE",
"360 546 OFFCURVE",
"385 538 CURVE",
"467 648 LINE",
"429 660 OFFCURVE",
"386 667 OFFCURVE",
"339 667 CURVE SMOOTH",
"158 667 OFFCURVE",
"27 553 OFFCURVE",
"27 393 CURVE SMOOTH"
);
},
{
closed = 1;
nodes = (
"553 53 LINE",
"666 80 LINE",
"666 657 LINE",
"659 664 LINE",
"546 637 LINE",
"546 60 LINE"
);
}
);
width = 719;
}
);
leftMetricsKey = iorya;
script = oriya;
category = Letter;
subCategory = Ligature;
},
{
glyphname = airephorya;
lastChange = "2021-07-31 19:37:10 +0000";
layers = (
{
anchors = (
{
name = b.tasubscriptorya;
position = "{410, 0}";
}
);
components = (
{
name = aiorya;
}
);
layerId = "6C4C2116-C5E5-460E-80F0-69F45ED98D3F";
paths = (
{
closed = 1;
nodes = (
"793 765 LINE",
"836 753 OFFCURVE",
"875 743 OFFCURVE",
"918 733 CURVE",
"938 797 LINE",
"888 801 OFFCURVE",
"840 808 OFFCURVE",
"795 817 CURVE",
"787 810 LINE",
"895 804 OFFCURVE",
"930 828 OFFCURVE",
"1019 890 CURVE",
"998 917 LINE",
"920 880 OFFCURVE",
"841 859 OFFCURVE",
"757 853 CURVE"
);
}
);
width = 821;
},
{
anchors = (
{
name = b.tasubscriptorya;
position = "{462, 0}";
}
);
components = (
{
name = aiorya;
}
);
layerId = "D0F0E2C3-3B53-4823-9924-A34C50245C28";
paths = (
{
closed = 1;
nodes = (
"837 707 LINE",
"876 697 OFFCURVE",
"914 689 OFFCURVE",
"953 681 CURVE",
"990 780 LINE",
"931 785 OFFCURVE",
"874 793 OFFCURVE",
"821 802 CURVE",
"812 788 LINE",
"938 781 OFFCURVE",
"979 811 OFFCURVE",
"1083 885 CURVE",
"1058 917 LINE",
"967 874 OFFCURVE",
"875 849 OFFCURVE",
"777 842 CURVE"
);
}
);
width = 924;
}
);
leftMetricsKey = eorya;
script = oriya;
category = Letter;
subCategory = Spacing;
},
{
glyphname = aurephorya;
lastChange = "2021-07-28 10:48:31 +0000";
layers = (
{
anchors = (
{
name = b.tasubscriptorya;
position = "{410, 0}";
}
);
components = (
{
name = auorya;
}
);
layerId = "6C4C2116-C5E5-460E-80F0-69F45ED98D3F";
paths = (
{
closed = 1;
nodes = (
"771 763 LINE",
"806 752 OFFCURVE",
"839 743 OFFCURVE",
"875 733 CURVE",
"895 796 LINE",
"850 801 OFFCURVE",
"806 808 OFFCURVE",
"765 816 CURVE",
"757 811 LINE",
"851 805 OFFCURVE",
"881 826 OFFCURVE",
"959 879 CURVE",
"938 906 LINE",
"870 876 OFFCURVE",
"801 858 OFFCURVE",
"727 853 CURVE"
);
}
);
width = 830;
},
{
anchors = (
{
name = b.tasubscriptorya;
position = "{456, 0}";
}
);
components = (
{
name = auorya;
}
);
layerId = "D0F0E2C3-3B53-4823-9924-A34C50245C28";
paths = (
{
closed = 1;
nodes = (
"828 707 LINE",
"867 698 OFFCURVE",
"905 689 OFFCURVE",
"944 681 CURVE",
"981 780 LINE",
"922 786 OFFCURVE",
"865 793 OFFCURVE",
"812 802 CURVE",
"803 788 LINE",
"929 781 OFFCURVE",
"970 811 OFFCURVE",
"1074 885 CURVE",
"1049 917 LINE",
"958 874 OFFCURVE",
"866 849 OFFCURVE",
"768 842 CURVE"
);
}
);
width = 913;
}
);
leftMetricsKey = eorya;
script = oriya;
category = Letter;
subCategory = Spacing;
},
{
glyphname = babaorya;
lastChange = "2021-07-22 07:46:18 +0000";
layers = (
{
anchors = (
{
name = b.tasubscriptorya;
position = "{329, 0}";
},
{
name = b.uvowelsignorya;
position = "{472, 0}";
},
{
name = t.ivowelsignorya;
position = "{329, 657}";
}
);
components = (
{
name = _part.swash3;
transform = "{1, 0, 0, 1, -2, 0}";
}
);
layerId = "6C4C2116-C5E5-460E-80F0-69F45ED98D3F";
paths = (
{
closed = 1;
nodes = (
"122 111 OFFCURVE",
"158 54 OFFCURVE",
"217 54 CURVE SMOOTH",
"284 54 OFFCURVE",
"326 117 OFFCURVE",
"326 216 CURVE SMOOTH",
"326 298 OFFCURVE",
"291 355 OFFCURVE",
"230 355 CURVE SMOOTH",
"165 355 OFFCURVE",
"122 290 OFFCURVE",
"122 192 CURVE SMOOTH"
);
},
{
closed = 1;
nodes = (
"183 260 OFFCURVE",
"196 296 OFFCURVE",
"219 296 CURVE SMOOTH",
"247 296 OFFCURVE",
"265 246 OFFCURVE",
"265 197 CURVE SMOOTH",
"265 147 OFFCURVE",
"251 112 OFFCURVE",
"229 112 CURVE SMOOTH",
"202 112 OFFCURVE",
"183 163 OFFCURVE",
"183 211 CURVE SMOOTH"
);
},
{
closed = 1;
nodes = (
"265 111 OFFCURVE",
"301 54 OFFCURVE",
"360 54 CURVE SMOOTH",
"416 54 OFFCURVE",
"462 121 OFFCURVE",
"462 205 CURVE SMOOTH",
"462 298 OFFCURVE",
"430 355 OFFCURVE",
"373 355 CURVE SMOOTH",
"308 355 OFFCURVE",
"265 290 OFFCURVE",
"265 192 CURVE SMOOTH"
);
},
{
closed = 1;
nodes = (
"424 261 LINE",
"424 130 LINE",
"405 130 LINE",
"405 0 LINE",
"412 -7 LINE",
"472 7 LINE",
"472 187 LINE SMOOTH",
"472 330 OFFCURVE",
"417 355 OFFCURVE",
"373 355 CURVE"
);
},
{
closed = 1;
nodes = (
"326 260 OFFCURVE",
"339 296 OFFCURVE",
"362 296 CURVE SMOOTH",
"390 296 OFFCURVE",
"408 246 OFFCURVE",
"408 197 CURVE SMOOTH",
"408 147 OFFCURVE",
"394 112 OFFCURVE",
"372 112 CURVE SMOOTH",
"345 112 OFFCURVE",
"326 163 OFFCURVE",
"326 211 CURVE SMOOTH"
);
}
);
width = 625;
},
{
anchors = (
{
name = b.tasubscriptorya;
position = "{355, 0}";
},
{
name = b.uvowelsignorya;
position = "{559, 0}";
},
{
name = t.ivowelsignorya;
position = "{355, 657}";
}
);
components = (
{
name = _part.swash3;
transform = "{1, 0, 0, 1, -5, 0}";
}
);
layerId = "D0F0E2C3-3B53-4823-9924-A34C50245C28";
paths = (
{
closed = 1;
nodes = (
"120 111 OFFCURVE",
"164 54 OFFCURVE",
"238 54 CURVE SMOOTH",
"316 54 OFFCURVE",
"380 117 OFFCURVE",
"380 217 CURVE SMOOTH",
"380 295 OFFCURVE",
"333 355 OFFCURVE",
"261 355 CURVE SMOOTH",
"177 355 OFFCURVE",
"120 290 OFFCURVE",
"120 192 CURVE SMOOTH"
);
},
{
closed = 1;
nodes = (
"218 249 OFFCURVE",
"229 277 OFFCURVE",
"246 277 CURVE SMOOTH",
"269 277 OFFCURVE",
"282 237 OFFCURVE",
"282 199 CURVE SMOOTH",
"282 159 OFFCURVE",
"271 132 OFFCURVE",
"253 132 CURVE SMOOTH",
"232 132 OFFCURVE",
"218 172 OFFCURVE",
"218 209 CURVE SMOOTH"
);
},
{
closed = 1;
nodes = (
"282 111 OFFCURVE",
"329 54 OFFCURVE",
"394 54 CURVE SMOOTH",
"473 54 OFFCURVE",
"526 117 OFFCURVE",
"526 217 CURVE SMOOTH",
"526 282 OFFCURVE",
"486 355 OFFCURVE",
"421 355 CURVE SMOOTH",
"345 355 OFFCURVE",
"282 288 OFFCURVE",
"282 192 CURVE SMOOTH"
);
},
{
closed = 1;
nodes = (
"462 226 LINE",
"462 95 LINE",
"439 95 LINE",
"439 0 LINE",
"453 -9 LINE",
"559 20 LINE",
"559 173 LINE SMOOTH",
"559 318 OFFCURVE",
"490 355 OFFCURVE",
"421 355 CURVE"
);
},
{
closed = 1;
nodes = (
"380 249 OFFCURVE",
"391 277 OFFCURVE",
"408 277 CURVE SMOOTH",
"430 277 OFFCURVE",
"444 237 OFFCURVE",
"444 199 CURVE SMOOTH",
"444 159 OFFCURVE",
"433 132 OFFCURVE",
"415 132 CURVE SMOOTH",
"393 132 OFFCURVE",
"380 172 OFFCURVE",
"380 209 CURVE SMOOTH"
);
}
);
width = 665;
}
);
leftMetricsKey = iorya;
rightKerningGroup = caorya;
rightMetricsKey = caorya;
script = oriya;
category = Letter;
subCategory = Spacing;
},
{
glyphname = badaorya;
lastChange = "2021-07-29 09:37:05 +0000";
layers = (
{
anchors = (
{
name = b.tasubscriptorya;
position = "{324, 0}";
},
{
name = b.uvowelsignorya;
position = "{517, 0}";
},
{
name = t.ivowelsignorya;
position = "{324, 657}";
}
);
components = (
{
name = _part.swash3;
transform = "{1, 0, 0, 1, -2, 0}";
}
);
layerId = "6C4C2116-C5E5-460E-80F0-69F45ED98D3F";
paths = (
{
closed = 1;
nodes = (
"457 -7 LINE",
"517 8 LINE",
"517 324 LINE",
"510 331 LINE",
"450 316 LINE",
"450 0 LINE"
);
},
{
closed = 1;
nodes = (
"101 121 OFFCURVE",
"158 60 OFFCURVE",
"235 60 CURVE SMOOTH",
"316 60 OFFCURVE",
"378 127 OFFCURVE",
"378 212 CURVE SMOOTH",
"378 294 OFFCURVE",
"320 355 OFFCURVE",
"244 355 CURVE SMOOTH",
"163 355 OFFCURVE",
"101 288 OFFCURVE",
"101 202 CURVE SMOOTH"
);
},
{
closed = 1;
nodes = (
"317 126 LINE",
"329 87 OFFCURVE",
"355 60 OFFCURVE",
"394 60 CURVE SMOOTH",
"449 60 OFFCURVE",
"476 113 OFFCURVE",
"485 193 CURVE",
"462 208 LINE",
"456 154 OFFCURVE",
"437 120 OFFCURVE",
"410 120 CURVE SMOOTH",
"391 120 OFFCURVE",
"375 138 OFFCURVE",
"373 187 CURVE"
);
},
{
closed = 1;
nodes = (
"157 247 OFFCURVE",
"176 284 OFFCURVE",
"216 292 CURVE SMOOTH",
"259 300 OFFCURVE",
"303 266 OFFCURVE",
"313 213 CURVE SMOOTH",
"322 168 OFFCURVE",
"303 132 OFFCURVE",
"263 124 CURVE SMOOTH",
"221 116 OFFCURVE",
"176 150 OFFCURVE",
"166 203 CURVE SMOOTH"
);
}
);
width = 637;
},
{
anchors = (
{
name = b.tasubscriptorya;
position = "{364, 0}";
},
{
name = b.uvowelsignorya;
position = "{554, 0}";
},
{
name = t.ivowelsignorya;
position = "{364, 657}";
}
);
components = (
{
name = _part.swash3;
transform = "{1, 0, 0, 1, -5, 0}";
}
);
layerId = "D0F0E2C3-3B53-4823-9924-A34C50245C28";
paths = (
{
closed = 1;
nodes = (
"441 -10 LINE",
"554 17 LINE",
"554 324 LINE",
"547 331 LINE",
"434 304 LINE",
"434 -3 LINE"
);
},
{
closed = 1;
nodes = (
"136 355 OFFCURVE",
"84 275 OFFCURVE",
"84 199 CURVE SMOOTH",
"84 117 OFFCURVE",
"150 60 OFFCURVE",
"235 60 CURVE SMOOTH",
"331 60 OFFCURVE",
"376 146 OFFCURVE",
"376 216 CURVE SMOOTH",
"376 294 OFFCURVE",
"316 355 OFFCURVE",
"231 355 CURVE SMOOTH"
);
},
{
closed = 1;
nodes = (
"303 155 LINE",
"312 107 OFFCURVE",
"332 75 OFFCURVE",
"375 75 CURVE SMOOTH",
"431 75 OFFCURVE",
"473 136 OFFCURVE",
"480 237 CURVE",
"455 283 LINE",
"455 226 OFFCURVE",
"433 182 OFFCURVE",
"400 182 CURVE SMOOTH",
"379 182 OFFCURVE",
"370 201 OFFCURVE",
"361 239 CURVE"
);
},
{
closed = 1;
nodes = (
"179 243 OFFCURVE",
"195 255 OFFCURVE",
"217 255 CURVE SMOOTH",
"252 255 OFFCURVE",
"287 229 OFFCURVE",
"287 194 CURVE SMOOTH",
"287 173 OFFCURVE",
"271 161 OFFCURVE",
"248 161 CURVE SMOOTH",
"210 161 OFFCURVE",
"179 189 OFFCURVE",
"179 220 CURVE SMOOTH"
);
}
);
width = 680;
}
);
leftMetricsKey = iorya;
rightKerningGroup = caorya;
rightMetricsKey = kaorya;
script = oriya;
category = Letter;
subCategory = Spacing;
},
{
glyphname = badhaorya;
lastChange = "2021-07-31 14:02:58 +0000";
layers = (
{
anchors = (
{
name = b.rrvocalicvowelsignleftorya;
position = "{534, -49}";
},
{
name = b.tasubscriptorya;
position = "{324, 0}";
},
{
name = b.uvowelsignorya;
position = "{533, 0}";
},
{
name = m.rrvocalicvowelsignleftorya;
position = "{527, -49}";
},
{
name = t.candrabinduorya;
position = "{502, 657}";
},
{
name = t.ivowelsignorya;
position = "{312, 657}";
}
);
components = (
{
name = _part.halfswash;
transform = "{1, 0, 0, 1, -4, 0}";
}
);
layerId = "6C4C2116-C5E5-460E-80F0-69F45ED98D3F";
paths = (
{
closed = 1;
nodes = (
"142 184 OFFCURVE",
"203 120 OFFCURVE",
"284 120 CURVE SMOOTH",
"369 120 OFFCURVE",
"435 191 OFFCURVE",
"435 281 CURVE SMOOTH",
"435 367 OFFCURVE",
"374 432 OFFCURVE",
"293 432 CURVE SMOOTH",
"208 432 OFFCURVE",
"142 361 OFFCURVE",
"142 271 CURVE SMOOTH"
);
},
{
closed = 1;
nodes = (
"392 321 LINE",
"392 190 LINE",
"373 190 LINE",
"373 60 LINE",
"380 53 LINE",
"440 67 LINE",
"440 247 LINE SMOOTH",
"440 396 OFFCURVE",
"354 432 OFFCURVE",
"299 432 CURVE"
);
},
{
closed = 1;
nodes = (
"205 338 OFFCURVE",
"231 371 OFFCURVE",
"277 371 CURVE SMOOTH",
"326 371 OFFCURVE",
"372 324 OFFCURVE",
"372 261 CURVE SMOOTH",
"372 216 OFFCURVE",
"346 182 OFFCURVE",
"300 182 CURVE SMOOTH",
"252 182 OFFCURVE",
"205 227 OFFCURVE",
"205 293 CURVE SMOOTH"
);
},
{
closed = 1;
nodes = (
"474 -282 LINE",
"534 -268 LINE",
"534 82 LINE",
"527 89 LINE",
"467 75 LINE",
"467 -275 LINE"
);
},
{
closed = 1;
nodes = (
"289 -15 OFFCURVE",
"337 -67 OFFCURVE",
"391 -126 CURVE",
"401 -126 LINE",
"429 -95 LINE",
"381 -31 OFFCURVE",
"335 25 OFFCURVE",
"296 77 CURVE",
"286 77 LINE",
"246 41 LINE"
);
},
{
closed = 1;
nodes = (
"221 -230 OFFCURVE",
"273 -280 OFFCURVE",
"347 -280 CURVE SMOOTH",
"411 -280 OFFCURVE",
"467 -243 OFFCURVE",
"485 -199 CURVE",
"474 -140 LINE",
"449 -202 OFFCURVE",
"398 -224 OFFCURVE",
"357 -224 CURVE SMOOTH",
"308 -224 OFFCURVE",
"277 -191 OFFCURVE",
"277 -153 CURVE SMOOTH",
"277 -120 OFFCURVE",
"301 -91 OFFCURVE",
"351 -76 CURVE",
"316 -25 LINE",
"246 -64 OFFCURVE",
"221 -110 OFFCURVE",
"221 -159 CURVE SMOOTH"
);
}
);
width = 616;
},
{
anchors = (
{
name = b.rrvocalicvowelsignleftorya;
position = "{530, -49}";
},
{
name = b.tasubscriptorya;
position = "{310, 0}";
},
{
name = b.uvowelsignorya;
position = "{545, 0}";
},
{
name = m.rrvocalicvowelsignleftorya;
position = "{537, -49}";
},
{
name = t.candrabinduorya;
position = "{485, 657}";
},
{
name = t.ivowelsignorya;
position = "{320, 657}";
}
);
components = (
{
name = _part.halfswash;
transform = "{1, 0, 0, 1, -5, 0}";
}
);
layerId = "D0F0E2C3-3B53-4823-9924-A34C50245C28";
paths = (
{
closed = 1;
nodes = (
"122 179 OFFCURVE",
"184 110 OFFCURVE",
"275 110 CURVE SMOOTH",
"349 110 OFFCURVE",
"437 169 OFFCURVE",
"437 268 CURVE SMOOTH",
"437 353 OFFCURVE",
"373 415 OFFCURVE",
"283 415 CURVE SMOOTH",
"195 415 OFFCURVE",
"135 358 OFFCURVE",
"128 264 CURVE SMOOTH"
);
},
{
closed = 1;
nodes = (
"352 293 LINE",
"352 162 LINE",
"329 162 LINE",
"329 67 LINE",
"343 58 LINE",
"449 87 LINE",
"449 205 LINE SMOOTH",
"449 377 OFFCURVE",
"360 415 OFFCURVE",
"283 415 CURVE"
);
},
{
closed = 1;
nodes = (
"216 301 OFFCURVE",
"236 315 OFFCURVE",
"267 315 CURVE SMOOTH",
"312 315 OFFCURVE",
"348 285 OFFCURVE",
"348 247 CURVE SMOOTH",
"348 222 OFFCURVE",
"329 206 OFFCURVE",
"296 206 CURVE SMOOTH",
"253 206 OFFCURVE",
"216 239 OFFCURVE",
"216 278 CURVE SMOOTH"
);
},
{
closed = 1;
nodes = (
"452 -282 LINE",
"545 -259 LINE",
"545 82 LINE",
"537 89 LINE",
"445 66 LINE",
"445 -275 LINE"
);
},
{
closed = 1;
nodes = (
"257 -34 OFFCURVE",
"306 -81 OFFCURVE",
"363 -134 CURVE",
"373 -134 LINE",
"418 -88 LINE",
"371 -27 OFFCURVE",
"327 27 OFFCURVE",
"289 77 CURVE",
"279 77 LINE",
"212 17 LINE"
);
},
{
closed = 1;
nodes = (
"198 -231 OFFCURVE",
"249 -281 OFFCURVE",
"332 -281 CURVE SMOOTH",
"400 -281 OFFCURVE",
"447 -251 OFFCURVE",
"480 -205 CURVE",
"455 -137 LINE",
"437 -172 OFFCURVE",
"396 -194 OFFCURVE",
"359 -193 CURVE SMOOTH",
"318 -193 OFFCURVE",
"291 -169 OFFCURVE",
"291 -142 CURVE SMOOTH",
"291 -118 OFFCURVE",
"309 -94 OFFCURVE",
"355 -81 CURVE",
"286 -23 LINE",
"233 -61 OFFCURVE",
"198 -114 OFFCURVE",
"198 -162 CURVE SMOOTH"
);
}
);
width = 671;
}
);
leftMetricsKey = iorya;
script = oriya;
category = Letter;
subCategory = Spacing;
},
{
glyphname = balaorya;
lastChange = "2021-07-22 07:46:18 +0000";
layers = (
{
anchors = (
{
name = b.rrvocalicvowelsignleftorya;
position = "{544, -49}";
},
{
name = b.tasubscriptorya;
position = "{334, 0}";
},
{
name = b.uvowelsignorya;
position = "{505, 0}";
},
{
name = t.candrabinduorya;
position = "{474, 657}";
},
{
name = t.ivowelsignorya;
position = "{304, 657}";
}
);
components = (
{
name = _part.lasub;
transform = "{1, 0, 0, 1, -51, 0}";
},
{
name = _part.halfswash;
transform = "{1, 0, 0, 1, -4, 0}";
}
);
layerId = "6C4C2116-C5E5-460E-80F0-69F45ED98D3F";
paths = (
{
closed = 1;
nodes = (
"142 184 OFFCURVE",
"203 120 OFFCURVE",
"284 120 CURVE SMOOTH",
"368 120 OFFCURVE",
"433 191 OFFCURVE",
"433 281 CURVE SMOOTH",
"433 367 OFFCURVE",
"373 432 OFFCURVE",
"293 432 CURVE SMOOTH",
"208 432 OFFCURVE",
"142 361 OFFCURVE",
"142 271 CURVE SMOOTH"
);
},
{
closed = 1;
nodes = (
"392 321 LINE",
"392 190 LINE",
"373 190 LINE",
"373 20 LINE",
"440 47 LINE",
"440 247 LINE SMOOTH",
"440 396 OFFCURVE",
"354 432 OFFCURVE",
"293 432 CURVE"
);
},
{
closed = 1;
nodes = (
"199 324 OFFCURVE",
"221 363 OFFCURVE",
"265 370 CURVE SMOOTH",
"313 378 OFFCURVE",
"361 338 OFFCURVE",
"371 279 CURVE SMOOTH",
"378 229 OFFCURVE",
"356 190 OFFCURVE",
"312 183 CURVE SMOOTH",
"265 175 OFFCURVE",
"216 214 OFFCURVE",
"206 274 CURVE SMOOTH"
);
}
);
width = 623;
},
{
anchors = (
{
name = b.rrvocalicvowelsignleftorya;
position = "{577, -49}";
},
{
name = b.tasubscriptorya;
position = "{337, 0}";
},
{
name = b.uvowelsignorya;
position = "{535, 0}";
},
{
name = t.candrabinduorya;
position = "{502, 657}";
},
{
name = t.ivowelsignorya;
position = "{337, 657}";
}
);
components = (
{
name = _part.lasub;
transform = "{1, 0, 0, 1, -87, 0}";
},
{
name = _part.halfswash;
transform = "{1, 0, 0, 1, -5, 0}";
}
);
layerId = "D0F0E2C3-3B53-4823-9924-A34C50245C28";
paths = (
{
closed = 1;
nodes = (
"125 179 OFFCURVE",
"187 110 OFFCURVE",
"278 110 CURVE SMOOTH",
"352 110 OFFCURVE",
"440 169 OFFCURVE",
"440 268 CURVE SMOOTH",
"440 353 OFFCURVE",
"376 415 OFFCURVE",
"286 415 CURVE SMOOTH",
"198 415 OFFCURVE",
"138 358 OFFCURVE",
"131 264 CURVE SMOOTH"
);
},
{
closed = 1;
nodes = (
"355 293 LINE",
"355 162 LINE",
"336 162 LINE",
"336 17 LINE",
"452 17 LINE",
"452 205 LINE SMOOTH",
"452 377 OFFCURVE",
"363 415 OFFCURVE",
"286 415 CURVE"
);
},
{
closed = 1;
nodes = (
"219 301 OFFCURVE",
"239 315 OFFCURVE",
"270 315 CURVE SMOOTH",
"315 315 OFFCURVE",
"351 285 OFFCURVE",
"351 247 CURVE SMOOTH",
"351 222 OFFCURVE",
"332 206 OFFCURVE",
"299 206 CURVE SMOOTH",
"256 206 OFFCURVE",
"219 239 OFFCURVE",
"219 278 CURVE SMOOTH"
);
}
);
width = 679;
}
);
leftMetricsKey = iorya;
rightMetricsKey = kaorya;
script = oriya;
category = Letter;
subCategory = Spacing;
},
{
glyphname = ballaorya;
lastChange = "2021-07-31 19:43:29 +0000";
layers = (
{
anchors = (
{
name = b.rrvocalicvowelsignleftorya;
position = "{567, -49}";
},
{
name = b.tasubscriptorya;
position = "{351, 0}";
},
{
name = b.uvowelsignorya;
position = "{528, 0}";
},
{
name = t.candrabinduorya;
position = "{481, 657}";
},
{
name = t.ivowelsignorya;
position = "{311, 657}";
}
);
components = (
{
name = llasubscriptorya;
transform = "{1, 0, 0, 1, 519, 57}";
},
{
name = _part.halfswash;
transform = "{1, 0, 0, 1, -4, 0}";
}
);
layerId = "6C4C2116-C5E5-460E-80F0-69F45ED98D3F";
paths = (
{
closed = 1;
nodes = (
"142 184 OFFCURVE",
"203 120 OFFCURVE",
"284 120 CURVE SMOOTH",
"368 120 OFFCURVE",
"433 191 OFFCURVE",
"433 281 CURVE SMOOTH",
"433 367 OFFCURVE",
"373 432 OFFCURVE",
"293 432 CURVE SMOOTH",
"208 432 OFFCURVE",
"142 361 OFFCURVE",
"142 271 CURVE SMOOTH"
);
},
{
closed = 1;
nodes = (
"390 321 LINE",
"390 190 LINE",
"371 190 LINE",
"363 0 LINE",
"438 47 LINE",
"438 247 LINE SMOOTH",
"438 396 OFFCURVE",
"352 432 OFFCURVE",
"291 432 CURVE"
);
},
{
closed = 1;
nodes = (
"205 338 OFFCURVE",
"231 371 OFFCURVE",
"277 371 CURVE SMOOTH",
"326 371 OFFCURVE",
"372 324 OFFCURVE",
"372 261 CURVE SMOOTH",
"372 216 OFFCURVE",
"346 182 OFFCURVE",
"300 182 CURVE SMOOTH",
"252 182 OFFCURVE",
"205 227 OFFCURVE",
"205 293 CURVE SMOOTH"
);
}
);
width = 623;
},
{
anchors = (
{
name = b.rrvocalicvowelsignleftorya;
position = "{544, -49}";
},
{
name = b.tasubscriptorya;
position = "{334, 0}";
},
{
name = b.uvowelsignorya;
position = "{574, 0}";
},
{
name = t.candrabinduorya;
position = "{499, 657}";
},
{
name = t.ivowelsignorya;
position = "{334, 657}";
}
);
components = (
{
name = llasubscriptorya;
transform = "{1, 0, 0, 1, 562, 63}";
},
{
name = _part.halfswash;
transform = "{1, 0, 0, 1, -5, 0}";
}
);
layerId = "D0F0E2C3-3B53-4823-9924-A34C50245C28";
paths = (
{
closed = 1;
nodes = (
"129 169 OFFCURVE",
"184 104 OFFCURVE",
"275 104 CURVE SMOOTH",
"349 104 OFFCURVE",
"437 163 OFFCURVE",
"437 262 CURVE SMOOTH",
"437 347 OFFCURVE",
"373 409 OFFCURVE",
"283 409 CURVE SMOOTH",
"204 409 OFFCURVE",
"127 347 OFFCURVE",
"128 256 CURVE SMOOTH"
);
},
{
closed = 1;
nodes = (
"352 287 LINE",
"352 156 LINE",
"333 156 LINE",
"333 0 LINE",
"449 0 LINE",
"449 199 LINE SMOOTH",
"449 371 OFFCURVE",
"360 409 OFFCURVE",
"283 409 CURVE"
);
},
{
closed = 1;
nodes = (
"216 295 OFFCURVE",
"236 309 OFFCURVE",
"267 309 CURVE SMOOTH",
"312 309 OFFCURVE",
"348 279 OFFCURVE",
"348 241 CURVE SMOOTH",
"348 216 OFFCURVE",
"329 200 OFFCURVE",
"296 200 CURVE SMOOTH",
"253 200 OFFCURVE",
"216 233 OFFCURVE",
"216 272 CURVE SMOOTH"
);
}
);
width = 679;
}
);
leftMetricsKey = iorya;
rightMetricsKey = kaorya;
script = oriya;
category = Letter;
subCategory = Spacing;
},
{
glyphname = cachaorya;
lastChange = "2021-07-28 11:41:33 +0000";
layers = (
{
anchors = (
{
name = b.tasubscriptorya;
position = "{338, 29}";
},
{
name = b.uvowelsignorya;
position = "{559, 29}";
},
{
name = t.ivowelsignorya;
position = "{344, 657}";
}
);
components = (
{
name = thasubscriptdeeporya;
transform = "{0.93895, 0, 0, 0.93895, 561, 325}";
},
{
name = _part.ooo;
transform = "{0.94932, 0, 0, 0.94932, 52, 96}";
}
);
layerId = "D0F0E2C3-3B53-4823-9924-A34C50245C28";
paths = (
{
closed = 1;
nodes = (
"27 369 OFFCURVE",
"66 300 OFFCURVE",
"144 250 CURVE",
"192 380 LINE",
"147 401 OFFCURVE",
"128 431 OFFCURVE",
"128 462 CURVE SMOOTH",
"128 522 OFFCURVE",
"200 550 OFFCURVE",
"277 550 CURVE SMOOTH",
"389 550 OFFCURVE",
"503 489 OFFCURVE",
"560 400 CURVE",
"570 400 LINE",
"659 499 LINE",
"580 601 OFFCURVE",
"464 667 OFFCURVE",
"321 667 CURVE SMOOTH",
"148 667 OFFCURVE",
"27 569 OFFCURVE",
"27 445 CURVE SMOOTH"
);
}
);
width = 679;
},
{
anchors = (
{
name = b.tasubscriptorya;
position = "{302, 44}";
},
{
name = b.uvowelsignorya;
position = "{479, 48}";
},
{
name = t.ivowelsignorya;
position = "{315, 657}";
}
);
components = (
{
name = thasubscriptdeeporya;
transform = "{1.02313, 0, 0, 1.02313, 543, 378}";
},
{
name = _part.ooo;
transform = "{1, 0, 0, 1, 17, 117}";
}
);
layerId = "6C4C2116-C5E5-460E-80F0-69F45ED98D3F";
paths = (
{
closed = 1;
nodes = (
"32 384 OFFCURVE",
"56 324 OFFCURVE",
"112 280 CURVE",
"145 353 LINE",
"115 377 OFFCURVE",
"100 416 OFFCURVE",
"100 453 CURVE SMOOTH",
"100 537 OFFCURVE",
"176 601 OFFCURVE",
"287 601 CURVE SMOOTH",
"423 601 OFFCURVE",
"506 520 OFFCURVE",
"543 467 CURVE",
"553 467 LINE",
"600 516 LINE",
"555 572 OFFCURVE",
"472 667 OFFCURVE",
"303 667 CURVE SMOOTH",
"138 667 OFFCURVE",
"32 564 OFFCURVE",
"32 442 CURVE SMOOTH"
);
}
);
width = 623;
}
);
leftMetricsKey = iorya;
rightMetricsKey = kaorya;
script = oriya;
category = Letter;
subCategory = Spacing;
},
{
glyphname = dabhaorya;
lastChange = "2021-07-26 14:53:37 +0000";
layers = (
{
anchors = (
{
name = b.tasubscriptorya;
position = "{347, 0}";
},
{
name = b.uvowelsignorya;
position = "{443, 0}";
},
{
name = t.ivowelsignorya;
position = "{361, 657}";
}
);
layerId = "6C4C2116-C5E5-460E-80F0-69F45ED98D3F";
paths = (
{
closed = 1;
nodes = (
"32 321 OFFCURVE",
"69 236 OFFCURVE",
"136 184 CURVE",
"162 277 LINE",
"123 306 OFFCURVE",
"100 359 OFFCURVE",
"100 416 CURVE SMOOTH",
"100 524 OFFCURVE",
"190 601 OFFCURVE",
"334 601 CURVE SMOOTH",
"488 601 OFFCURVE",
"611 518 OFFCURVE",
"611 360 CURVE SMOOTH",
"611 274 OFFCURVE",
"579 187 OFFCURVE",
"546 125 CURVE",
"546 100 LINE",
"667 -35 LINE",
"681 -35 LINE",
"727 9 LINE",
"572 155 LINE",
"589 111 LINE",
"635 184 OFFCURVE",
"682 269 OFFCURVE",
"682 375 CURVE SMOOTH",
"682 548 OFFCURVE",
"548 667 OFFCURVE",
"346 667 CURVE SMOOTH",
"152 667 OFFCURVE",
"32 548 OFFCURVE",
"32 404 CURVE SMOOTH"
);
},
{
closed = 1;
nodes = (
"230 166 OFFCURVE",
"259 136 OFFCURVE",
"296 136 CURVE SMOOTH",
"330 136 OFFCURVE",
"361 156 OFFCURVE",
"380 177 CURVE",
"367 202 LINE",
"355 196 OFFCURVE",
"341 188 OFFCURVE",
"322 188 CURVE SMOOTH",
"297 188 OFFCURVE",
"288 207 OFFCURVE",
"288 227 CURVE SMOOTH",
"288 245 OFFCURVE",
"295 267 OFFCURVE",
"312 312 CURVE",
"270 335 LINE",
"250 298 OFFCURVE",
"230 256 OFFCURVE",
"230 216 CURVE SMOOTH"
);
},
{
closed = 1;
nodes = (
"93 54 OFFCURVE",
"185 -10 OFFCURVE",
"311 -10 CURVE SMOOTH",
"456 -10 OFFCURVE",
"527 49 OFFCURVE",
"527 159 CURVE SMOOTH",
"527 209 OFFCURVE",
"523 276 OFFCURVE",
"512 339 CURVE",
"450 324 LINE",
"461 269 OFFCURVE",
"469 199 OFFCURVE",
"469 150 CURVE SMOOTH",
"469 85 OFFCURVE",
"418 55 OFFCURVE",
"328 55 CURVE SMOOTH",
"215 55 OFFCURVE",
"161 104 OFFCURVE",
"161 171 CURVE SMOOTH",
"161 226 OFFCURVE",
"182 276 OFFCURVE",
"230 356 CURVE",
"186 387 LINE",
"132 308 OFFCURVE",
"93 232 OFFCURVE",
"93 155 CURVE SMOOTH"
);
},
{
closed = 1;
nodes = (
"347 164 OFFCURVE",
"379 136 OFFCURVE",
"413 136 CURVE SMOOTH",
"448 136 OFFCURVE",
"476 164 OFFCURVE",
"493 191 CURVE",
"481 215 LINE",
"462 200 OFFCURVE",
"444 193 OFFCURVE",
"432 193 CURVE SMOOTH",
"410 193 OFFCURVE",
"401 208 OFFCURVE",
"401 234 CURVE SMOOTH",
"401 257 OFFCURVE",
"405 288 OFFCURVE",
"411 320 CURVE",
"361 323 LINE",
"354 290 OFFCURVE",
"347 252 OFFCURVE",
"347 217 CURVE SMOOTH"
);
}
);
width = 729;
},
{
anchors = (
{
name = b.tasubscriptorya;
position = "{402, 0}";
},
{
name = b.uvowelsignorya;
position = "{506, 0}";
},
{
name = t.ivowelsignorya;
position = "{410, 657}";
}
);
layerId = "D0F0E2C3-3B53-4823-9924-A34C50245C28";
paths = (
{
closed = 1;
nodes = (
"27 328 OFFCURVE",
"55 255 OFFCURVE",
"130 193 CURVE",
"200 320 LINE",
"153 348 OFFCURVE",
"128 379 OFFCURVE",
"128 420 CURVE SMOOTH",
"128 507 OFFCURVE",
"232 548 OFFCURVE",
"359 548 CURVE SMOOTH",
"503 548 OFFCURVE",
"656 484 OFFCURVE",
"656 300 CURVE SMOOTH",
"656 234 OFFCURVE",
"642 176 OFFCURVE",
"620 125 CURVE",
"620 100 LINE",
"726 -35 LINE",
"740 -35 LINE",
"832 48 LINE",
"677 194 LINE",
"706 150 LINE",
"748 211 OFFCURVE",
"780 283 OFFCURVE",
"780 355 CURVE SMOOTH",
"780 526 OFFCURVE",
"628 667 OFFCURVE",
"391 667 CURVE SMOOTH",
"159 667 OFFCURVE",
"27 558 OFFCURVE",
"27 401 CURVE SMOOTH"
);
},
{
closed = 1;
nodes = (
"234 166 OFFCURVE",
"271 136 OFFCURVE",
"318 136 CURVE SMOOTH",
"364 136 OFFCURVE",
"401 157 OFFCURVE",
"425 180 CURVE",
"409 225 LINE",
"394 219 OFFCURVE",
"375 211 OFFCURVE",
"351 211 CURVE SMOOTH",
"325 211 OFFCURVE",
"315 226 OFFCURVE",
"315 242 CURVE SMOOTH",
"315 257 OFFCURVE",
"324 275 OFFCURVE",
"346 312 CURVE",
"287 343 LINE",
"260 304 OFFCURVE",
"234 259 OFFCURVE",
"234 216 CURVE SMOOTH"
);
},
{
closed = 1;
nodes = (
"66 60 OFFCURVE",
"166 -10 OFFCURVE",
"334 -10 CURVE SMOOTH",
"514 -10 OFFCURVE",
"605 54 OFFCURVE",
"605 172 CURVE SMOOTH",
"605 221 OFFCURVE",
"599 285 OFFCURVE",
"585 346 CURVE",
"492 324 LINE",
"506 269 OFFCURVE",
"517 199 OFFCURVE",
"517 165 CURVE SMOOTH",
"517 116 OFFCURVE",
"461 97 OFFCURVE",
"360 97 CURVE SMOOTH",
"244 97 OFFCURVE",
"170 144 OFFCURVE",
"170 203 CURVE SMOOTH",
"170 243 OFFCURVE",
"190 288 OFFCURVE",
"247 356 CURVE",
"189 405 LINE",
"116 323 OFFCURVE",
"66 246 OFFCURVE",
"66 166 CURVE SMOOTH"
);
},
{
closed = 1;
nodes = (
"371 165 OFFCURVE",
"411 136 OFFCURVE",
"450 136 CURVE SMOOTH",
"495 136 OFFCURVE",
"526 170 OFFCURVE",
"546 203 CURVE",
"529 242 LINE",
"511 220 OFFCURVE",
"492 213 OFFCURVE",
"479 213 CURVE SMOOTH",
"457 213 OFFCURVE",
"447 229 OFFCURVE",
"447 249 CURVE SMOOTH",
"447 269 OFFCURVE",
"453 294 OFFCURVE",
"460 320 CURVE",
"388 324 LINE",
"379 292 OFFCURVE",
"371 254 OFFCURVE",
"371 218 CURVE SMOOTH"
);
}
);
width = 830;
}
);
leftMetricsKey = iorya;
rightKerningGroup = iorya;
rightMetricsKey = iorya;
script = oriya;
category = Letter;
subCategory = Spacing;
},
{
glyphname = dadaorya;
lastChange = "2021-07-29 09:33:37 +0000";
layers = (
{
anchors = (
{
name = b.tasubscriptorya;
position = "{329, 0}";
},
{
name = b.uvowelsignorya;
position = "{495, 0}";
},
{
name = t.ivowelsignorya;
position = "{329, 657}";
}
);
components = (
{
name = _part.swash3;
transform = "{1, 0, 0, 1, -2, 0}";
}
);
layerId = "6C4C2116-C5E5-460E-80F0-69F45ED98D3F";
paths = (
{
closed = 1;
nodes = (
"87 118 OFFCURVE",
"129 73 OFFCURVE",
"188 73 CURVE SMOOTH",
"238 73 OFFCURVE",
"278 105 OFFCURVE",
"302 151 CURVE",
"286 197 LINE",
"274 180 OFFCURVE",
"255 136 OFFCURVE",
"208 136 CURVE SMOOTH",
"180 136 OFFCURVE",
"156 157 OFFCURVE",
"156 192 CURVE SMOOTH",
"156 226 OFFCURVE",
"176 273 OFFCURVE",
"237 333 CURVE",
"199 371 LINE",
"133 313 OFFCURVE",
"87 245 OFFCURVE",
"87 180 CURVE SMOOTH"
);
},
{
closed = 1;
nodes = (
"292 98 OFFCURVE",
"316 73 OFFCURVE",
"357 73 CURVE SMOOTH",
"418 73 OFFCURVE",
"446 119 OFFCURVE",
"463 204 CURVE",
"445 212 LINE",
"424 165 OFFCURVE",
"401 136 OFFCURVE",
"375 136 CURVE SMOOTH",
"351 136 OFFCURVE",
"334 156 OFFCURVE",
"334 212 CURVE SMOOTH",
"334 277 LINE",
"327 284 LINE",
"271 272 LINE",
"271 148 LINE"
);
},
{
closed = 1;
nodes = (
"436 -7 LINE",
"496 8 LINE",
"496 314 LINE",
"489 321 LINE",
"429 306 LINE",
"429 0 LINE"
);
}
);
width = 625;
},
{
anchors = (
{
name = b.tasubscriptorya;
position = "{361, 0}";
},
{
name = b.uvowelsignorya;
position = "{548, 0}";
},
{
name = t.ivowelsignorya;
position = "{361, 657}";
}
);
components = (
{
name = _part.swash3;
transform = "{1, 0, 0, 1, -5, 0}";
}
);
layerId = "D0F0E2C3-3B53-4823-9924-A34C50245C28";
paths = (
{
closed = 1;
nodes = (
"80 118 OFFCURVE",
"122 57 OFFCURVE",
"187 57 CURVE SMOOTH",
"235 57 OFFCURVE",
"274 89 OFFCURVE",
"295 135 CURVE",
"277 214 LINE",
"269 187 OFFCURVE",
"249 163 OFFCURVE",
"223 163 CURVE SMOOTH",
"201 163 OFFCURVE",
"183 177 OFFCURVE",
"183 208 CURVE SMOOTH",
"183 243 OFFCURVE",
"209 293 OFFCURVE",
"261 350 CURVE",
"212 398 LINE",
"141 325 OFFCURVE",
"80 262 OFFCURVE",
"80 180 CURVE SMOOTH"
);
},
{
closed = 1;
nodes = (
"274 87 OFFCURVE",
"307 55 OFFCURVE",
"350 55 CURVE SMOOTH",
"417 55 OFFCURVE",
"460 117 OFFCURVE",
"477 185 CURVE",
"448 239 LINE",
"436 199 OFFCURVE",
"419 158 OFFCURVE",
"389 158 CURVE SMOOTH",
"372 158 OFFCURVE",
"361 174 OFFCURVE",
"361 214 CURVE SMOOTH",
"361 293 LINE",
"355 303 LINE",
"269 284 LINE",
"269 138 LINE"
);
},
{
closed = 1;
nodes = (
"435 -7 LINE",
"548 17 LINE",
"548 324 LINE",
"541 331 LINE",
"428 307 LINE",
"428 0 LINE"
);
}
);
width = 665;
}
);
leftMetricsKey = iorya;
rightKerningGroup = caorya;
rightMetricsKey = caorya;
script = oriya;
category = Letter;
subCategory = Spacing;
},
{
glyphname = dadhaorya;
lastChange = "2021-07-22 07:46:18 +0000";
layers = (
{
anchors = (
{
name = b.tasubscriptorya;
position = "{331, 0}";
},
{
name = b.uvowelsignorya;
position = "{495, 0}";
},
{
name = t.ivowelsignorya;
position = "{331, 657}";
}
);
components = (
{
name = dadaorya;
}
);
layerId = "6C4C2116-C5E5-460E-80F0-69F45ED98D3F";
paths = (
{
closed = 1;
nodes = (
"435 258 LINE",
"481 290 LINE",
"212 627 LINE",
"166 595 LINE"
);
}
);
width = 625;
},
{
anchors = (
{
name = b.tasubscriptorya;
position = "{366, 0}";
},
{
name = b.uvowelsignorya;
position = "{553, 0}";
},
{
name = t.ivowelsignorya;
position = "{366, 657}";
}
);
components = (
{
name = dadaorya;
}
);
layerId = "D0F0E2C3-3B53-4823-9924-A34C50245C28";
paths = (
{
closed = 1;
nodes = (
"491 186 LINE",
"547 238 LINE",
"272 647 LINE",
"216 595 LINE"
);
}
);
width = 665;
}
);
leftMetricsKey = iorya;
rightKerningGroup = caorya;
rightMetricsKey = caorya;
script = oriya;
category = Letter;
subCategory = Spacing;
},
{
glyphname = dagaorya;
lastChange = "2021-07-22 07:46:18 +0000";
layers = (
{
anchors = (
{
name = b.tasubscriptorya;
position = "{281, 0}";
},
{
name = b.uvowelsignorya;
position = "{519, 0}";
},
{
name = t.candrabinduorya;
position = "{495, 657}";
},
{
name = t.ivowelsignorya;
position = "{302, 657}";
}
);
components = (
{
name = gasubscriptloworya;
transform = "{1, 0, 0, 1, 496, 260}";
},
{
name = _part.halfswash;
transform = "{1, 0, 0, 1, -4, 0}";
}
);
layerId = "6C4C2116-C5E5-460E-80F0-69F45ED98D3F";
paths = (
{
closed = 1;
nodes = (
"112 213 OFFCURVE",
"161 166 OFFCURVE",
"234 166 CURVE SMOOTH",
"305 166 OFFCURVE",
"364 205 OFFCURVE",
"399 253 CURVE",
"392 296 LINE",
"369 271 OFFCURVE",
"314 228 OFFCURVE",
"251 228 CURVE SMOOTH",
"206 228 OFFCURVE",
"176 252 OFFCURVE",
"176 289 CURVE SMOOTH",
"176 319 OFFCURVE",
"198 347 OFFCURVE",
"239 380 CURVE",
"200 418 LINE",
"152 377 OFFCURVE",
"112 333 OFFCURVE",
"112 274 CURVE SMOOTH"
);
},
{
closed = 1;
nodes = (
"357 106 LINE",
"417 106 LINE",
"417 373 LINE",
"410 380 LINE",
"350 365 LINE",
"350 113 LINE"
);
}
);
width = 623;
},
{
anchors = (
{
name = b.tasubscriptorya;
position = "{341, 0}";
},
{
name = b.uvowelsignorya;
position = "{621, 0}";
},
{
name = t.candrabinduorya;
position = "{516, 657}";
},
{
name = t.ivowelsignorya;
position = "{344, 657}";
}
);
components = (
{
name = gasubscriptloworya;
transform = "{1, 0, 0, 1, 578, 260}";
},
{
name = _part.halfswash;
transform = "{1, 0, 0, 1, -5, 0}";
}
);
layerId = "D0F0E2C3-3B53-4823-9924-A34C50245C28";
paths = (
{
closed = 1;
nodes = (
"119 200 OFFCURVE",
"159 140 OFFCURVE",
"253 140 CURVE SMOOTH",
"329 140 OFFCURVE",
"392 192 OFFCURVE",
"416 241 CURVE",
"407 280 LINE",
"384 256 OFFCURVE",
"341 237 OFFCURVE",
"303 237 CURVE SMOOTH",
"239 237 OFFCURVE",
"220 266 OFFCURVE",
"220 292 CURVE SMOOTH",
"220 312 OFFCURVE",
"234 341 OFFCURVE",
"290 382 CURVE",
"244 430 LINE",
"174 386 OFFCURVE",
"119 325 OFFCURVE",
"119 257 CURVE SMOOTH"
);
},
{
closed = 1;
nodes = (
"378 80 LINE",
"491 110 LINE",
"491 353 LINE",
"484 360 LINE",
"371 330 LINE",
"371 87 LINE"
);
}
);
width = 679;
}
);
leftMetricsKey = iorya;
rightMetricsKey = kaorya;
script = oriya;
category = Letter;
subCategory = Spacing;
},
{
glyphname = dhayapostorya;
lastChange = "2021-07-22 07:42:59 +0000";
layers = (
{
anchors = (
{
name = b.uvowelsignorya;
position = "{523, 0}";
},
{
name = t.ivowelsignorya;
position = "{288, 657}";
}
);
components = (
{
name = _part.a;
transform = "{1, 0, 0, 1, -60, 0}";
}
);
layerId = "6C4C2116-C5E5-460E-80F0-69F45ED98D3F";
paths = (
{
closed = 1;
nodes = (
"150 545 OFFCURVE",
"211 479 OFFCURVE",
"277 404 CURVE",
"288 404 LINE",
"319 438 LINE",
"256 521 OFFCURVE",
"196 595 OFFCURVE",
"145 663 CURVE",
"134 663 LINE",
"95 617 LINE"
);
},
{
closed = 1;
nodes = (
"199 85 OFFCURVE",
"259 34 OFFCURVE",
"340 34 CURVE SMOOTH",
"408 34 OFFCURVE",
"465 72 OFFCURVE",
"499 134 CURVE",
"473 173 LINE",
"450 128 OFFCURVE",
"401 99 OFFCURVE",
"354 99 CURVE SMOOTH",
"304 99 OFFCURVE",
"268 131 OFFCURVE",
"268 173 CURVE SMOOTH",
"268 208 OFFCURVE",
"292 242 OFFCURVE",
"335 287 CURVE",
"295 325 LINE",
"228 267 OFFCURVE",
"199 214 OFFCURVE",
"199 162 CURVE SMOOTH"
);
},
{
closed = 1;
nodes = (
"32 259 OFFCURVE",
"106 195 OFFCURVE",
"210 195 CURVE SMOOTH",
"227 195 OFFCURVE",
"244 197 OFFCURVE",
"261 201 CURVE",
"276 265 LINE",
"258 261 OFFCURVE",
"241 260 OFFCURVE",
"227 260 CURVE SMOOTH",
"147 260 OFFCURVE",
"99 306 OFFCURVE",
"99 359 CURVE SMOOTH",
"99 405 OFFCURVE",
"137 455 OFFCURVE",
"232 466 CURVE",
"181 525 LINE",
"68 477 OFFCURVE",
"32 413 OFFCURVE",
"32 347 CURVE SMOOTH"
);
}
);
width = 584;
},
{
anchors = (
{
name = b.uvowelsignorya;
position = "{591, 0}";
},
{
name = t.ivowelsignorya;
position = "{322, 657}";
}
);
components = (
{
name = _part.a;
transform = "{1, 0, 0, 1, -63, 0}";
}
);
layerId = "D0F0E2C3-3B53-4823-9924-A34C50245C28";
paths = (
{
closed = 1;
nodes = (
"153 512 OFFCURVE",
"224 446 OFFCURVE",
"299 379 CURVE",
"309 379 LINE",
"378 450 LINE",
"310 528 OFFCURVE",
"244 601 OFFCURVE",
"191 665 CURVE",
"181 665 LINE",
"95 576 LINE"
);
},
{
closed = 1;
nodes = (
"200 97 OFFCURVE",
"246 24 OFFCURVE",
"352 24 CURVE SMOOTH",
"439 24 OFFCURVE",
"491 77 OFFCURVE",
"510 118 CURVE",
"478 182 LINE",
"460 154 OFFCURVE",
"422 128 OFFCURVE",
"382 128 CURVE SMOOTH",
"333 128 OFFCURVE",
"310 163 OFFCURVE",
"310 193 CURVE SMOOTH",
"310 224 OFFCURVE",
"327 250 OFFCURVE",
"365 288 CURVE",
"317 336 LINE",
"247 282 OFFCURVE",
"200 229 OFFCURVE",
"200 162 CURVE SMOOTH"
);
},
{
closed = 1;
nodes = (
"27 242 OFFCURVE",
"89 165 OFFCURVE",
"194 165 CURVE SMOOTH",
"218 165 OFFCURVE",
"241 169 OFFCURVE",
"265 178 CURVE",
"302 282 LINE",
"284 275 OFFCURVE",
"266 271 OFFCURVE",
"241 271 CURVE SMOOTH",
"169 271 OFFCURVE",
"141 311 OFFCURVE",
"141 348 CURVE SMOOTH",
"141 384 OFFCURVE",
"164 423 OFFCURVE",
"250 432 CURVE",
"175 513 LINE",
"80 462 OFFCURVE",
"27 403 OFFCURVE",
"27 323 CURVE SMOOTH"
);
}
);
width = 647;
}
);
leftMetricsKey = iorya;
rightMetricsKey = aorya;
script = oriya;
category = Letter;
subCategory = Spacing;
},
{
glyphname = gadaorya;
lastChange = "2021-07-26 12:00:29 +0000";
layers = (
{
anchors = (
{
name = b.tasubscriptorya;
position = "{405, 0}";
},
{
name = b.uvowelsignorya;
position = "{588, 0}";
},
{
name = t.candrabinduorya;
position = "{524, 657}";
},
{
name = t.ivowelsignorya;
position = "{325, 657}";
}
);
components = (
{
name = dasubscriptorya;
transform = "{1, 0, 0, 1, 635, 142}";
},
{
name = _part.vo;
transform = "{1, 0, 0, 1, 53, 0}";
},
{
name = _part.g;
transform = "{1, 0, 0, 1, -2, 0}";
}
);
layerId = "6C4C2116-C5E5-460E-80F0-69F45ED98D3F";
paths = (
{
closed = 1;
nodes = (
"530 93 LINE",
"590 107 LINE",
"590 657 LINE",
"583 664 LINE",
"523 650 LINE",
"523 100 LINE"
);
}
);
width = 690;
},
{
anchors = (
{
name = b.tasubscriptorya;
position = "{443, 0}";
},
{
name = b.uvowelsignorya;
position = "{654, 0}";
},
{
name = t.candrabinduorya;
position = "{534, 657}";
},
{
name = t.ivowelsignorya;
position = "{352, 657}";
}
);
components = (
{
name = dasubscriptorya;
transform = "{1, 0, 0, 1, 633, 142}";
},
{
name = _part.vo;
transform = "{1, 0, 0, 1, -11, 0}";
},
{
name = _part.g;
transform = "{1, 0, 0, 1, -5, 0}";
}
);
layerId = "D0F0E2C3-3B53-4823-9924-A34C50245C28";
paths = (
{
closed = 1;
nodes = (
"541 51 LINE",
"654 78 LINE",
"654 657 LINE",
"647 664 LINE",
"534 637 LINE",
"534 58 LINE"
);
}
);
width = 760;
}
);
leftMetricsKey = iorya;
script = oriya;
category = Letter;
subCategory = Spacing;
},
{
glyphname = gadhaorya;
lastChange = "2021-07-27 12:25:11 +0000";
layers = (
{
anchors = (
{
name = b.uvowelsignorya;
position = "{604, 0}";
},
{
name = t.candrabinduorya;
position = "{527, 657}";
},
{
name = t.ivowelsignorya;
position = "{328, 657}";
}
);
components = (
{
name = gaorya;
}
);
layerId = "6C4C2116-C5E5-460E-80F0-69F45ED98D3F";
paths = (
{
closed = 1;
nodes = (
"544 -282 LINE",
"604 -266 LINE",
"604 82 LINE",
"597 89 LINE",
"537 73 LINE",
"537 -275 LINE"
);
},
{
closed = 1;
nodes = (
"373 58 LINE",
"333 22 LINE",
"373 -31 OFFCURVE",
"418 -80 OFFCURVE",
"468 -136 CURVE",
"478 -136 LINE",
"506 -105 LINE",
"462 -44 OFFCURVE",
"419 9 OFFCURVE",
"383 58 CURVE"
);
},
{
closed = 1;
nodes = (
"551 -140 LINE",
"526 -202 OFFCURVE",
"475 -224 OFFCURVE",
"434 -224 CURVE SMOOTH",
"385 -224 OFFCURVE",
"354 -193 OFFCURVE",
"354 -156 CURVE SMOOTH",
"354 -123 OFFCURVE",
"378 -91 OFFCURVE",
"434 -85 CURVE",
"399 -34 LINE",
"323 -65 OFFCURVE",
"298 -113 OFFCURVE",
"298 -162 CURVE SMOOTH",
"298 -232 OFFCURVE",
"350 -280 OFFCURVE",
"424 -280 CURVE SMOOTH",
"488 -280 OFFCURVE",
"544 -243 OFFCURVE",
"562 -199 CURVE"
);
}
);
width = 665;
},
{
anchors = (
{
name = b.uvowelsignorya;
position = "{661, 0}";
},
{
name = t.candrabinduorya;
position = "{539, 657}";
},
{
name = t.ivowelsignorya;
position = "{357, 657}";
}
);
components = (
{
name = gaorya;
}
);
layerId = "D0F0E2C3-3B53-4823-9924-A34C50245C28";
paths = (
{
closed = 1;
nodes = (
"548 -282 LINE",
"661 -255 LINE",
"661 157 LINE",
"654 164 LINE",
"541 137 LINE",
"541 -275 LINE"
);
},
{
closed = 1;
nodes = (
"391 56 LINE",
"319 -4 LINE",
"364 -55 OFFCURVE",
"398 -93 OFFCURVE",
"455 -146 CURVE",
"465 -146 LINE",
"514 -100 LINE",
"469 -39 OFFCURVE",
"438 6 OFFCURVE",
"401 56 CURVE"
);
},
{
closed = 1;
nodes = (
"545 -138 LINE",
"527 -173 OFFCURVE",
"486 -195 OFFCURVE",
"449 -194 CURVE SMOOTH",
"408 -194 OFFCURVE",
"381 -170 OFFCURVE",
"381 -143 CURVE SMOOTH",
"381 -119 OFFCURVE",
"399 -95 OFFCURVE",
"445 -82 CURVE",
"376 -24 LINE",
"323 -62 OFFCURVE",
"288 -115 OFFCURVE",
"288 -163 CURVE SMOOTH",
"288 -232 OFFCURVE",
"339 -282 OFFCURVE",
"422 -282 CURVE SMOOTH",
"490 -282 OFFCURVE",
"537 -252 OFFCURVE",
"570 -206 CURVE"
);
}
);
width = 717;
}
);
leftMetricsKey = iorya;
rightMetricsKey = aorya;
script = oriya;
category = Letter;
subCategory = Spacing;
},
{
glyphname = gallaUIorya;
lastChange = "2021-07-22 07:42:59 +0000";
layers = (
{
anchors = (
{
name = b.uvowelsignorya;
position = "{672, 0}";
},
{
name = t.ivowelsignorya;
position = "{331, 657}";
}
);
components = (
{
name = llasubscriptorya;
transform = "{1, 0, 0, 1, 663, 123}";
},
{
name = _part.vo;
transform = "{1, 0, 0, 1, 47, 10}";
},
{
name = _part.g;
transform = "{1, 0, 0, 1, -2, 0}";
}
);
layerId = "6C4C2116-C5E5-460E-80F0-69F45ED98D3F";
paths = (
{
closed = 1;
nodes = (
"535 73 LINE",
"595 89 LINE",
"595 657 LINE",
"588 664 LINE",
"528 648 LINE",
"528 80 LINE"
);
}
);
width = 675;
},
{
anchors = (
{
name = b.uvowelsignorya;
position = "{654, 0}";
},
{
name = t.ivowelsignorya;
position = "{352, 657}";
}
);
components = (
{
name = llasubscriptorya;
transform = "{1, 0, 0, 1, 710, 123}";
},
{
name = _part.vo;
transform = "{1, 0, 0, 1, -1, 0}";
},
{
name = _part.g;
transform = "{1, 0, 0, 1, -5, 0}";
}
);
layerId = "D0F0E2C3-3B53-4823-9924-A34C50245C28";
paths = (
{
closed = 1;
nodes = (
"541 34 LINE",
"654 61 LINE",
"654 657 LINE",
"647 664 LINE",
"534 637 LINE",
"534 41 LINE"
);
}
);
width = 710;
}
);
leftMetricsKey = iorya;
rightKerningGroup = kassannaorya;
script = oriya;
category = Letter;
subCategory = Spacing;
},
{
glyphname = gallaorya;
lastChange = "2021-07-22 07:42:59 +0000";
layers = (
{
anchors = (
{
name = b.tasubscriptorya;
position = "{409, 0}";
},
{
name = b.uvowelsignorya;
position = "{665, 0}";
},
{
name = t.candrabinduorya;
position = "{528, 657}";
},
{
name = t.ivowelsignorya;
position = "{329, 657}";
}
);
components = (
{
name = _part.vo;
transform = "{1, 0, 0, 1, 61, 0}";
},
{
name = _part.g;
transform = "{1, 0, 0, 1, -2, 0}";
},
{
name = llasubscriptorya;
transform = "{1, 0, 0, 1, 656, 63}";
}
);
layerId = "6C4C2116-C5E5-460E-80F0-69F45ED98D3F";
paths = (
{
closed = 1;
nodes = (
"535 13 LINE",
"595 27 LINE",
"595 657 LINE",
"588 664 LINE",
"528 650 LINE",
"528 20 LINE"
);
}
);
width = 661;
},
{
anchors = (
{
name = b.tasubscriptorya;
position = "{443, 0}";
},
{
name = b.uvowelsignorya;
position = "{654, 0}";
},
{
name = t.candrabinduorya;
position = "{534, 657}";
},
{
name = t.ivowelsignorya;
position = "{352, 657}";
}
);
components = (
{
name = _part.vo;
transform = "{1, 0, 0, 1, 1, 0}";
},
{
name = _part.g;
transform = "{1, 0, 0, 1, -5, 0}";
},
{
name = llasubscriptorya;
transform = "{1, 0, 0, 1, 710, 63}";
}
);
layerId = "D0F0E2C3-3B53-4823-9924-A34C50245C28";
paths = (
{
closed = 1;
nodes = (
"541 -7 LINE",
"654 20 LINE",
"654 657 LINE",
"647 664 LINE",
"534 637 LINE",
"534 0 LINE"
);
}
);
width = 710;
}
);
leftMetricsKey = iorya;
script = oriya;
category = Letter;
subCategory = Spacing;
},
{
glyphname = hasquishorya;
lastChange = "2021-07-26 14:53:37 +0000";
layers = (
{
anchors = (
{
name = b.tasubscriptorya;
position = "{310, 0}";
},
{
name = b.uvowelsignorya;
position = "{366, 0}";
},
{
name = t.candrabinduorya;
position = "{504, 657}";
},
{
name = t.ivowelsignorya;
position = "{310, 657}";
}
);
components = (
{
name = _part.halfswash;
transform = "{1, 0, 0, 1, -2, 0}";
}
);
layerId = "6C4C2116-C5E5-460E-80F0-69F45ED98D3F";
paths = (
{
closed = 1;
nodes = (
"94 82 LINE",
"229 69 OFFCURVE",
"359 46 OFFCURVE",
"483 15 CURVE",
"522 82 LINE",
"392 106 OFFCURVE",
"257 127 OFFCURVE",
"125 135 CURVE",
"135 114 LINE",
"155 149 OFFCURVE",
"179 180 OFFCURVE",
"206 210 CURVE",
"182 237 LINE",
"135 204 OFFCURVE",
"113 180 OFFCURVE",
"74 113 CURVE"
);
},
{
closed = 1;
nodes = (
"392 136 LINE",
"452 150 LINE",
"452 413 LINE",
"445 420 LINE",
"385 405 LINE",
"385 143 LINE"
);
},
{
closed = 1;
nodes = (
"140 217 OFFCURVE",
"192 164 OFFCURVE",
"270 164 CURVE SMOOTH",
"337 164 OFFCURVE",
"392 197 OFFCURVE",
"425 238 CURVE",
"418 281 LINE",
"396 261 OFFCURVE",
"345 226 OFFCURVE",
"287 226 CURVE SMOOTH",
"237 226 OFFCURVE",
"204 255 OFFCURVE",
"204 301 CURVE SMOOTH",
"204 340 OFFCURVE",
"233 376 OFFCURVE",
"286 420 CURVE",
"247 458 LINE",
"189 409 OFFCURVE",
"140 356 OFFCURVE",
"140 286 CURVE SMOOTH"
);
}
);
width = 613;
},
{
anchors = (
{
name = b.tasubscriptorya;
position = "{335, 0}";
},
{
name = b.uvowelsignorya;
position = "{384, 0}";
},
{
name = t.candrabinduorya;
position = "{494, 657}";
},
{
name = t.ivowelsignorya;
position = "{335, 657}";
}
);
components = (
{
name = _part.halfswash;
transform = "{1, 0, 0, 1, -2, 0}";
}
);
layerId = "D0F0E2C3-3B53-4823-9924-A34C50245C28";
paths = (
{
closed = 1;
nodes = (
"70 71 LINE",
"229 57 OFFCURVE",
"381 36 OFFCURVE",
"526 4 CURVE",
"597 103 LINE",
"448 127 OFFCURVE",
"295 147 OFFCURVE",
"144 155 CURVE",
"149 123 LINE",
"165 155 OFFCURVE",
"184 184 OFFCURVE",
"205 211 CURVE",
"183 237 LINE",
"126 202 OFFCURVE",
"100 174 OFFCURVE",
"52 104 CURVE"
);
},
{
closed = 1;
nodes = (
"398 162 LINE",
"511 192 LINE",
"511 394 LINE",
"504 401 LINE",
"391 371 LINE",
"391 169 LINE"
);
},
{
closed = 1;
nodes = (
"141 229 OFFCURVE",
"179 174 OFFCURVE",
"263 174 CURVE SMOOTH",
"360 174 OFFCURVE",
"421 243 OFFCURVE",
"437 301 CURVE",
"414 326 LINE",
"398 296 OFFCURVE",
"356 271 OFFCURVE",
"309 271 CURVE SMOOTH",
"257 271 OFFCURVE",
"238 295 OFFCURVE",
"238 316 CURVE SMOOTH",
"238 334 OFFCURVE",
"250 360 OFFCURVE",
"295 398 CURVE",
"249 446 LINE",
"189 404 OFFCURVE",
"141 346 OFFCURVE",
"141 281 CURVE SMOOTH"
);
}
);
width = 667;
}
);
leftKerningGroup = iorya;
rightMetricsKey = caorya;
script = oriya;
category = Letter;
subCategory = Spacing;
},
{
glyphname = jajaUIorya;
lastChange = "2021-07-26 14:53:37 +0000";
layers = (
{
anchors = (
{
name = b.tasubscriptorya;
position = "{355, 0}";
},
{
name = b.uvowelsignorya;
position = "{569, 0}";
},
{
name = t.ivowelsignorya;
position = "{355, 657}";
}
);
components = (
{
name = jasubscriptorya;
transform = "{1, 0, 0, 1, 557, 122}";
}
);
layerId = "D0F0E2C3-3B53-4823-9924-A34C50245C28";
paths = (
{
closed = 1;
nodes = (
"67 140 OFFCURVE",
"133 80 OFFCURVE",
"223 80 CURVE SMOOTH",
"265 80 OFFCURVE",
"307 88 OFFCURVE",
"345 115 CURVE",
"392 177 LINE",
"372 180 LINE",
"357 177 OFFCURVE",
"325 172 OFFCURVE",
"280 172 CURVE SMOOTH",
"205 172 OFFCURVE",
"162 216 OFFCURVE",
"162 265 CURVE SMOOTH",
"162 307 OFFCURVE",
"189 339 OFFCURVE",
"244 399 CURVE",
"197 448 LINE",
"120 379 OFFCURVE",
"67 308 OFFCURVE",
"67 225 CURVE SMOOTH"
);
},
{
closed = 1;
nodes = (
"231 216 OFFCURVE",
"259 173 OFFCURVE",
"284 144 CURVE",
"392 177 LINE",
"392 191 LINE",
"359 223 OFFCURVE",
"334 256 OFFCURVE",
"335 275 CURVE SMOOTH",
"335 284 OFFCURVE",
"337 289 OFFCURVE",
"348 289 CURVE SMOOTH",
"464 289 LINE",
"421 334 LINE",
"421 75 LINE",
"428 68 LINE",
"532 95 LINE",
"532 381 LINE",
"525 388 LINE",
"376 388 LINE SMOOTH",
"325 388 OFFCURVE",
"303 369 OFFCURVE",
"271 335 CURVE SMOOTH",
"233 292 OFFCURVE",
"231 275 OFFCURVE",
"231 257 CURVE SMOOTH"
);
},
{
closed = 1;
nodes = (
"27 349 OFFCURVE",
"45 284 OFFCURVE",
"98 227 CURVE",
"163 343 LINE",
"139 367 OFFCURVE",
"126 397 OFFCURVE",
"126 429 CURVE SMOOTH",
"126 502 OFFCURVE",
"192 550 OFFCURVE",
"290 550 CURVE SMOOTH",
"400 550 OFFCURVE",
"492 490 OFFCURVE",
"561 400 CURVE",
"571 400 LINE",
"660 499 LINE",
"572 599 OFFCURVE",
"461 667 OFFCURVE",
"325 667 CURVE SMOOTH",
"153 667 OFFCURVE",
"27 559 OFFCURVE",
"27 407 CURVE SMOOTH"
);
}
);
width = 715;
},
{
anchors = (
{
name = b.tasubscriptorya;
position = "{327, 0}";
},
{
name = b.uvowelsignorya;
position = "{567, 0}";
},
{
name = t.ivowelsignorya;
position = "{327, 657}";
}
);
components = (
{
name = jasubscriptorya;
transform = "{1, 0, 0, 1, 558, 121}";
}
);
layerId = "6C4C2116-C5E5-460E-80F0-69F45ED98D3F";
paths = (
{
closed = 1;
nodes = (
"87 102 OFFCURVE",
"151 50 OFFCURVE",
"233 50 CURVE SMOOTH",
"290 50 OFFCURVE",
"338 75 OFFCURVE",
"369 105 CURVE",
"398 170 LINE",
"377 175 LINE",
"348 148 OFFCURVE",
"298 112 OFFCURVE",
"246 112 CURVE SMOOTH",
"195 112 OFFCURVE",
"150 146 OFFCURVE",
"150 209 CURVE SMOOTH",
"150 261 OFFCURVE",
"180 326 OFFCURVE",
"259 399 CURVE",
"225 436 LINE",
"138 362 OFFCURVE",
"87 279 OFFCURVE",
"87 196 CURVE SMOOTH"
);
},
{
closed = 1;
nodes = (
"253 232 OFFCURVE",
"299 176 OFFCURVE",
"343 139 CURVE",
"398 170 LINE",
"398 179 LINE",
"354 226 OFFCURVE",
"320 270 OFFCURVE",
"320 296 CURVE SMOOTH",
"320 303 OFFCURVE",
"322 306 OFFCURVE",
"328 306 CURVE SMOOTH",
"493 306 LINE",
"448 351 LINE",
"448 60 LINE",
"455 53 LINE",
"515 67 LINE",
"515 363 LINE",
"508 370 LINE",
"347 370 LINE SMOOTH",
"314 370 OFFCURVE",
"299 358 OFFCURVE",
"279 336 CURVE SMOOTH",
"255 307 OFFCURVE",
"253 296 OFFCURVE",
"253 285 CURVE SMOOTH"
);
},
{
closed = 1;
nodes = (
"32 355 OFFCURVE",
"60 283 OFFCURVE",
"117 225 CURVE",
"148 315 LINE",
"119 343 OFFCURVE",
"100 387 OFFCURVE",
"100 436 CURVE SMOOTH",
"100 534 OFFCURVE",
"177 601 OFFCURVE",
"289 601 CURVE SMOOTH",
"426 601 OFFCURVE",
"522 491 OFFCURVE",
"559 398 CURVE",
"569 398 LINE",
"618 450 LINE",
"575 539 OFFCURVE",
"477 667 OFFCURVE",
"303 667 CURVE SMOOTH",
"138 667 OFFCURVE",
"32 559 OFFCURVE",
"32 424 CURVE SMOOTH"
);
}
);
width = 659;
}
);
leftKerningGroup = iorya;
leftMetricsKey = iorya;
script = oriya;
category = Letter;
subCategory = Spacing;
},
{
glyphname = janyaorya;
lastChange = "2021-07-22 07:42:59 +0000";
layers = (
{
anchors = (
{
name = b.tasubscriptorya;
position = "{330, 0}";
},
{
name = b.uvowelsignorya;
position = "{555, 0}";
},
{
name = t.ivowelsignorya;
position = "{308, 657}";
}
);
layerId = "6C4C2116-C5E5-460E-80F0-69F45ED98D3F";
paths = (
{
closed = 1;
nodes = (
"337 -7 LINE",
"397 7 LINE",
"397 270 LINE SMOOTH",
"397 288 OFFCURVE",
"415 307 OFFCURVE",
"440 307 CURVE SMOOTH",
"471 307 OFFCURVE",
"488 276 OFFCURVE",
"488 225 CURVE SMOOTH",
"488 0 LINE",
"494 -7 LINE",
"555 7 LINE",
"555 248 LINE SMOOTH",
"555 337 OFFCURVE",
"518 373 OFFCURVE",
"460 373 CURVE SMOOTH",
"409 373 OFFCURVE",
"347 335 OFFCURVE",
"347 268 CURVE SMOOTH",
"347 130 LINE",
"330 130 LINE",
"330 0 LINE"
);
},
{
closed = 1;
nodes = (
"54 129 OFFCURVE",
"90 72 OFFCURVE",
"149 72 CURVE SMOOTH",
"216 72 OFFCURVE",
"258 135 OFFCURVE",
"258 234 CURVE SMOOTH",
"258 316 OFFCURVE",
"223 373 OFFCURVE",
"162 373 CURVE SMOOTH",
"97 373 OFFCURVE",
"54 308 OFFCURVE",
"54 210 CURVE SMOOTH"
);
},
{
closed = 1;
nodes = (
"115 278 OFFCURVE",
"128 314 OFFCURVE",
"151 314 CURVE SMOOTH",
"179 314 OFFCURVE",
"197 264 OFFCURVE",
"197 215 CURVE SMOOTH",
"197 164 OFFCURVE",
"183 129 OFFCURVE",
"161 129 CURVE SMOOTH",
"134 129 OFFCURVE",
"115 181 OFFCURVE",
"115 229 CURVE SMOOTH"
);
},
{
closed = 1;
nodes = (
"197 129 OFFCURVE",
"233 72 OFFCURVE",
"292 72 CURVE SMOOTH",
"351 72 OFFCURVE",
"396 137 OFFCURVE",
"396 234 CURVE SMOOTH",
"396 316 OFFCURVE",
"363 373 OFFCURVE",
"305 373 CURVE SMOOTH",
"240 373 OFFCURVE",
"197 308 OFFCURVE",
"197 210 CURVE SMOOTH"
);
},
{
closed = 1;
nodes = (
"258 278 OFFCURVE",
"271 314 OFFCURVE",
"294 314 CURVE SMOOTH",
"322 314 OFFCURVE",
"340 264 OFFCURVE",
"340 215 CURVE SMOOTH",
"340 164 OFFCURVE",
"326 129 OFFCURVE",
"304 129 CURVE SMOOTH",
"277 129 OFFCURVE",
"258 181 OFFCURVE",
"258 229 CURVE SMOOTH"
);
},
{
closed = 1;
nodes = (
"179 506 OFFCURVE",
"196 456 OFFCURVE",
"212 422 CURVE",
"286 444 LINE",
"260 489 OFFCURVE",
"245 528 OFFCURVE",
"245 561 CURVE SMOOTH",
"245 586 OFFCURVE",
"263 607 OFFCURVE",
"286 607 CURVE SMOOTH",
"327 607 OFFCURVE",
"356 565 OFFCURVE",
"356 509 CURVE SMOOTH",
"356 437 LINE",
"362 430 LINE",
"419 449 LINE",
"419 560 LINE SMOOTH",
"419 590 OFFCURVE",
"433 606 OFFCURVE",
"452 606 CURVE SMOOTH",
"488 606 OFFCURVE",
"525 542 OFFCURVE",
"525 445 CURVE SMOOTH",
"525 405 OFFCURVE",
"489 376 OFFCURVE",
"446 361 CURVE",
"503 322 LINE",
"554 351 OFFCURVE",
"590 400 OFFCURVE",
"590 474 CURVE SMOOTH",
"590 587 OFFCURVE",
"535 667 OFFCURVE",
"475 667 CURVE SMOOTH",
"433 667 OFFCURVE",
"394 638 OFFCURVE",
"376 599 CURVE",
"405 577 LINE",
"393 631 OFFCURVE",
"350 667 OFFCURVE",
"300 667 CURVE SMOOTH",
"238 667 OFFCURVE",
"179 610 OFFCURVE",
"179 545 CURVE SMOOTH"
);
},
{
closed = 1;
nodes = (
"32 392 OFFCURVE",
"61 342 OFFCURVE",
"127 314 CURVE",
"192 356 LINE",
"117 386 OFFCURVE",
"97 418 OFFCURVE",
"97 461 CURVE SMOOTH",
"97 512 OFFCURVE",
"117 566 OFFCURVE",
"153 638 CURVE",
"108 665 LINE",
"61 588 OFFCURVE",
"32 518 OFFCURVE",
"32 443 CURVE SMOOTH"
);
}
);
width = 620;
},
{
anchors = (
{
name = b.tasubscriptorya;
position = "{333, 0}";
},
{
name = b.uvowelsignorya;
position = "{641, 0}";
},
{
name = t.ivowelsignorya;
position = "{346, 657}";
}
);
layerId = "D0F0E2C3-3B53-4823-9924-A34C50245C28";
paths = (
{
closed = 1;
nodes = (
"345 -8 LINE",
"452 21 LINE",
"452 234 LINE SMOOTH",
"452 250 OFFCURVE",
"465 260 OFFCURVE",
"479 260 CURVE SMOOTH",
"499 260 OFFCURVE",
"520 246 OFFCURVE",
"520 178 CURVE SMOOTH",
"520 1 LINE",
"534 -8 LINE",
"640 21 LINE",
"640 191 LINE SMOOTH",
"640 323 OFFCURVE",
"576 355 OFFCURVE",
"517 355 CURVE SMOOTH",
"447 355 OFFCURVE",
"368 301 OFFCURVE",
"368 246 CURVE SMOOTH",
"368 109 LINE",
"332 95 LINE",
"332 1 LINE"
);
},
{
closed = 1;
nodes = (
"69 138 OFFCURVE",
"108 83 OFFCURVE",
"174 83 CURVE SMOOTH",
"249 83 OFFCURVE",
"300 144 OFFCURVE",
"300 240 CURVE SMOOTH",
"300 321 OFFCURVE",
"261 377 OFFCURVE",
"194 377 CURVE SMOOTH",
"120 377 OFFCURVE",
"69 312 OFFCURVE",
"69 216 CURVE SMOOTH"
);
},
{
closed = 1;
nodes = (
"157 269 OFFCURVE",
"167 296 OFFCURVE",
"181 296 CURVE SMOOTH",
"200 296 OFFCURVE",
"212 259 OFFCURVE",
"212 223 CURVE SMOOTH",
"212 186 OFFCURVE",
"202 161 OFFCURVE",
"187 161 CURVE SMOOTH",
"169 161 OFFCURVE",
"157 198 OFFCURVE",
"157 233 CURVE SMOOTH"
);
},
{
closed = 1;
nodes = (
"213 138 OFFCURVE",
"251 83 OFFCURVE",
"317 83 CURVE SMOOTH",
"393 83 OFFCURVE",
"443 144 OFFCURVE",
"443 240 CURVE SMOOTH",
"443 321 OFFCURVE",
"404 377 OFFCURVE",
"337 377 CURVE SMOOTH",
"263 377 OFFCURVE",
"213 312 OFFCURVE",
"213 216 CURVE SMOOTH"
);
},
{
closed = 1;
nodes = (
"301 269 OFFCURVE",
"310 296 OFFCURVE",
"324 296 CURVE SMOOTH",
"343 296 OFFCURVE",
"355 259 OFFCURVE",
"355 223 CURVE SMOOTH",
"355 186 OFFCURVE",
"345 161 OFFCURVE",
"331 161 CURVE SMOOTH",
"312 161 OFFCURVE",
"301 198 OFFCURVE",
"301 233 CURVE SMOOTH"
);
},
{
closed = 1;
nodes = (
"193 484 OFFCURVE",
"206 447 OFFCURVE",
"218 421 CURVE",
"325 449 LINE",
"306 480 OFFCURVE",
"290 512 OFFCURVE",
"290 542 CURVE SMOOTH",
"290 558 OFFCURVE",
"300 570 OFFCURVE",
"318 570 CURVE SMOOTH",
"347 570 OFFCURVE",
"381 546 OFFCURVE",
"381 470 CURVE SMOOTH",
"381 436 LINE",
"388 429 LINE",
"467 450 LINE",
"467 512 LINE SMOOTH",
"467 544 OFFCURVE",
"479 564 OFFCURVE",
"499 564 CURVE SMOOTH",
"532 564 OFFCURVE",
"556 510 OFFCURVE",
"556 456 CURVE SMOOTH",
"556 375 OFFCURVE",
"491 341 OFFCURVE",
"391 339 CURVE",
"388 280 LINE",
"579 287 OFFCURVE",
"660 353 OFFCURVE",
"660 497 CURVE SMOOTH",
"660 598 OFFCURVE",
"612 667 OFFCURVE",
"543 667 CURVE SMOOTH",
"488 667 OFFCURVE",
"437 626 OFFCURVE",
"424 576 CURVE",
"444 565 LINE",
"436 636 OFFCURVE",
"393 667 OFFCURVE",
"345 667 CURVE SMOOTH",
"267 667 OFFCURVE",
"193 602 OFFCURVE",
"193 522 CURVE SMOOTH"
);
},
{
closed = 1;
nodes = (
"27 381 OFFCURVE",
"58 336 OFFCURVE",
"118 306 CURVE",
"213 368 LINE",
"156 392 OFFCURVE",
"122 428 OFFCURVE",
"122 471 CURVE SMOOTH",
"122 512 OFFCURVE",
"144 559 OFFCURVE",
"199 631 CURVE",
"145 666 LINE",
"76 589 OFFCURVE",
"27 510 OFFCURVE",
"27 438 CURVE SMOOTH"
);
}
);
width = 691;
}
);
leftMetricsKey = iorya;
script = oriya;
category = Letter;
subCategory = Spacing;
},
{
glyphname = kassannaorya;
lastChange = "2021-07-29 09:44:16 +0000";
layers = (
{
anchors = (
{
name = b.tasubscriptorya;
position = "{419, 0}";
},
{
name = t.candrabinduorya;
position = "{539, 657}";
},
{
name = t.ivowelsignorya;
position = "{337, 657}";
}
);
components = (
{
name = nnasubscriptorya;
transform = "{1, 0, 0, 1, 705, 81}";
}
);
layerId = "6C4C2116-C5E5-460E-80F0-69F45ED98D3F";
paths = (
{
closed = 1;
nodes = (
"46 357 OFFCURVE",
"103 271 OFFCURVE",
"206 245 CURVE",
"232 311 LINE",
"158 333 OFFCURVE",
"114 392 OFFCURVE",
"114 456 CURVE SMOOTH",
"114 535 OFFCURVE",
"181 601 OFFCURVE",
"298 601 CURVE SMOOTH",
"415 601 OFFCURVE",
"503 536 OFFCURVE",
"548 460 CURVE",
"585 511 LINE",
"547 586 OFFCURVE",
"446 667 OFFCURVE",
"308 667 CURVE SMOOTH",
"152 667 OFFCURVE",
"46 563 OFFCURVE",
"46 444 CURVE SMOOTH"
);
},
{
closed = 1;
nodes = (
"10 58 OFFCURVE",
"42 38 OFFCURVE",
"71 38 CURVE SMOOTH",
"103 38 OFFCURVE",
"132 63 OFFCURVE",
"132 98 CURVE SMOOTH",
"132 128 OFFCURVE",
"111 152 OFFCURVE",
"75 163 CURVE",
"80 141 LINE",
"109 199 OFFCURVE",
"176 252 OFFCURVE",
"261 283 CURVE",
"250 317 LINE",
"147 295 OFFCURVE",
"10 182 OFFCURVE",
"10 106 CURVE SMOOTH"
);
},
{
closed = 1;
nodes = (
"546 33 LINE",
"606 47 LINE",
"606 657 LINE",
"599 664 LINE",
"539 650 LINE",
"539 40 LINE"
);
},
{
closed = 1;
nodes = (
"517 61 LINE",
"560 80 LINE",
"210 602 LINE",
"173 578 LINE"
);
},
{
closed = 1;
nodes = (
"157 69 OFFCURVE",
"221 -21 OFFCURVE",
"355 -21 CURVE SMOOTH",
"440 -21 OFFCURVE",
"524 13 OFFCURVE",
"583 68 CURVE",
"567 111 LINE",
"513 71 OFFCURVE",
"447 44 OFFCURVE",
"376 44 CURVE SMOOTH",
"271 44 OFFCURVE",
"225 108 OFFCURVE",
"225 172 CURVE SMOOTH",
"225 223 OFFCURVE",
"254 273 OFFCURVE",
"347 342 CURVE",
"309 382 LINE",
"208 309 OFFCURVE",
"157 233 OFFCURVE",
"157 156 CURVE SMOOTH"
);
}
);
width = 737;
},
{
anchors = (
{
name = b.tasubscriptorya;
position = "{499, 0}";
},
{
name = t.candrabinduorya;
position = "{590, 657}";
},
{
name = t.ivowelsignorya;
position = "{405, 657}";
}
);
components = (
{
name = nnasubscriptorya;
transform = "{1, 0, 0, 1, 794, 81}";
}
);
layerId = "D0F0E2C3-3B53-4823-9924-A34C50245C28";
paths = (
{
closed = 1;
nodes = (
"90 330 OFFCURVE",
"122 272 OFFCURVE",
"194 219 CURVE",
"314 297 LINE",
"239 318 OFFCURVE",
"190 370 OFFCURVE",
"190 428 CURVE SMOOTH",
"190 499 OFFCURVE",
"262 547 OFFCURVE",
"365 547 CURVE SMOOTH",
"483 547 OFFCURVE",
"580 481 OFFCURVE",
"624 379 CURVE",
"671 500 LINE",
"624 598 OFFCURVE",
"511 667 OFFCURVE",
"383 667 CURVE SMOOTH",
"217 667 OFFCURVE",
"90 554 OFFCURVE",
"90 404 CURVE SMOOTH"
);
},
{
closed = 1;
nodes = (
"32 63 OFFCURVE",
"65 20 OFFCURVE",
"116 20 CURVE SMOOTH",
"164 20 OFFCURVE",
"205 54 OFFCURVE",
"205 110 CURVE SMOOTH",
"205 159 OFFCURVE",
"169 198 OFFCURVE",
"126 202 CURVE",
"145 178 LINE",
"154 198 OFFCURVE",
"214 227 OFFCURVE",
"329 241 CURVE",
"296 297 LINE",
"117 269 OFFCURVE",
"32 202 OFFCURVE",
"32 114 CURVE SMOOTH"
);
},
{
closed = 1;
nodes = (
"597 27 LINE",
"710 54 LINE",
"710 663 LINE",
"703 670 LINE",
"590 643 LINE",
"590 34 LINE"
);
},
{
closed = 1;
nodes = (
"574 66 LINE",
"630 118 LINE",
"301 588 LINE",
"245 536 LINE"
);
},
{
closed = 1;
nodes = (
"233 32 OFFCURVE",
"320 -38 OFFCURVE",
"428 -36 CURVE SMOOTH",
"535 -35 OFFCURVE",
"637 40 OFFCURVE",
"669 97 CURVE",
"685 167 LINE",
"634 108 OFFCURVE",
"570 71 OFFCURVE",
"490 71 CURVE SMOOTH",
"395 71 OFFCURVE",
"335 121 OFFCURVE",
"335 180 CURVE SMOOTH",
"335 214 OFFCURVE",
"356 256 OFFCURVE",
"428 316 CURVE",
"375 369 LINE",
"291 297 OFFCURVE",
"233 223 OFFCURVE",
"233 137 CURVE SMOOTH"
);
}
);
width = 829;
}
);
leftKerningGroup = yaorya;
leftMetricsKey = yaorya;
rightKerningGroup = kassannaorya;
script = oriya;
category = Letter;
subCategory = Spacing;
},
{
glyphname = kassaorya;
lastChange = "2021-07-21 17:09:43 +0000";
layers = (
{
anchors = (
{
name = b.uvowelsignorya;
position = "{616, 0}";
},
{
name = t.ivowelsignorya;
position = "{352, 657}";
}
);
components = (
{
name = yaorya;
}
);
layerId = "6C4C2116-C5E5-460E-80F0-69F45ED98D3F";
paths = (
{
closed = 1;
nodes = (
"517 72 LINE",
"548 108 LINE",
"217 602 LINE",
"180 578 LINE"
);
}
);
width = 677;
},
{
anchors = (
{
name = b.uvowelsignorya;
position = "{705, 0}";
},
{
name = t.ivowelsignorya;
position = "{390, 657}";
}
);
components = (
{
name = yaorya;
}
);
layerId = "D0F0E2C3-3B53-4823-9924-A34C50245C28";
paths = (
{
closed = 1;
nodes = (
"526 96 LINE",
"582 148 LINE",
"289 584 LINE",
"233 532 LINE"
);
}
);
width = 762;
}
);
leftKerningGroup = yaorya;
leftMetricsKey = yaorya;
rightMetricsKey = aorya;
script = oriya;
category = Letter;
subCategory = Spacing;
},
{
glyphname = laphaorya;
lastChange = "2021-07-22 07:46:18 +0000";
layers = (
{
anchors = (
{
name = b.rrvocalicvowelsignleftorya;
position = "{447, -49}";
},
{
name = b.tasubscriptorya;
position = "{326, 0}";
},
{
name = b.uvowelsignorya;
position = "{484, 0}";
},
{
name = t.candrabinduorya;
position = "{528, 657}";
},
{
name = t.ivowelsignorya;
position = "{326, 657}";
}
);
components = (
{
name = pasubscriptloworya;
transform = "{1, 0, 0, 1, 461, 259}";
},
{
name = _part.lahalf;
transform = "{1, 0, 0, 1, -10, 6}";
}
);
layerId = "6C4C2116-C5E5-460E-80F0-69F45ED98D3F";
paths = (
{
closed = 1;
nodes = (
"32 370 OFFCURVE",
"68 295 OFFCURVE",
"137 256 CURVE",
"166 343 LINE",
"132 363 OFFCURVE",
"100 399 OFFCURVE",
"100 455 CURVE SMOOTH",
"100 544 OFFCURVE",
"179 601 OFFCURVE",
"313 601 CURVE SMOOTH",
"452 601 OFFCURVE",
"569 540 OFFCURVE",
"569 421 CURVE SMOOTH",
"569 364 OFFCURVE",
"543 305 OFFCURVE",
"518 265 CURVE",
"518 240 LINE",
"639 105 LINE",
"653 105 LINE",
"700 148 LINE",
"545 294 LINE",
"561 251 LINE",
"599 301 OFFCURVE",
"640 361 OFFCURVE",
"640 438 CURVE SMOOTH",
"640 574 OFFCURVE",
"510 667 OFFCURVE",
"328 667 CURVE SMOOTH",
"141 667 OFFCURVE",
"32 571 OFFCURVE",
"32 444 CURVE SMOOTH"
);
},
{
closed = 1;
nodes = (
"442 -6 OFFCURVE",
"477 -46 OFFCURVE",
"525 -46 CURVE SMOOTH",
"587 -46 OFFCURVE",
"619 6 OFFCURVE",
"619 49 CURVE SMOOTH",
"619 97 OFFCURVE",
"583 139 OFFCURVE",
"530 139 CURVE SMOOTH",
"476 139 OFFCURVE",
"442 91 OFFCURVE",
"442 45 CURVE SMOOTH"
);
},
{
closed = 1;
nodes = (
"485 78 OFFCURVE",
"499 88 OFFCURVE",
"517 88 CURVE SMOOTH",
"546 88 OFFCURVE",
"568 64 OFFCURVE",
"568 38 CURVE SMOOTH",
"568 17 OFFCURVE",
"553 7 OFFCURVE",
"534 7 CURVE SMOOTH",
"506 7 OFFCURVE",
"485 31 OFFCURVE",
"485 57 CURVE SMOOTH"
);
}
);
width = 711;
},
{
anchors = (
{
name = b.rrvocalicvowelsignleftorya;
position = "{505, -49}";
},
{
name = b.tasubscriptorya;
position = "{355, 0}";
},
{
name = b.uvowelsignorya;
position = "{542, 0}";
},
{
name = t.candrabinduorya;
position = "{539, 657}";
},
{
name = t.ivowelsignorya;
position = "{355, 657}";
}
);
components = (
{
name = pasubscriptloworya;
transform = "{1, 0, 0, 1, 499, 259}";
},
{
name = _part.lahalf;
transform = "{1, 0, 0, 1, -8, 0}";
}
);
layerId = "D0F0E2C3-3B53-4823-9924-A34C50245C28";
paths = (
{
closed = 1;
nodes = (
"27 334 OFFCURVE",
"66 259 OFFCURVE",
"135 211 CURVE",
"196 356 LINE",
"156 368 OFFCURVE",
"127 397 OFFCURVE",
"127 436 CURVE SMOOTH",
"127 518 OFFCURVE",
"236 548 OFFCURVE",
"333 548 CURVE SMOOTH",
"462 548 OFFCURVE",
"603 488 OFFCURVE",
"603 362 CURVE SMOOTH",
"603 325 OFFCURVE",
"593 299 OFFCURVE",
"580 275 CURVE",
"580 250 LINE",
"686 115 LINE",
"700 115 LINE",
"792 198 LINE",
"637 344 LINE",
"659 266 LINE",
"700 313 OFFCURVE",
"719 361 OFFCURVE",
"719 416 CURVE SMOOTH",
"719 547 OFFCURVE",
"581 667 OFFCURVE",
"366 667 CURVE SMOOTH",
"162 667 OFFCURVE",
"27 565 OFFCURVE",
"27 407 CURVE SMOOTH"
);
},
{
closed = 1;
nodes = (
"490 -6 OFFCURVE",
"525 -46 OFFCURVE",
"573 -46 CURVE SMOOTH",
"635 -46 OFFCURVE",
"667 6 OFFCURVE",
"667 49 CURVE SMOOTH",
"667 97 OFFCURVE",
"631 139 OFFCURVE",
"578 139 CURVE SMOOTH",
"524 139 OFFCURVE",
"490 91 OFFCURVE",
"490 45 CURVE SMOOTH"
);
},
{
closed = 1;
nodes = (
"545 69 OFFCURVE",
"555 76 OFFCURVE",
"568 76 CURVE SMOOTH",
"588 76 OFFCURVE",
"604 59 OFFCURVE",
"604 41 CURVE SMOOTH",
"604 26 OFFCURVE",
"593 19 OFFCURVE",
"580 19 CURVE SMOOTH",
"560 19 OFFCURVE",
"545 36 OFFCURVE",
"545 54 CURVE SMOOTH"
);
}
);
width = 797;
}
);
leftMetricsKey = iorya;
rightKerningGroup = iorya;
rightMetricsKey = caorya;
script = oriya;
category = Letter;
subCategory = Spacing;
},
{
glyphname = llaphaorya;
lastChange = "2021-07-22 07:42:59 +0000";
layers = (
{
anchors = (
{
name = b.rrvocalicvowelsignleftorya;
position = "{477, -49}";
},
{
name = b.tasubscriptorya;
position = "{331, 0}";
},
{
name = b.uvowelsignorya;
position = "{493, 0}";
},
{
name = t.candrabinduorya;
position = "{533, 657}";
},
{
name = t.ivowelsignorya;
position = "{331, 657}";
}
);
components = (
{
name = llapaorya;
}
);
layerId = "6C4C2116-C5E5-460E-80F0-69F45ED98D3F";
paths = (
{
closed = 1;
nodes = (
"484 139 OFFCURVE",
"450 91 OFFCURVE",
"450 45 CURVE SMOOTH",
"450 -6 OFFCURVE",
"485 -46 OFFCURVE",
"533 -46 CURVE SMOOTH",
"595 -46 OFFCURVE",
"627 6 OFFCURVE",
"627 49 CURVE SMOOTH",
"627 97 OFFCURVE",
"591 139 OFFCURVE",
"538 139 CURVE SMOOTH"
);
},
{
closed = 1;
nodes = (
"493 78 OFFCURVE",
"507 88 OFFCURVE",
"525 88 CURVE SMOOTH",
"554 88 OFFCURVE",
"576 64 OFFCURVE",
"576 38 CURVE SMOOTH",
"576 17 OFFCURVE",
"561 7 OFFCURVE",
"542 7 CURVE SMOOTH",
"514 7 OFFCURVE",
"493 31 OFFCURVE",
"493 57 CURVE SMOOTH"
);
}
);
width = 663;
},
{
anchors = (
{
name = b.rrvocalicvowelsignleftorya;
position = "{536, -49}";
},
{
name = b.tasubscriptorya;
position = "{360, 0}";
},
{
name = b.uvowelsignorya;
position = "{559, 0}";
},
{
name = t.candrabinduorya;
position = "{544, 657}";
},
{
name = t.ivowelsignorya;
position = "{360, 657}";
}
);
components = (
{
name = llapaorya;
}
);
layerId = "D0F0E2C3-3B53-4823-9924-A34C50245C28";
paths = (
{
closed = 1;
nodes = (
"538 139 OFFCURVE",
"504 91 OFFCURVE",
"504 45 CURVE SMOOTH",
"504 -6 OFFCURVE",
"539 -46 OFFCURVE",
"587 -46 CURVE SMOOTH",
"649 -46 OFFCURVE",
"681 6 OFFCURVE",
"681 49 CURVE SMOOTH",
"681 97 OFFCURVE",
"645 139 OFFCURVE",
"592 139 CURVE SMOOTH"
);
},
{
closed = 1;
nodes = (
"559 69 OFFCURVE",
"569 76 OFFCURVE",
"582 76 CURVE SMOOTH",
"602 76 OFFCURVE",
"618 59 OFFCURVE",
"618 41 CURVE SMOOTH",
"618 26 OFFCURVE",
"607 19 OFFCURVE",
"594 19 CURVE SMOOTH",
"574 19 OFFCURVE",
"559 36 OFFCURVE",
"559 54 CURVE SMOOTH"
);
}
);
width = 701;
}
);
leftMetricsKey = iorya;
script = oriya;
category = Letter;
subCategory = Spacing;
},
{
glyphname = mabhaorya;
lastChange = "2021-07-26 14:53:37 +0000";
layers = (
{
anchors = (
{
name = b.tasubscriptorya;
position = "{396, 0}";
},
{
name = b.uvowelsignorya;
position = "{583, 0}";
},
{
name = t.candrabinduorya;
position = "{516, 657}";
},
{
name = t.ivowelsignorya;
position = "{320, 657}";
}
);
layerId = "6C4C2116-C5E5-460E-80F0-69F45ED98D3F";
paths = (
{
closed = 1;
nodes = (
"622 -35 LINE",
"636 -35 LINE",
"680 8 LINE",
"542 127 LINE",
"530 83 LINE",
"618 149 OFFCURVE",
"643 183 OFFCURVE",
"643 217 CURVE SMOOTH",
"643 254 OFFCURVE",
"607 273 OFFCURVE",
"543 280 CURVE",
"583 247 LINE",
"583 657 LINE",
"576 664 LINE",
"516 649 LINE",
"516 233 LINE",
"558 226 OFFCURVE",
"574 217 OFFCURVE",
"574 200 CURVE SMOOTH",
"574 182 OFFCURVE",
"562 166 OFFCURVE",
"500 118 CURVE",
"500 90 LINE"
);
},
{
closed = 1;
nodes = (
"102 14 OFFCURVE",
"133 -7 OFFCURVE",
"162 -7 CURVE SMOOTH",
"193 -7 OFFCURVE",
"218 17 OFFCURVE",
"218 50 CURVE SMOOTH",
"218 83 OFFCURVE",
"196 108 OFFCURVE",
"158 114 CURVE",
"167 97 LINE",
"193 185 OFFCURVE",
"252 258 OFFCURVE",
"384 304 CURVE",
"358 363 LINE",
"188 299 OFFCURVE",
"102 175 OFFCURVE",
"102 69 CURVE SMOOTH"
);
},
{
closed = 1;
nodes = (
"32 337 OFFCURVE",
"85 250 OFFCURVE",
"175 196 CURVE",
"233 270 LINE",
"154 296 OFFCURVE",
"100 362 OFFCURVE",
"100 443 CURVE SMOOTH",
"100 527 OFFCURVE",
"164 601 OFFCURVE",
"289 601 CURVE SMOOTH",
"404 601 OFFCURVE",
"508 535 OFFCURVE",
"536 419 CURVE",
"571 470 LINE",
"550 585 OFFCURVE",
"435 667 OFFCURVE",
"296 667 CURVE SMOOTH",
"135 667 OFFCURVE",
"32 554 OFFCURVE",
"32 431 CURVE SMOOTH"
);
}
);
width = 682;
},
{
anchors = (
{
name = b.tasubscriptorya;
position = "{434, 0}";
},
{
name = b.uvowelsignorya;
position = "{612, 0}";
},
{
name = t.candrabinduorya;
position = "{526, 657}";
},
{
name = t.ivowelsignorya;
position = "{349, 657}";
}
);
layerId = "D0F0E2C3-3B53-4823-9924-A34C50245C28";
paths = (
{
closed = 1;
nodes = (
"633 -82 LINE",
"644 -82 LINE",
"738 2 LINE",
"613 115 LINE",
"617 71 LINE",
"669 93 OFFCURVE",
"726 133 OFFCURVE",
"726 181 CURVE SMOOTH",
"726 220 OFFCURVE",
"696 257 OFFCURVE",
"591 253 CURVE",
"646 206 LINE",
"646 663 LINE",
"639 670 LINE",
"526 643 LINE",
"526 201 LINE",
"592 197 OFFCURVE",
"612 185 OFFCURVE",
"612 167 CURVE SMOOTH",
"612 147 OFFCURVE",
"588 126 OFFCURVE",
"512 91 CURVE",
"512 59 LINE"
);
},
{
closed = 1;
nodes = (
"129 28 OFFCURVE",
"163 -10 OFFCURVE",
"218 -10 CURVE SMOOTH",
"270 -10 OFFCURVE",
"312 30 OFFCURVE",
"312 86 CURVE SMOOTH",
"312 135 OFFCURVE",
"275 171 OFFCURVE",
"232 172 CURVE",
"248 148 LINE",
"247 194 OFFCURVE",
"296 254 OFFCURVE",
"421 290 CURVE",
"386 362 LINE",
"210 310 OFFCURVE",
"129 195 OFFCURVE",
"129 87 CURVE SMOOTH"
);
},
{
closed = 1;
nodes = (
"27 312 OFFCURVE",
"70 239 OFFCURVE",
"157 178 CURVE",
"247 292 LINE",
"174 313 OFFCURVE",
"127 366 OFFCURVE",
"127 424 CURVE SMOOTH",
"127 497 OFFCURVE",
"199 547 OFFCURVE",
"302 547 CURVE SMOOTH",
"420 547 OFFCURVE",
"517 481 OFFCURVE",
"561 379 CURVE",
"608 500 LINE",
"561 598 OFFCURVE",
"448 667 OFFCURVE",
"320 667 CURVE SMOOTH",
"154 667 OFFCURVE",
"27 552 OFFCURVE",
"27 401 CURVE SMOOTH"
);
}
);
width = 736;
}
);
leftMetricsKey = iorya;
rightKerningGroup = kassannaorya;
rightMetricsKey = iorya;
script = oriya;
category = Letter;
subCategory = Spacing;
},
{
glyphname = mamaUIorya;
lastChange = "2021-07-22 07:42:59 +0000";
layers = (
{
anchors = (
{
name = b.uvowelsignorya;
position = "{585, 0}";
},
{
name = t.ivowelsignorya;
position = "{322, 657}";
}
);
components = (
{
name = _part.ma;
transform = "{1, 0, 0, 1, -2, 0}";
}
);
layerId = "6C4C2116-C5E5-460E-80F0-69F45ED98D3F";
paths = (
{
closed = 1;
nodes = (
"242 29 OFFCURVE",
"267 -18 OFFCURVE",
"306 -47 CURVE",
"345 15 LINE",
"313 36 OFFCURVE",
"299 62 OFFCURVE",
"299 86 CURVE SMOOTH",
"299 125 OFFCURVE",
"337 148 OFFCURVE",
"385 148 CURVE SMOOTH",
"449 148 OFFCURVE",
"511 109 OFFCURVE",
"540 33 CURVE",
"546 134 LINE",
"509 190 OFFCURVE",
"444 210 OFFCURVE",
"397 210 CURVE SMOOTH",
"309 210 OFFCURVE",
"242 151 OFFCURVE",
"242 75 CURVE SMOOTH"
);
},
{
closed = 1;
nodes = (
"525 -160 LINE",
"585 -144 LINE",
"585 197 LINE",
"518 197 LINE",
"518 -153 LINE"
);
},
{
closed = 1;
nodes = (
"262 -139 OFFCURVE",
"282 -160 OFFCURVE",
"309 -160 CURVE SMOOTH",
"338 -160 OFFCURVE",
"361 -139 OFFCURVE",
"361 -113 CURVE SMOOTH",
"361 -84 OFFCURVE",
"337 -66 OFFCURVE",
"311 -65 CURVE",
"333 -104 LINE",
"332 -57 OFFCURVE",
"344 -31 OFFCURVE",
"434 4 CURVE",
"414 50 LINE",
"316 15 OFFCURVE",
"262 -49 OFFCURVE",
"262 -107 CURVE SMOOTH"
);
}
);
width = 646;
},
{
anchors = (
{
name = b.uvowelsignorya;
position = "{656, 0}";
},
{
name = t.ivowelsignorya;
position = "{356, 657}";
}
);
components = (
{
name = _part.ma;
transform = "{1, 0, 0, 1, 5, 0}";
}
);
layerId = "D0F0E2C3-3B53-4823-9924-A34C50245C28";
paths = (
{
closed = 1;
nodes = (
"271 11 OFFCURVE",
"306 -34 OFFCURVE",
"351 -54 CURVE",
"408 25 LINE",
"380 33 OFFCURVE",
"353 58 OFFCURVE",
"353 82 CURVE SMOOTH",
"353 109 OFFCURVE",
"381 125 OFFCURVE",
"424 125 CURVE SMOOTH",
"489 125 OFFCURVE",
"544 86 OFFCURVE",
"570 41 CURVE",
"603 134 LINE",
"568 175 OFFCURVE",
"516 215 OFFCURVE",
"442 215 CURVE SMOOTH",
"352 215 OFFCURVE",
"271 148 OFFCURVE",
"271 62 CURVE SMOOTH"
);
},
{
closed = 1;
nodes = (
"543 -161 LINE",
"656 -134 LINE",
"656 199 LINE",
"536 199 LINE",
"536 -154 LINE"
);
},
{
closed = 1;
nodes = (
"290 -126 OFFCURVE",
"312 -154 OFFCURVE",
"352 -154 CURVE SMOOTH",
"384 -154 OFFCURVE",
"411 -129 OFFCURVE",
"411 -93 CURVE SMOOTH",
"411 -58 OFFCURVE",
"385 -33 OFFCURVE",
"354 -32 CURVE",
"375 -41 LINE",
"374 -24 OFFCURVE",
"407 -2 OFFCURVE",
"461 13 CURVE",
"444 59 LINE",
"347 39 OFFCURVE",
"290 -30 OFFCURVE",
"290 -86 CURVE SMOOTH"
);
}
);
width = 712;
}
);
leftMetricsKey = iorya;
rightMetricsKey = aorya;
script = oriya;
category = Letter;
subCategory = Spacing;
},
{
glyphname = mamaorya;
lastChange = "2021-07-22 07:42:59 +0000";
layers = (
{
anchors = (
{
name = b.uvowelsignorya;
position = "{585, 0}";
},
{
name = t.ivowelsignorya;
position = "{322, 657}";
}
);
components = (
{
name = _part.ma;
transform = "{1, 0, 0, 1, -2, 0}";
}
);
layerId = "6C4C2116-C5E5-460E-80F0-69F45ED98D3F";
paths = (
{
closed = 1;
nodes = (
"233 -30 OFFCURVE",
"258 -77 OFFCURVE",
"297 -106 CURVE",
"336 -44 LINE",
"304 -23 OFFCURVE",
"290 3 OFFCURVE",
"290 27 CURVE SMOOTH",
"290 66 OFFCURVE",
"328 89 OFFCURVE",
"376 89 CURVE SMOOTH",
"440 89 OFFCURVE",
"502 50 OFFCURVE",
"531 -26 CURVE",
"537 75 LINE",
"500 131 OFFCURVE",
"435 151 OFFCURVE",
"388 151 CURVE SMOOTH",
"300 151 OFFCURVE",
"233 92 OFFCURVE",
"233 16 CURVE SMOOTH"
);
},
{
closed = 1;
nodes = (
"525 -218 LINE",
"585 -202 LINE",
"585 139 LINE",
"518 139 LINE",
"518 -211 LINE"
);
},
{
closed = 1;
nodes = (
"253 -198 OFFCURVE",
"273 -219 OFFCURVE",
"300 -219 CURVE SMOOTH",
"329 -219 OFFCURVE",
"352 -198 OFFCURVE",
"352 -172 CURVE SMOOTH",
"352 -143 OFFCURVE",
"328 -125 OFFCURVE",
"302 -124 CURVE",
"324 -163 LINE",
"323 -116 OFFCURVE",
"335 -90 OFFCURVE",
"425 -55 CURVE",
"405 -9 LINE",
"307 -44 OFFCURVE",
"253 -108 OFFCURVE",
"253 -166 CURVE SMOOTH"
);
}
);
width = 646;
},
{
anchors = (
{
name = b.uvowelsignorya;
position = "{656, 0}";
},
{
name = t.ivowelsignorya;
position = "{359, 657}";
}
);
components = (
{
name = _part.ma;
transform = "{1, 0, 0, 1, 5, 0}";
}
);
layerId = "D0F0E2C3-3B53-4823-9924-A34C50245C28";
paths = (
{
closed = 1;
nodes = (
"268 -53 OFFCURVE",
"303 -98 OFFCURVE",
"348 -118 CURVE",
"405 -39 LINE",
"377 -31 OFFCURVE",
"350 -6 OFFCURVE",
"350 18 CURVE SMOOTH",
"350 45 OFFCURVE",
"378 61 OFFCURVE",
"421 61 CURVE SMOOTH",
"486 61 OFFCURVE",
"541 22 OFFCURVE",
"567 -23 CURVE",
"600 70 LINE",
"565 111 OFFCURVE",
"513 151 OFFCURVE",
"439 151 CURVE SMOOTH",
"349 151 OFFCURVE",
"268 84 OFFCURVE",
"268 -2 CURVE SMOOTH"
);
},
{
closed = 1;
nodes = (
"543 -219 LINE",
"656 -192 LINE",
"656 124 LINE",
"536 124 LINE",
"536 -212 LINE"
);
},
{
closed = 1;
nodes = (
"292 -190 OFFCURVE",
"314 -218 OFFCURVE",
"354 -218 CURVE SMOOTH",
"386 -218 OFFCURVE",
"413 -193 OFFCURVE",
"413 -157 CURVE SMOOTH",
"413 -122 OFFCURVE",
"387 -97 OFFCURVE",
"356 -96 CURVE",
"377 -105 LINE",
"376 -88 OFFCURVE",
"409 -66 OFFCURVE",
"463 -51 CURVE",
"446 -5 LINE",
"349 -25 OFFCURVE",
"292 -94 OFFCURVE",
"292 -150 CURVE SMOOTH"
);
}
);
width = 712;
}
);
leftMetricsKey = iorya;
rightMetricsKey = aorya;
script = oriya;
category = Letter;
subCategory = Spacing;
},
{
glyphname = mapaorya;
lastChange = "2021-07-28 18:33:22 +0000";
layers = (
{
anchors = (
{
name = b.uvowelsignorya;
position = "{595, 0}";
},
{
name = t.ivowelsignorya;
position = "{323, 657}";
}
);
components = (
{
name = aavowelsignorya;
transform = "{1, 0, 0, 1, 458, 0}";
}
);
layerId = "6C4C2116-C5E5-460E-80F0-69F45ED98D3F";
paths = (
{
closed = 1;
nodes = (
"654 346 LINE",
"689 370 LINE",
"459 724 LINE",
"424 701 LINE"
);
},
{
closed = 1;
nodes = (
"291 430 OFFCURVE",
"339 382 OFFCURVE",
"411 382 CURVE SMOOTH",
"498 382 OFFCURVE",
"557 453 OFFCURVE",
"568 564 CURVE",
"533 610 LINE",
"533 510 OFFCURVE",
"495 447 OFFCURVE",
"427 447 CURVE SMOOTH",
"387 447 OFFCURVE",
"358 470 OFFCURVE",
"358 510 CURVE SMOOTH",
"358 546 OFFCURVE",
"382 591 OFFCURVE",
"426 635 CURVE",
"426 649 LINE",
"365 628 LINE",
"313 579 OFFCURVE",
"291 539 OFFCURVE",
"291 495 CURVE SMOOTH"
);
},
{
closed = 1;
nodes = (
"32 350 OFFCURVE",
"77 271 OFFCURVE",
"150 221 CURVE",
"209 278 LINE",
"149 314 OFFCURVE",
"100 369 OFFCURVE",
"100 445 CURVE SMOOTH",
"100 519 OFFCURVE",
"161 601 OFFCURVE",
"296 601 CURVE SMOOTH",
"322 601 OFFCURVE",
"356 598 OFFCURVE",
"377 595 CURVE",
"426 649 LINE",
"399 659 OFFCURVE",
"352 667 OFFCURVE",
"306 667 CURVE SMOOTH",
"126 667 OFFCURVE",
"32 548 OFFCURVE",
"32 430 CURVE SMOOTH"
);
},
{
closed = 1;
nodes = (
"89 14 OFFCURVE",
"120 -7 OFFCURVE",
"149 -7 CURVE SMOOTH",
"180 -7 OFFCURVE",
"205 17 OFFCURVE",
"205 50 CURVE SMOOTH",
"205 83 OFFCURVE",
"183 108 OFFCURVE",
"145 114 CURVE",
"154 97 LINE",
"178 179 OFFCURVE",
"231 247 OFFCURVE",
"350 290 CURVE",
"324 349 LINE",
"168 288 OFFCURVE",
"89 170 OFFCURVE",
"89 69 CURVE SMOOTH"
);
}
);
width = 674;
},
{
anchors = (
{
name = b.uvowelsignorya;
position = "{691, 0}";
},
{
name = t.ivowelsignorya;
position = "{368, 657}";
}
);
components = (
{
name = aavowelsignorya;
transform = "{1, 0, 0, 1, 510, 0}";
}
);
layerId = "D0F0E2C3-3B53-4823-9924-A34C50245C28";
paths = (
{
closed = 1;
nodes = (
"719 306 LINE",
"770 340 LINE",
"513 732 LINE",
"463 701 LINE"
);
},
{
closed = 1;
nodes = (
"314 421 OFFCURVE",
"363 368 OFFCURVE",
"444 368 CURVE SMOOTH",
"543 368 OFFCURVE",
"618 442 OFFCURVE",
"639 587 CURVE",
"606 587 LINE",
"590 533 OFFCURVE",
"548 471 OFFCURVE",
"474 471 CURVE SMOOTH",
"439 471 OFFCURVE",
"416 495 OFFCURVE",
"416 525 CURVE SMOOTH",
"416 556 OFFCURVE",
"433 588 OFFCURVE",
"456 630 CURVE",
"452 651 LINE",
"434 641 LINE",
"365 597 OFFCURVE",
"314 555 OFFCURVE",
"314 488 CURVE SMOOTH"
);
},
{
closed = 1;
nodes = (
"27 312 OFFCURVE",
"61 241 OFFCURVE",
"130 183 CURVE",
"219 297 LINE",
"164 316 OFFCURVE",
"129 367 OFFCURVE",
"129 422 CURVE SMOOTH",
"129 497 OFFCURVE",
"194 547 OFFCURVE",
"289 547 CURVE SMOOTH",
"314 547 OFFCURVE",
"341 544 OFFCURVE",
"367 537 CURVE",
"452 651 LINE",
"405 664 OFFCURVE",
"364 667 OFFCURVE",
"335 667 CURVE SMOOTH",
"154 667 OFFCURVE",
"27 551 OFFCURVE",
"27 394 CURVE SMOOTH"
);
},
{
closed = 1;
nodes = (
"97 28 OFFCURVE",
"130 -10 OFFCURVE",
"185 -10 CURVE SMOOTH",
"237 -10 OFFCURVE",
"279 30 OFFCURVE",
"279 86 CURVE SMOOTH",
"279 135 OFFCURVE",
"242 171 OFFCURVE",
"199 172 CURVE",
"215 148 LINE",
"214 192 OFFCURVE",
"260 249 OFFCURVE",
"377 283 CURVE",
"342 355 LINE",
"173 304 OFFCURVE",
"97 192 OFFCURVE",
"97 84 CURVE SMOOTH"
);
}
);
width = 750;
}
);
leftMetricsKey = iorya;
script = oriya;
category = Letter;
subCategory = Spacing;
},
{
glyphname = maphaorya;
lastChange = "2021-07-26 15:10:36 +0000";
layers = (
{
anchors = (
{
name = b.tasubscriptorya;
position = "{409, 0}";
},
{
name = b.uvowelsignorya;
position = "{596, 0}";
},
{
name = t.candrabinduorya;
position = "{529, 657}";
},
{
name = t.ivowelsignorya;
position = "{363, 657}";
}
);
components = (
{
name = _part.oo;
transform = "{1, 0, 0, 1, 219, 0}";
},
{
name = aavowelsignorya;
transform = "{1, 0, 0, 1, 458, 0}";
}
);
layerId = "6C4C2116-C5E5-460E-80F0-69F45ED98D3F";
paths = (
{
closed = 1;
nodes = (
"32 342 OFFCURVE",
"78 257 OFFCURVE",
"163 206 CURVE",
"215 283 LINE",
"143 316 OFFCURVE",
"100 371 OFFCURVE",
"100 444 CURVE SMOOTH",
"100 531 OFFCURVE",
"175 601 OFFCURVE",
"302 601 CURVE SMOOTH",
"329 601 OFFCURVE",
"356 597 OFFCURVE",
"381 589 CURVE",
"426 649 LINE",
"391 661 OFFCURVE",
"353 667 OFFCURVE",
"313 667 CURVE SMOOTH",
"146 667 OFFCURVE",
"32 558 OFFCURVE",
"32 430 CURVE SMOOTH"
);
},
{
closed = 1;
nodes = (
"291 430 OFFCURVE",
"339 382 OFFCURVE",
"411 382 CURVE SMOOTH",
"498 382 OFFCURVE",
"557 453 OFFCURVE",
"568 564 CURVE",
"533 610 LINE",
"533 510 OFFCURVE",
"495 447 OFFCURVE",
"427 447 CURVE SMOOTH",
"387 447 OFFCURVE",
"358 470 OFFCURVE",
"358 510 CURVE SMOOTH",
"358 546 OFFCURVE",
"382 591 OFFCURVE",
"426 635 CURVE",
"426 649 LINE",
"365 628 LINE",
"313 579 OFFCURVE",
"291 539 OFFCURVE",
"291 495 CURVE SMOOTH"
);
},
{
closed = 1;
nodes = (
"89 14 OFFCURVE",
"120 -7 OFFCURVE",
"149 -7 CURVE SMOOTH",
"180 -7 OFFCURVE",
"205 17 OFFCURVE",
"205 50 CURVE SMOOTH",
"205 83 OFFCURVE",
"183 108 OFFCURVE",
"145 114 CURVE",
"154 97 LINE",
"178 179 OFFCURVE",
"231 247 OFFCURVE",
"350 290 CURVE",
"324 349 LINE",
"168 288 OFFCURVE",
"89 170 OFFCURVE",
"89 69 CURVE SMOOTH"
);
},
{
closed = 1;
nodes = (
"668 244 LINE",
"704 266 LINE",
"444 731 LINE",
"407 711 LINE"
);
}
);
width = 802;
},
{
anchors = (
{
name = b.tasubscriptorya;
position = "{474, 0}";
},
{
name = b.uvowelsignorya;
position = "{691, 0}";
},
{
name = t.candrabinduorya;
position = "{572, 657}";
},
{
name = t.ivowelsignorya;
position = "{408, 657}";
}
);
components = (
{
name = _part.oo;
transform = "{1, 0, 0, 1, 4, -9}";
},
{
name = aavowelsignorya;
transform = "{1, 0, 0, 1, 509, 0}";
}
);
layerId = "D0F0E2C3-3B53-4823-9924-A34C50245C28";
paths = (
{
closed = 1;
nodes = (
"27 310 OFFCURVE",
"61 241 OFFCURVE",
"130 183 CURVE",
"219 297 LINE",
"164 316 OFFCURVE",
"129 367 OFFCURVE",
"129 425 CURVE SMOOTH",
"129 497 OFFCURVE",
"194 547 OFFCURVE",
"289 547 CURVE SMOOTH",
"314 547 OFFCURVE",
"341 544 OFFCURVE",
"367 537 CURVE",
"452 651 LINE",
"405 664 OFFCURVE",
"364 667 OFFCURVE",
"334 667 CURVE SMOOTH",
"154 667 OFFCURVE",
"27 549 OFFCURVE",
"27 393 CURVE SMOOTH"
);
},
{
closed = 1;
nodes = (
"314 421 OFFCURVE",
"363 368 OFFCURVE",
"444 368 CURVE SMOOTH",
"543 368 OFFCURVE",
"618 442 OFFCURVE",
"639 587 CURVE",
"606 587 LINE",
"590 533 OFFCURVE",
"548 471 OFFCURVE",
"474 471 CURVE SMOOTH",
"439 471 OFFCURVE",
"416 495 OFFCURVE",
"416 525 CURVE SMOOTH",
"416 556 OFFCURVE",
"433 588 OFFCURVE",
"456 630 CURVE",
"452 651 LINE",
"434 641 LINE",
"365 597 OFFCURVE",
"314 555 OFFCURVE",
"314 488 CURVE SMOOTH"
);
},
{
closed = 1;
nodes = (
"97 28 OFFCURVE",
"130 -10 OFFCURVE",
"185 -10 CURVE SMOOTH",
"237 -10 OFFCURVE",
"279 30 OFFCURVE",
"279 86 CURVE SMOOTH",
"279 135 OFFCURVE",
"242 171 OFFCURVE",
"199 172 CURVE",
"215 148 LINE",
"214 192 OFFCURVE",
"260 249 OFFCURVE",
"377 283 CURVE",
"342 355 LINE",
"173 304 OFFCURVE",
"97 192 OFFCURVE",
"97 84 CURVE SMOOTH"
);
},
{
closed = 1;
nodes = (
"770 209 LINE",
"821 243 LINE",
"499 742 LINE",
"449 711 LINE"
);
}
);
width = 873;
}
);
leftMetricsKey = iorya;
script = oriya;
category = Letter;
subCategory = Spacing;
},
{
glyphname = nadaorya;
lastChange = "2021-07-28 10:47:56 +0000";
layers = (
{
anchors = (
{
name = b.tasubscriptorya;
position = "{353, 0}";
},
{
name = b.uvowelsignorya;
position = "{472, 0}";
},
{
name = t.ivowelsignorya;
position = "{334, 657}";
}
);
components = (
{
name = _part.swash5;
transform = "{1, 0, 0, 1, 18, 0}";
}
);
layerId = "6C4C2116-C5E5-460E-80F0-69F45ED98D3F";
paths = (
{
closed = 1;
nodes = (
"413 -7 LINE",
"473 7 LINE",
"473 315 LINE",
"466 322 LINE",
"406 307 LINE",
"406 0 LINE"
);
},
{
closed = 1;
nodes = (
"20 50 OFFCURVE",
"50 30 OFFCURVE",
"78 30 CURVE SMOOTH",
"107 30 OFFCURVE",
"134 54 OFFCURVE",
"134 87 CURVE SMOOTH",
"134 117 OFFCURVE",
"114 141 OFFCURVE",
"80 152 CURVE",
"90 133 LINE",
"111 174 OFFCURVE",
"150 213 OFFCURVE",
"202 243 CURVE",
"225 299 LINE",
"129 263 OFFCURVE",
"20 166 OFFCURVE",
"20 98 CURVE SMOOTH"
);
},
{
closed = 1;
nodes = (
"158 115 OFFCURVE",
"215 56 OFFCURVE",
"301 56 CURVE SMOOTH",
"368 56 OFFCURVE",
"423 89 OFFCURVE",
"456 130 CURVE",
"449 173 LINE",
"427 153 OFFCURVE",
"376 118 OFFCURVE",
"318 118 CURVE SMOOTH",
"260 118 OFFCURVE",
"222 152 OFFCURVE",
"222 206 CURVE SMOOTH",
"222 245 OFFCURVE",
"251 281 OFFCURVE",
"304 325 CURVE",
"265 363 LINE",
"207 314 OFFCURVE",
"158 261 OFFCURVE",
"158 191 CURVE SMOOTH"
);
}
);
width = 635;
},
{
anchors = (
{
name = b.tasubscriptorya;
position = "{407, 0}";
},
{
name = b.uvowelsignorya;
position = "{561, 0}";
},
{
name = t.ivowelsignorya;
position = "{407, 657}";
}
);
components = (
{
name = _part.swash5;
transform = "{1, 0, 0, 1, 55, 0}";
}
);
layerId = "D0F0E2C3-3B53-4823-9924-A34C50245C28";
paths = (
{
closed = 1;
nodes = (
"451 -7 LINE",
"561 22 LINE",
"561 323 LINE",
"554 330 LINE",
"444 301 LINE",
"444 0 LINE"
);
},
{
closed = 1;
nodes = (
"32 47 OFFCURVE",
"62 10 OFFCURVE",
"114 10 CURVE SMOOTH",
"157 10 OFFCURVE",
"193 43 OFFCURVE",
"193 91 CURVE SMOOTH",
"193 137 OFFCURVE",
"158 171 OFFCURVE",
"117 172 CURVE",
"145 160 LINE",
"144 185 OFFCURVE",
"193 218 OFFCURVE",
"275 239 CURVE",
"277 300 LINE",
"113 273 OFFCURVE",
"32 178 OFFCURVE",
"32 100 CURVE SMOOTH"
);
},
{
closed = 1;
nodes = (
"206 122 OFFCURVE",
"250 56 OFFCURVE",
"343 56 CURVE SMOOTH",
"439 56 OFFCURVE",
"507 119 OFFCURVE",
"521 176 CURVE",
"503 214 LINE",
"472 185 OFFCURVE",
"421 157 OFFCURVE",
"381 157 CURVE SMOOTH",
"327 157 OFFCURVE",
"311 189 OFFCURVE",
"311 216 CURVE SMOOTH",
"311 241 OFFCURVE",
"323 272 OFFCURVE",
"374 320 CURVE",
"326 370 LINE",
"257 319 OFFCURVE",
"206 256 OFFCURVE",
"206 186 CURVE SMOOTH"
);
}
);
width = 725;
}
);
leftKerningGroup = nadaorya;
rightKerningGroup = caorya;
rightMetricsKey = caorya;
script = oriya;
category = Letter;
subCategory = Spacing;
},
{
glyphname = nadhaorya;
lastChange = "2021-07-22 07:46:18 +0000";
layers = (
{
anchors = (
{
name = b.tasubscriptorya;
position = "{353, 0}";
},
{
name = b.uvowelsignorya;
position = "{472, 0}";
},
{
name = t.ivowelsignorya;
position = "{334, 657}";
}
);
components = (
{
name = nadaorya;
}
);
layerId = "6C4C2116-C5E5-460E-80F0-69F45ED98D3F";
paths = (
{
closed = 1;
nodes = (
"443 228 LINE",
"473 275 LINE",
"230 607 LINE",
"184 575 LINE"
);
}
);
width = 635;
},
{
anchors = (
{
name = b.tasubscriptorya;
position = "{386, 0}";
},
{
name = b.uvowelsignorya;
position = "{560, 0}";
},
{
name = t.ivowelsignorya;
position = "{386, 657}";
}
);
components = (
{
name = nadaorya;
}
);
layerId = "D0F0E2C3-3B53-4823-9924-A34C50245C28";
paths = (
{
closed = 1;
nodes = (
"444 257 LINE",
"497 313 LINE",
"269 598 LINE",
"216 543 LINE"
);
}
);
width = 725;
}
);
leftKerningGroup = nadaorya;
rightKerningGroup = caorya;
rightMetricsKey = caorya;
script = oriya;
category = Letter;
subCategory = Spacing;
},
{
glyphname = ngakaorya;
lastChange = "2021-07-28 11:15:06 +0000";
layers = (
{
anchors = (
{
name = b.tasubscriptorya;
position = "{331, 0}";
},
{
name = b.uvowelsignorya;
position = "{580, 0}";
},
{
name = t.ivowelsignorya;
position = "{327, 657}";
}
);
components = (
{
name = _part.osmall;
transform = "{1, 0, 0, 1, -5, 0}";
},
{
name = _part.ngaka;
transform = "{1, 0, 0, 1, 70, 0}";
}
);
layerId = "6C4C2116-C5E5-460E-80F0-69F45ED98D3F";
paths = (
{
closed = 1;
nodes = (
"169 319 LINE",
"126 348 OFFCURVE",
"100 406 OFFCURVE",
"100 459 CURVE SMOOTH",
"100 544 OFFCURVE",
"162 602 OFFCURVE",
"250 602 CURVE SMOOTH",
"331 602 OFFCURVE",
"413 553 OFFCURVE",
"477 428 CURVE",
"521 462 LINE",
"457 622 OFFCURVE",
"352 667 OFFCURVE",
"260 667 CURVE SMOOTH",
"134 667 OFFCURVE",
"32 569 OFFCURVE",
"32 442 CURVE SMOOTH",
"32 374 OFFCURVE",
"67 302 OFFCURVE",
"120 261 CURVE"
);
}
);
width = 763;
},
{
anchors = (
{
name = b.tasubscriptorya;
position = "{390, 0}";
},
{
name = b.uvowelsignorya;
position = "{663, 0}";
},
{
name = t.ivowelsignorya;
position = "{395, 657}";
}
);
components = (
{
name = _part.osmall;
transform = "{1, 0, 0, 1, -6, 0}";
},
{
name = _part.ngaka;
transform = "{1, 0, 0, 1, -5, 0}";
}
);
layerId = "D0F0E2C3-3B53-4823-9924-A34C50245C28";
paths = (
{
closed = 1;
nodes = (
"184 323 LINE",
"147 348 OFFCURVE",
"125 391 OFFCURVE",
"125 427 CURVE SMOOTH",
"125 515 OFFCURVE",
"214 550 OFFCURVE",
"286 550 CURVE SMOOTH",
"366 550 OFFCURVE",
"442 517 OFFCURVE",
"513 418 CURVE",
"564 531 LINE",
"500 620 OFFCURVE",
"413 667 OFFCURVE",
"308 667 CURVE SMOOTH",
"135 667 OFFCURVE",
"27 550 OFFCURVE",
"27 403 CURVE SMOOTH",
"27 331 OFFCURVE",
"53 280 OFFCURVE",
"97 216 CURVE"
);
}
);
width = 802;
}
);
leftMetricsKey = iorya;
rightKerningGroup = caorya;
script = oriya;
category = Letter;
subCategory = Spacing;
},
{
glyphname = ngakassaorya;
lastChange = "2021-07-22 08:03:14 +0000";
layers = (
{
anchors = (
{
name = b.rrvocalicvowelsignleftorya;
position = "{502, -49}";
},
{
name = b.tasubscriptorya;
position = "{316, 0}";
},
{
name = b.uvowelsignorya;
position = "{539, 0}";
},
{
name = t.candrabinduorya;
position = "{577, 657}";
},
{
name = t.ivowelsignorya;
position = "{340, 657}";
}
);
components = (
{
name = _part.osmall;
transform = "{1, 0, 0, 1, -70, 0}";
},
{
name = kassasubscriptorya;
transform = "{1, 0, 0, 1, 516, 145}";
},
{
name = _part.u;
transform = "{0.93221, 0, 0, 0.93221, -28, 90}";
}
);
layerId = "6C4C2116-C5E5-460E-80F0-69F45ED98D3F";
paths = (
{
closed = 1;
nodes = (
"32 404 OFFCURVE",
"65 342 OFFCURVE",
"115 312 CURVE",
"169 370 LINE",
"125 389 OFFCURVE",
"99 437 OFFCURVE",
"99 487 CURVE SMOOTH",
"99 557 OFFCURVE",
"151 603 OFFCURVE",
"221 603 CURVE SMOOTH",
"288 603 OFFCURVE",
"354 557 OFFCURVE",
"407 438 CURVE",
"445 471 LINE",
"392 624 OFFCURVE",
"308 667 OFFCURVE",
"232 667 CURVE SMOOTH",
"124 667 OFFCURVE",
"32 582 OFFCURVE",
"32 470 CURVE SMOOTH"
);
}
);
width = 701;
},
{
anchors = (
{
name = b.rrvocalicvowelsignleftorya;
position = "{587, -49}";
},
{
name = b.tasubscriptorya;
position = "{342, 0}";
},
{
name = b.uvowelsignorya;
position = "{624, 0}";
},
{
name = t.candrabinduorya;
position = "{592, 657}";
},
{
name = t.ivowelsignorya;
position = "{371, 657}";
}
);
components = (
{
name = _part.osmall;
transform = "{1, 0, 0, 1, -52, 0}";
},
{
name = kassasubscriptorya;
transform = "{1, 0, 0, 1, 581, 145}";
},
{
name = _part.u;
transform = "{0.93221, 0, 0, 0.93221, 6, 62}";
}
);
layerId = "D0F0E2C3-3B53-4823-9924-A34C50245C28";
paths = (
{
closed = 1;
nodes = (
"27 329 OFFCURVE",
"67 264 OFFCURVE",
"133 209 CURVE",
"217 325 LINE",
"156 343 OFFCURVE",
"125 383 OFFCURVE",
"125 435 CURVE SMOOTH",
"125 515 OFFCURVE",
"197 550 OFFCURVE",
"264 550 CURVE SMOOTH",
"325 550 OFFCURVE",
"401 521 OFFCURVE",
"466 419 CURVE",
"518 531 LINE",
"460 620 OFFCURVE",
"381 667 OFFCURVE",
"282 667 CURVE SMOOTH",
"126 667 OFFCURVE",
"27 550 OFFCURVE",
"27 413 CURVE SMOOTH"
);
}
);
width = 757;
}
);
leftMetricsKey = iorya;
script = oriya;
category = Letter;
subCategory = Spacing;
},
{
glyphname = ngakhaorya;
lastChange = "2021-07-26 15:11:14 +0000";
layers = (
{
anchors = (
{
name = b.tasubscriptorya;
position = "{405, 0}";
},
{
name = b.uvowelsignorya;
position = "{592, 0}";
},
{
name = t.candrabinduorya;
position = "{525, 657}";
},
{
name = t.ivowelsignorya;
position = "{358, 657}";
}
);
components = (
{
name = aavowelsignorya;
transform = "{1, 0, 0, 1, 454, 0}";
},
{
name = _part.oo;
transform = "{1, 0, 0, 1, 213, 1}";
},
{
name = _part.ooo;
transform = "{1, 0, 0, 1, -15, 0}";
}
);
layerId = "6C4C2116-C5E5-460E-80F0-69F45ED98D3F";
paths = (
{
closed = 1;
nodes = (
"285 430 OFFCURVE",
"333 382 OFFCURVE",
"405 382 CURVE SMOOTH",
"492 382 OFFCURVE",
"551 453 OFFCURVE",
"562 564 CURVE",
"527 610 LINE",
"527 510 OFFCURVE",
"489 447 OFFCURVE",
"421 447 CURVE SMOOTH",
"381 447 OFFCURVE",
"352 470 OFFCURVE",
"352 510 CURVE SMOOTH",
"352 546 OFFCURVE",
"376 591 OFFCURVE",
"420 635 CURVE",
"420 649 LINE",
"359 628 LINE",
"307 579 OFFCURVE",
"285 539 OFFCURVE",
"285 495 CURVE SMOOTH"
);
},
{
closed = 1;
nodes = (
"32 366 OFFCURVE",
"57 303 OFFCURVE",
"103 254 CURVE",
"179 303 LINE",
"129 336 OFFCURVE",
"100 384 OFFCURVE",
"100 444 CURVE SMOOTH",
"100 531 OFFCURVE",
"175 601 OFFCURVE",
"302 601 CURVE SMOOTH",
"327 601 OFFCURVE",
"353 598 OFFCURVE",
"376 591 CURVE",
"420 649 LINE",
"387 661 OFFCURVE",
"351 667 OFFCURVE",
"313 667 CURVE SMOOTH",
"146 667 OFFCURVE",
"32 558 OFFCURVE",
"32 430 CURVE SMOOTH"
);
}
);
width = 799;
},
{
anchors = (
{
name = b.tasubscriptorya;
position = "{471, 0}";
},
{
name = b.uvowelsignorya;
position = "{682, 0}";
},
{
name = t.candrabinduorya;
position = "{562, 657}";
},
{
name = t.ivowelsignorya;
position = "{406, 657}";
}
);
components = (
{
name = aavowelsignorya;
transform = "{1, 0, 0, 1, 500, 0}";
},
{
name = _part.oo;
transform = "{1, 0, 0, 1, -5, -10}";
},
{
name = _part.ooo;
transform = "{1, 0, 0, 1, -5, 0}";
}
);
layerId = "D0F0E2C3-3B53-4823-9924-A34C50245C28";
paths = (
{
closed = 1;
nodes = (
"314 421 OFFCURVE",
"363 368 OFFCURVE",
"444 368 CURVE SMOOTH",
"550 368 OFFCURVE",
"631 442 OFFCURVE",
"647 587 CURVE",
"606 587 LINE",
"590 533 OFFCURVE",
"548 471 OFFCURVE",
"474 471 CURVE SMOOTH",
"439 471 OFFCURVE",
"416 495 OFFCURVE",
"416 525 CURVE SMOOTH",
"416 555 OFFCURVE",
"437 586 OFFCURVE",
"481 627 CURVE",
"477 648 LINE",
"434 641 LINE",
"365 597 OFFCURVE",
"314 555 OFFCURVE",
"314 488 CURVE SMOOTH"
);
},
{
closed = 1;
nodes = (
"27 310 OFFCURVE",
"61 241 OFFCURVE",
"130 183 CURVE",
"219 297 LINE",
"164 316 OFFCURVE",
"129 367 OFFCURVE",
"129 425 CURVE SMOOTH",
"129 497 OFFCURVE",
"194 547 OFFCURVE",
"289 547 CURVE SMOOTH",
"314 547 OFFCURVE",
"341 544 OFFCURVE",
"367 537 CURVE",
"477 648 LINE",
"411 663 OFFCURVE",
"367 667 OFFCURVE",
"334 667 CURVE SMOOTH",
"154 667 OFFCURVE",
"27 549 OFFCURVE",
"27 393 CURVE SMOOTH"
);
}
);
width = 876;
}
);
leftMetricsKey = iorya;
script = oriya;
category = Letter;
subCategory = Spacing;
},
{
glyphname = nnaddaUIorya;
lastChange = "2021-07-22 07:46:18 +0000";
layers = (
{
anchors = (
{
name = b.uvowelsignorya;
position = "{582, 0}";
},
{
name = t.ivowelsignorya;
position = "{316, 657}";
}
);
components = (
{
name = _part.nnahalf;
transform = "{1, 0, 0, 1, 3, 0}";
}
);
layerId = "6C4C2116-C5E5-460E-80F0-69F45ED98D3F";
paths = (
{
closed = 1;
nodes = (
"522 63 LINE",
"582 77 LINE",
"582 657 LINE",
"575 664 LINE",
"515 650 LINE",
"515 70 LINE"
);
},
{
closed = 1;
nodes = (
"228 -137 OFFCURVE",
"331 -154 OFFCURVE",
"424 -154 CURVE SMOOTH",
"572 -154 OFFCURVE",
"664 -105 OFFCURVE",
"664 -17 CURVE SMOOTH",
"664 50 OFFCURVE",
"606 104 OFFCURVE",
"537 104 CURVE SMOOTH",
"470 104 OFFCURVE",
"425 55 OFFCURVE",
"425 0 CURVE SMOOTH",
"425 -36 OFFCURVE",
"447 -84 OFFCURVE",
"493 -107 CURVE",
"573 -81 LINE",
"523 -63 OFFCURVE",
"486 -22 OFFCURVE",
"486 11 CURVE SMOOTH",
"486 30 OFFCURVE",
"500 43 OFFCURVE",
"521 43 CURVE SMOOTH",
"564 43 OFFCURVE",
"602 3 OFFCURVE",
"602 -32 CURVE SMOOTH",
"602 -68 OFFCURVE",
"536 -94 OFFCURVE",
"440 -94 CURVE SMOOTH",
"358 -94 OFFCURVE",
"256 -74 OFFCURVE",
"177 -45 CURVE",
"149 -106 LINE"
);
}
);
width = 675;
},
{
anchors = (
{
name = b.uvowelsignorya;
position = "{643, 0}";
},
{
name = t.ivowelsignorya;
position = "{338, 657}";
}
);
components = (
{
name = _part.nnahalf;
transform = "{1, 0, 0, 1, -3, 0}";
}
);
layerId = "D0F0E2C3-3B53-4823-9924-A34C50245C28";
paths = (
{
closed = 1;
nodes = (
"530 60 LINE",
"643 87 LINE",
"643 657 LINE",
"636 664 LINE",
"523 637 LINE",
"523 67 LINE"
);
},
{
closed = 1;
nodes = (
"262 -142 OFFCURVE",
"364 -153 OFFCURVE",
"458 -153 CURVE SMOOTH",
"627 -153 OFFCURVE",
"714 -86 OFFCURVE",
"714 5 CURVE SMOOTH",
"714 69 OFFCURVE",
"657 120 OFFCURVE",
"586 120 CURVE SMOOTH",
"509 120 OFFCURVE",
"459 59 OFFCURVE",
"459 2 CURVE SMOOTH",
"459 -35 OFFCURVE",
"487 -75 OFFCURVE",
"523 -108 CURVE",
"607 -54 LINE",
"561 -34 OFFCURVE",
"543 -4 OFFCURVE",
"543 10 CURVE SMOOTH",
"543 21 OFFCURVE",
"551 28 OFFCURVE",
"566 28 CURVE SMOOTH",
"591 28 OFFCURVE",
"622 6 OFFCURVE",
"622 -17 CURVE SMOOTH",
"622 -41 OFFCURVE",
"581 -60 OFFCURVE",
"488 -60 CURVE SMOOTH",
"395 -60 OFFCURVE",
"298 -46 OFFCURVE",
"220 -28 CURVE",
"175 -122 LINE"
);
}
);
width = 719;
}
);
leftMetricsKey = iorya;
rightKerningGroup = nnaddaUIorya;
rightMetricsKey = caorya;
script = oriya;
category = Letter;
subCategory = Spacing;
},
{
glyphname = nnaddhaorya;
lastChange = "2021-07-22 08:03:32 +0000";
layers = (
{
anchors = (
{
name = b.uvowelsignorya;
position = "{587, 0}";
},
{
name = t.candrabinduorya;
position = "{520, 657}";
},
{
name = t.ivowelsignorya;
position = "{325, 657}";
}
);
components = (
{
name = _part.nnahalf;
transform = "{1, 0, 0, 1, 3, 0}";
},
{
name = ddhasubscriptorya;
transform = "{1, 0, 0, 1, 675, 118}";
}
);
layerId = "6C4C2116-C5E5-460E-80F0-69F45ED98D3F";
paths = (
{
closed = 1;
nodes = (
"527 73 LINE",
"587 87 LINE",
"587 657 LINE",
"580 664 LINE",
"520 650 LINE",
"520 80 LINE"
);
}
);
width = 671;
},
{
anchors = (
{
name = b.uvowelsignorya;
position = "{661, 0}";
},
{
name = t.candrabinduorya;
position = "{541, 657}";
},
{
name = t.ivowelsignorya;
position = "{357, 657}";
}
);
components = (
{
name = _part.nnahalf;
transform = "{1, 0, 0, 1, -3, 0}";
},
{
name = ddhasubscriptorya;
transform = "{1, 0, 0, 1, 689, 118}";
}
);
layerId = "D0F0E2C3-3B53-4823-9924-A34C50245C28";
paths = (
{
closed = 1;
nodes = (
"547 40 LINE",
"660 67 LINE",
"660 657 LINE",
"653 664 LINE",
"540 637 LINE",
"540 47 LINE"
);
}
);
width = 720;
}
);
leftMetricsKey = iorya;
rightKerningGroup = nnaddhaorya;
script = oriya;
category = Letter;
subCategory = Spacing;
},
{
glyphname = nnannaUIorya;
lastChange = "2021-07-22 08:03:38 +0000";
layers = (
{
anchors = (
{
name = b.uvowelsignorya;
position = "{587, 0}";
},
{
name = t.ivowelsignorya;
position = "{325, 657}";
}
);
components = (
{
name = _part.nnahalf;
transform = "{1, 0, 0, 1, 3, 0}";
}
);
layerId = "6C4C2116-C5E5-460E-80F0-69F45ED98D3F";
paths = (
{
closed = 1;
nodes = (
"289 -82 OFFCURVE",
"361 -160 OFFCURVE",
"485 -160 CURVE SMOOTH",
"587 -160 OFFCURVE",
"656 -101 OFFCURVE",
"656 -34 CURVE SMOOTH",
"656 2 OFFCURVE",
"639 24 OFFCURVE",
"610 39 CURVE SMOOTH",
"592 48 OFFCURVE",
"566 56 OFFCURVE",
"539 55 CURVE",
"542 42 LINE",
"598 62 OFFCURVE",
"643 100 OFFCURVE",
"643 157 CURVE SMOOTH",
"643 209 OFFCURVE",
"601 246 OFFCURVE",
"544 246 CURVE SMOOTH",
"487 246 OFFCURVE",
"429 211 OFFCURVE",
"429 152 CURVE SMOOTH",
"429 141 OFFCURVE",
"432 128 OFFCURVE",
"439 112 CURVE",
"497 138 LINE",
"493 149 OFFCURVE",
"491 159 OFFCURVE",
"491 164 CURVE SMOOTH",
"491 180 OFFCURVE",
"509 187 OFFCURVE",
"529 187 CURVE SMOOTH",
"566 187 OFFCURVE",
"582 165 OFFCURVE",
"582 144 CURVE SMOOTH",
"582 102 OFFCURVE",
"511 73 OFFCURVE",
"475 63 CURVE",
"455 22 LINE",
"461 15 LINE",
"475 14 OFFCURVE",
"501 10 OFFCURVE",
"526 5 CURVE SMOOTH",
"562 -2 OFFCURVE",
"592 -14 OFFCURVE",
"592 -42 CURVE SMOOTH",
"592 -76 OFFCURVE",
"542 -96 OFFCURVE",
"499 -96 CURVE SMOOTH",
"384 -96 OFFCURVE",
"351 -15 OFFCURVE",
"351 48 CURVE SMOOTH",
"351 64 OFFCURVE",
"353 79 OFFCURVE",
"356 95 CURVE",
"309 100 LINE",
"297 77 OFFCURVE",
"289 54 OFFCURVE",
"289 31 CURVE SMOOTH"
);
},
{
closed = 1;
nodes = (
"527 213 LINE",
"587 227 LINE",
"587 657 LINE",
"580 664 LINE",
"520 650 LINE",
"520 220 LINE"
);
}
);
width = 671;
},
{
anchors = (
{
name = b.uvowelsignorya;
position = "{643, 0}";
},
{
name = t.ivowelsignorya;
position = "{348, 657}";
}
);
components = (
{
name = _part.nnahalf;
transform = "{1, 0, 0, 1, -3, 0}";
}
);
layerId = "D0F0E2C3-3B53-4823-9924-A34C50245C28";
paths = (
{
closed = 1;
nodes = (
"308 -96 OFFCURVE",
"394 -160 OFFCURVE",
"524 -160 CURVE SMOOTH",
"642 -160 OFFCURVE",
"708 -101 OFFCURVE",
"708 -27 CURVE SMOOTH",
"708 17 OFFCURVE",
"683 42 OFFCURVE",
"660 55 CURVE SMOOTH",
"643 66 OFFCURVE",
"618 71 OFFCURVE",
"591 74 CURVE",
"600 54 LINE",
"643 79 OFFCURVE",
"686 111 OFFCURVE",
"686 168 CURVE SMOOTH",
"686 219 OFFCURVE",
"641 258 OFFCURVE",
"577 258 CURVE SMOOTH",
"521 258 OFFCURVE",
"458 222 OFFCURVE",
"458 159 CURVE SMOOTH",
"458 148 OFFCURVE",
"461 133 OFFCURVE",
"469 117 CURVE",
"542 142 LINE",
"538 153 OFFCURVE",
"536 163 OFFCURVE",
"536 169 CURVE SMOOTH",
"536 185 OFFCURVE",
"549 191 OFFCURVE",
"563 191 CURVE SMOOTH",
"591 191 OFFCURVE",
"603 170 OFFCURVE",
"603 151 CURVE SMOOTH",
"603 120 OFFCURVE",
"541 93 OFFCURVE",
"510 84 CURVE",
"487 18 LINE",
"493 11 LINE",
"515 11 OFFCURVE",
"538 9 OFFCURVE",
"559 5 CURVE SMOOTH",
"591 -1 OFFCURVE",
"615 -14 OFFCURVE",
"615 -34 CURVE SMOOTH",
"615 -55 OFFCURVE",
"573 -67 OFFCURVE",
"539 -67 CURVE SMOOTH",
"438 -67 OFFCURVE",
"392 2 OFFCURVE",
"392 61 CURVE SMOOTH",
"392 79 OFFCURVE",
"394 99 OFFCURVE",
"398 120 CURVE",
"344 165 LINE",
"321 121 OFFCURVE",
"308 71 OFFCURVE",
"308 25 CURVE SMOOTH"
);
},
{
closed = 1;
nodes = (
"530 210 LINE",
"643 237 LINE",
"643 663 LINE",
"636 670 LINE",
"523 643 LINE",
"523 217 LINE"
);
}
);
width = 705;
}
);
leftMetricsKey = iorya;
rightKerningGroup = nnattaorya;
script = oriya;
category = Letter;
subCategory = Spacing;
},
{
glyphname = nnannaorya;
lastChange = "2021-07-29 15:51:53 +0000";
layers = (
{
anchors = (
{
name = b.uvowelsignorya;
position = "{572, 0}";
},
{
name = t.candrabinduorya;
position = "{505, 657}";
},
{
name = t.ivowelsignorya;
position = "{310, 657}";
}
);
components = (
{
name = _part.nna;
transform = "{1, 0, 0, 1, -12, 0}";
}
);
layerId = "6C4C2116-C5E5-460E-80F0-69F45ED98D3F";
paths = (
{
closed = 1;
nodes = (
"512 73 LINE",
"572 87 LINE",
"572 657 LINE",
"565 664 LINE",
"505 650 LINE",
"505 80 LINE"
);
},
{
closed = 1;
nodes = (
"271 -204 OFFCURVE",
"350 -282 OFFCURVE",
"487 -282 CURVE SMOOTH",
"593 -282 OFFCURVE",
"664 -223 OFFCURVE",
"664 -156 CURVE SMOOTH",
"664 -120 OFFCURVE",
"645 -96 OFFCURVE",
"616 -81 CURVE SMOOTH",
"598 -72 OFFCURVE",
"574 -66 OFFCURVE",
"547 -67 CURVE",
"550 -73 LINE",
"599 -54 OFFCURVE",
"639 -19 OFFCURVE",
"639 35 CURVE SMOOTH",
"639 87 OFFCURVE",
"597 124 OFFCURVE",
"540 124 CURVE SMOOTH",
"485 124 OFFCURVE",
"430 89 OFFCURVE",
"430 30 CURVE SMOOTH",
"430 19 OFFCURVE",
"433 6 OFFCURVE",
"440 -10 CURVE",
"498 16 LINE",
"494 27 OFFCURVE",
"492 37 OFFCURVE",
"492 42 CURVE SMOOTH",
"492 59 OFFCURVE",
"508 67 OFFCURVE",
"525 67 CURVE SMOOTH",
"562 67 OFFCURVE",
"578 44 OFFCURVE",
"578 22 CURVE SMOOTH",
"578 -20 OFFCURVE",
"508 -49 OFFCURVE",
"472 -59 CURVE",
"452 -100 LINE",
"458 -107 LINE",
"479 -107 OFFCURVE",
"501 -109 OFFCURVE",
"525 -114 CURVE SMOOTH",
"565 -123 OFFCURVE",
"600 -137 OFFCURVE",
"600 -164 CURVE SMOOTH",
"600 -199 OFFCURVE",
"547 -219 OFFCURVE",
"501 -219 CURVE SMOOTH",
"369 -219 OFFCURVE",
"332 -137 OFFCURVE",
"332 -74 CURVE SMOOTH",
"332 -16 OFFCURVE",
"359 42 OFFCURVE",
"378 75 CURVE",
"361 133 LINE",
"319 68 OFFCURVE",
"271 -13 OFFCURVE",
"271 -91 CURVE SMOOTH"
);
}
);
width = 663;
},
{
anchors = (
{
name = b.uvowelsignorya;
position = "{663, 0}";
},
{
name = t.candrabinduorya;
position = "{543, 657}";
},
{
name = t.ivowelsignorya;
position = "{368, 657}";
}
);
components = (
{
name = _part.nna;
transform = "{1, 0, 0, 1, -3, 0}";
}
);
layerId = "D0F0E2C3-3B53-4823-9924-A34C50245C28";
paths = (
{
closed = 1;
nodes = (
"550 74 LINE",
"663 101 LINE",
"663 657 LINE",
"656 664 LINE",
"543 637 LINE",
"543 81 LINE"
);
},
{
closed = 1;
nodes = (
"324 -217 OFFCURVE",
"414 -281 OFFCURVE",
"550 -281 CURVE SMOOTH",
"668 -281 OFFCURVE",
"734 -222 OFFCURVE",
"734 -148 CURVE SMOOTH",
"734 -104 OFFCURVE",
"709 -79 OFFCURVE",
"686 -66 CURVE SMOOTH",
"669 -55 OFFCURVE",
"644 -50 OFFCURVE",
"617 -47 CURVE",
"626 -67 LINE",
"669 -42 OFFCURVE",
"712 -10 OFFCURVE",
"712 47 CURVE SMOOTH",
"712 98 OFFCURVE",
"667 137 OFFCURVE",
"603 137 CURVE SMOOTH",
"547 137 OFFCURVE",
"484 101 OFFCURVE",
"484 38 CURVE SMOOTH",
"484 27 OFFCURVE",
"487 12 OFFCURVE",
"495 -4 CURVE",
"568 21 LINE",
"564 32 OFFCURVE",
"562 42 OFFCURVE",
"562 48 CURVE SMOOTH",
"562 64 OFFCURVE",
"575 70 OFFCURVE",
"589 70 CURVE SMOOTH",
"617 70 OFFCURVE",
"629 49 OFFCURVE",
"629 30 CURVE SMOOTH",
"629 -1 OFFCURVE",
"567 -28 OFFCURVE",
"536 -37 CURVE",
"513 -103 LINE",
"519 -110 LINE",
"541 -110 OFFCURVE",
"564 -112 OFFCURVE",
"585 -116 CURVE SMOOTH",
"617 -122 OFFCURVE",
"641 -135 OFFCURVE",
"641 -155 CURVE SMOOTH",
"641 -176 OFFCURVE",
"599 -188 OFFCURVE",
"565 -188 CURVE SMOOTH",
"457 -188 OFFCURVE",
"408 -119 OFFCURVE",
"408 -60 CURVE SMOOTH",
"408 -20 OFFCURVE",
"418 26 OFFCURVE",
"438 79 CURVE",
"410 111 LINE",
"358 62 OFFCURVE",
"324 -23 OFFCURVE",
"324 -96 CURVE SMOOTH"
);
}
);
width = 719;
}
);
leftMetricsKey = iorya;
rightKerningGroup = nnannaorya;
script = oriya;
category = Letter;
subCategory = Spacing;
},
{
glyphname = nnattaUIorya;
lastChange = "2021-07-22 07:42:59 +0000";
layers = (
{
anchors = (
{
name = b.tasubscriptorya;
position = "{400, 0}";
},
{
name = b.uvowelsignorya;
position = "{586, 0}";
},
{
name = t.candrabinduorya;
position = "{519, 657}";
},
{
name = t.ivowelsignorya;
position = "{320, 657}";
}
);
components = (
{
name = _part.nnahalf;
transform = "{1, 0, 0, 1, 3, 0}";
},
{
name = ttasubscriptorya;
transform = "{1, 0, 0, 1, 654, 203}";
}
);
layerId = "6C4C2116-C5E5-460E-80F0-69F45ED98D3F";
paths = (
{
closed = 1;
nodes = (
"586 177 LINE",
"586 657 LINE",
"579 664 LINE",
"519 650 LINE",
"519 170 LINE",
"526 163 LINE"
);
}
);
width = 712;
},
{
anchors = (
{
name = b.tasubscriptorya;
position = "{423, 0}";
},
{
name = b.uvowelsignorya;
position = "{634, 0}";
},
{
name = t.candrabinduorya;
position = "{514, 657}";
},
{
name = t.ivowelsignorya;
position = "{339, 657}";
}
);
components = (
{
name = _part.nnahalf;
transform = "{1, 0, 0, 1, -3, 0}";
},
{
name = ttasubscriptorya;
transform = "{1, 0, 0, 1, 715, 203}";
}
);
layerId = "D0F0E2C3-3B53-4823-9924-A34C50245C28";
paths = (
{
closed = 1;
nodes = (
"521 140 LINE",
"634 167 LINE",
"634 657 LINE",
"627 664 LINE",
"514 637 LINE",
"514 147 LINE"
);
}
);
width = 774;
}
);
leftMetricsKey = iorya;
rightKerningGroup = kassannaorya;
script = oriya;
category = Letter;
subCategory = Spacing;
},
{
glyphname = nnattaorya;
lastChange = "2021-07-22 08:03:45 +0000";
layers = (
{
anchors = (
{
name = b.tasubscriptorya;
position = "{400, 0}";
},
{
name = b.uvowelsignorya;
position = "{587, 0}";
},
{
name = t.candrabinduorya;
position = "{520, 657}";
},
{
name = t.ivowelsignorya;
position = "{321, 657}";
}
);
components = (
{
name = ttasubscriptorya;
transform = "{1, 0, 0, 1, 669, 145}";
},
{
name = _part.nnahalf;
transform = "{1, 0, 0, 1, 3, 0}";
}
);
layerId = "6C4C2116-C5E5-460E-80F0-69F45ED98D3F";
paths = (
{
closed = 1;
nodes = (
"587 107 LINE",
"587 657 LINE",
"580 664 LINE",
"520 650 LINE",
"520 100 LINE",
"527 93 LINE"
);
}
);
width = 723;
},
{
anchors = (
{
name = b.tasubscriptorya;
position = "{432, 0}";
},
{
name = b.uvowelsignorya;
position = "{643, 0}";
},
{
name = t.candrabinduorya;
position = "{523, 657}";
},
{
name = t.ivowelsignorya;
position = "{348, 657}";
}
);
components = (
{
name = ttasubscriptorya;
transform = "{1, 0, 0, 1, 724, 145}";
},
{
name = _part.nnahalf;
transform = "{1, 0, 0, 1, -3, 0}";
}
);
layerId = "D0F0E2C3-3B53-4823-9924-A34C50245C28";
paths = (
{
closed = 1;
nodes = (
"530 80 LINE",
"643 107 LINE",
"643 657 LINE",
"636 664 LINE",
"523 637 LINE",
"523 87 LINE"
);
}
);
width = 779;
}
);
leftMetricsKey = iorya;
rightKerningGroup = nnattaorya;
script = oriya;
category = Letter;
subCategory = Spacing;
},
